<?xml version="1.0" encoding="utf-8"?>
<!-- Generator: Adobe Illustrator 17.1.0, SVG Export Plug-In . SVG Version: 6.00 Build 0)  -->
<!DOCTYPE svg PUBLIC "-//W3C//DTD SVG 1.1//EN" "http://www.w3.org/Graphics/SVG/1.1/DTD/svg11.dtd">
<svg version="1.1" id="Layer_1" xmlns="http://www.w3.org/2000/svg" xmlns:xlink="http://www.w3.org/1999/xlink" x="0px" y="0px"
	 viewBox="16.9 174.7 319.6 236.6" enable-background="new 16.9 174.7 319.6 236.6" xml:space="preserve">
<g>
	<g>
		<path fill="#CFE2F3" d="M17.9,175.7h317.6v125.2H17.9L17.9,175.7z"/>
		<path fill="none" stroke="#000000" stroke-width="2" stroke-linejoin="round" stroke-miterlimit="10" d="M17.9,175.7h317.6v125.2
			H17.9L17.9,175.7z"/>
		<path d="M130.1,189.5v-1h3.7v3.2c-0.6,0.5-1.1,0.8-1.8,1c-0.6,0.2-1.2,0.3-1.8,0.3c-0.8,0-1.6-0.2-2.3-0.5
			c-0.7-0.4-1.2-0.9-1.6-1.6c-0.4-0.7-0.5-1.5-0.5-2.3c0-0.8,0.2-1.6,0.5-2.4c0.4-0.7,0.9-1.3,1.5-1.6c0.7-0.4,1.4-0.5,2.3-0.5
			c0.6,0,1.2,0.1,1.7,0.3c0.5,0.2,0.9,0.5,1.2,0.8c0.3,0.4,0.5,0.8,0.7,1.4l-1,0.3c-0.1-0.4-0.3-0.8-0.5-1c-0.2-0.3-0.5-0.5-0.8-0.6
			c-0.4-0.2-0.8-0.2-1.2-0.2c-0.5,0-1,0.1-1.4,0.2c-0.4,0.2-0.7,0.4-0.9,0.6c-0.2,0.3-0.4,0.5-0.5,0.9c-0.2,0.5-0.3,1.1-0.3,1.7
			c0,0.8,0.1,1.4,0.4,1.9c0.3,0.5,0.7,0.9,1.2,1.2c0.5,0.3,1.1,0.4,1.6,0.4c0.5,0,1-0.1,1.5-0.3c0.5-0.2,0.8-0.4,1.1-0.6v-1.6H130.1
			z M134.7,189.7c0-1.2,0.3-2,1-2.6c0.5-0.5,1.2-0.7,2-0.7c0.9,0,1.6,0.3,2.1,0.9c0.6,0.6,0.8,1.3,0.8,2.3c0,0.8-0.1,1.4-0.4,1.9
			c-0.2,0.5-0.6,0.8-1.1,1.1c-0.5,0.3-1,0.4-1.5,0.4c-0.9,0-1.6-0.3-2.1-0.8C135,191.6,134.7,190.8,134.7,189.7z M135.8,189.7
			c0,0.8,0.2,1.4,0.5,1.8c0.4,0.4,0.8,0.6,1.3,0.6s1-0.2,1.3-0.6c0.4-0.4,0.5-1,0.5-1.8c0-0.8-0.2-1.4-0.5-1.8
			c-0.4-0.4-0.8-0.6-1.3-0.6c-0.5,0-1,0.2-1.3,0.6C136,188.3,135.8,188.9,135.8,189.7z M141.4,189.7c0-1.2,0.3-2,1-2.6
			c0.5-0.5,1.2-0.7,2-0.7c0.9,0,1.6,0.3,2.1,0.9c0.6,0.6,0.8,1.3,0.8,2.3c0,0.8-0.1,1.4-0.4,1.9c-0.2,0.5-0.6,0.8-1.1,1.1
			c-0.5,0.3-1,0.4-1.5,0.4c-0.9,0-1.6-0.3-2.1-0.8C141.6,191.6,141.4,190.8,141.4,189.7z M142.4,189.7c0,0.8,0.2,1.4,0.5,1.8
			c0.4,0.4,0.8,0.6,1.3,0.6s1-0.2,1.3-0.6c0.4-0.4,0.5-1,0.5-1.8c0-0.8-0.2-1.4-0.5-1.8c-0.4-0.4-0.8-0.6-1.3-0.6
			c-0.5,0-1,0.2-1.3,0.6C142.6,188.3,142.4,188.9,142.4,189.7z M148.2,193.4l1,0.2c0,0.3,0.2,0.6,0.4,0.7c0.3,0.2,0.6,0.3,1.1,0.3
			c0.5,0,0.9-0.1,1.1-0.3c0.3-0.2,0.4-0.5,0.5-0.8c0.1-0.2,0.1-0.7,0.1-1.4c-0.5,0.6-1,0.8-1.7,0.8c-0.9,0-1.5-0.3-2-0.9
			c-0.5-0.6-0.7-1.4-0.7-2.2c0-0.6,0.1-1.1,0.3-1.7c0.2-0.5,0.5-0.9,0.9-1.2c0.4-0.3,0.9-0.4,1.4-0.4c0.7,0,1.4,0.3,1.8,0.9v-0.8h1
			v5.4c0,1-0.1,1.7-0.3,2.1c-0.2,0.4-0.5,0.7-0.9,1c-0.4,0.2-1,0.4-1.6,0.4c-0.8,0-1.4-0.2-1.8-0.5
			C148.4,194.6,148.2,194.1,148.2,193.4z M149.1,189.6c0,0.8,0.2,1.4,0.5,1.8c0.3,0.4,0.7,0.6,1.2,0.6c0.5,0,0.9-0.2,1.2-0.6
			s0.5-1,0.5-1.8c0-0.8-0.2-1.3-0.5-1.7c-0.3-0.4-0.7-0.6-1.2-0.6c-0.5,0-0.9,0.2-1.2,0.6C149.2,188.3,149.1,188.9,149.1,189.6z
			 M155,192.9v-8.7h1.1v8.7H155z M161.9,190.9l1.1,0.1c-0.2,0.6-0.5,1.1-1,1.5c-0.5,0.4-1.1,0.5-1.8,0.5c-0.9,0-1.6-0.3-2.2-0.8
			c-0.5-0.6-0.8-1.4-0.8-2.4c0-1.1,0.3-1.9,0.8-2.5c0.5-0.6,1.3-0.9,2.1-0.9c0.8,0,1.5,0.3,2.1,0.9c0.5,0.6,0.8,1.4,0.8,2.4
			c0,0.1,0,0.2,0,0.3h-4.7c0,0.7,0.2,1.2,0.6,1.6s0.8,0.5,1.3,0.5c0.4,0,0.7-0.1,1-0.3C161.5,191.6,161.8,191.3,161.9,190.9z
			 M158.4,189.1h3.5c0-0.5-0.2-0.9-0.4-1.2c-0.3-0.4-0.8-0.6-1.3-0.6c-0.5,0-0.9,0.2-1.2,0.5C158.6,188.1,158.5,188.6,158.4,189.1z
			 M166.7,192.9l3.3-8.7h1.2l3.5,8.7h-1.3l-1-2.6h-3.6l-0.9,2.6H166.7z M169.2,189.3h2.9l-0.9-2.4c-0.3-0.7-0.5-1.3-0.6-1.8
			c-0.1,0.6-0.3,1.1-0.5,1.7L169.2,189.3z M175.5,195.3v-8.7h1v0.8c0.2-0.3,0.5-0.6,0.8-0.7c0.3-0.2,0.6-0.2,1-0.2
			c0.5,0,1,0.1,1.4,0.4c0.4,0.3,0.7,0.7,0.9,1.2c0.2,0.5,0.3,1.1,0.3,1.7c0,0.6-0.1,1.2-0.3,1.7c-0.2,0.5-0.6,0.9-1,1.2
			s-0.9,0.4-1.4,0.4c-0.4,0-0.7-0.1-1-0.2c-0.3-0.2-0.5-0.3-0.7-0.6v3.1H175.5z M176.4,189.8c0,0.8,0.2,1.4,0.5,1.8
			c0.3,0.4,0.7,0.6,1.2,0.6c0.5,0,0.9-0.2,1.2-0.6c0.3-0.4,0.5-1,0.5-1.9c0-0.8-0.2-1.4-0.5-1.8c-0.3-0.4-0.7-0.6-1.2-0.6
			c-0.5,0-0.9,0.2-1.2,0.6C176.6,188.3,176.4,189,176.4,189.8z M182.1,195.3v-8.7h1v0.8c0.2-0.3,0.5-0.6,0.8-0.7
			c0.3-0.2,0.6-0.2,1-0.2c0.5,0,1,0.1,1.4,0.4c0.4,0.3,0.7,0.7,0.9,1.2c0.2,0.5,0.3,1.1,0.3,1.7c0,0.6-0.1,1.2-0.3,1.7
			c-0.2,0.5-0.6,0.9-1,1.2s-0.9,0.4-1.4,0.4c-0.4,0-0.7-0.1-1-0.2c-0.3-0.2-0.5-0.3-0.7-0.6v3.1H182.1z M183.1,189.8
			c0,0.8,0.2,1.4,0.5,1.8c0.3,0.4,0.7,0.6,1.2,0.6c0.5,0,0.9-0.2,1.2-0.6c0.3-0.4,0.5-1,0.5-1.9c0-0.8-0.2-1.4-0.5-1.8
			c-0.3-0.4-0.7-0.6-1.2-0.6c-0.5,0-0.9,0.2-1.2,0.6C183.2,188.3,183.1,189,183.1,189.8z M192.2,192.9v-8.7h6.3v1h-5.1v2.7h4.8v1
			h-4.8v2.9h5.3v1H192.2z M199.9,192.9v-6.3h1v0.9c0.5-0.7,1.1-1,2-1c0.4,0,0.7,0.1,1,0.2c0.3,0.1,0.6,0.3,0.7,0.5
			c0.2,0.2,0.3,0.5,0.3,0.8c0,0.2,0.1,0.5,0.1,1v3.9H204V189c0-0.4,0-0.8-0.1-1c-0.1-0.2-0.2-0.4-0.4-0.5c-0.2-0.1-0.5-0.2-0.7-0.2
			c-0.5,0-0.8,0.1-1.2,0.4c-0.3,0.3-0.5,0.8-0.5,1.6v3.4H199.9z M206.4,193.4l1,0.2c0,0.3,0.2,0.6,0.4,0.7c0.3,0.2,0.6,0.3,1.1,0.3
			c0.5,0,0.9-0.1,1.1-0.3c0.3-0.2,0.4-0.5,0.5-0.8c0.1-0.2,0.1-0.7,0.1-1.4c-0.5,0.6-1,0.8-1.7,0.8c-0.9,0-1.5-0.3-2-0.9
			c-0.5-0.6-0.7-1.4-0.7-2.2c0-0.6,0.1-1.1,0.3-1.7c0.2-0.5,0.5-0.9,0.9-1.2c0.4-0.3,0.9-0.4,1.4-0.4c0.7,0,1.4,0.3,1.8,0.9v-0.8h1
			v5.4c0,1-0.1,1.7-0.3,2.1c-0.2,0.4-0.5,0.7-0.9,1c-0.4,0.2-1,0.4-1.6,0.4c-0.8,0-1.4-0.2-1.8-0.5
			C206.6,194.6,206.3,194.1,206.4,193.4z M207.2,189.6c0,0.8,0.2,1.4,0.5,1.8c0.3,0.4,0.7,0.6,1.2,0.6c0.5,0,0.9-0.2,1.2-0.6
			c0.3-0.4,0.5-1,0.5-1.8c0-0.8-0.2-1.3-0.5-1.7c-0.3-0.4-0.7-0.6-1.2-0.6c-0.5,0-0.9,0.2-1.2,0.6
			C207.4,188.3,207.2,188.9,207.2,189.6z M213.2,185.4v-1.2h1.1v1.2H213.2z M213.2,192.9v-6.3h1.1v6.3H213.2z M215.8,192.9v-6.3h1
			v0.9c0.5-0.7,1.1-1,2-1c0.4,0,0.7,0.1,1,0.2c0.3,0.1,0.6,0.3,0.7,0.5c0.2,0.2,0.3,0.5,0.3,0.8c0,0.2,0.1,0.5,0.1,1v3.9h-1.1V189
			c0-0.4,0-0.8-0.1-1c-0.1-0.2-0.2-0.4-0.4-0.5c-0.2-0.1-0.5-0.2-0.7-0.2c-0.5,0-0.8,0.1-1.2,0.4c-0.3,0.3-0.5,0.8-0.5,1.6v3.4
			H215.8z M226.7,190.9l1.1,0.1c-0.2,0.6-0.5,1.1-1,1.5c-0.5,0.4-1.1,0.5-1.8,0.5c-0.9,0-1.6-0.3-2.2-0.8s-0.8-1.4-0.8-2.4
			c0-1.1,0.3-1.9,0.8-2.5c0.5-0.6,1.3-0.9,2.1-0.9c0.8,0,1.5,0.3,2.1,0.9c0.5,0.6,0.8,1.4,0.8,2.4c0,0.1,0,0.2,0,0.3h-4.7
			c0,0.7,0.2,1.2,0.6,1.6s0.8,0.5,1.3,0.5c0.4,0,0.7-0.1,1-0.3C226.3,191.6,226.6,191.3,226.7,190.9z M223.2,189.1h3.5
			c0-0.5-0.2-0.9-0.4-1.2c-0.3-0.4-0.8-0.6-1.3-0.6c-0.5,0-0.9,0.2-1.2,0.5C223.4,188.1,223.3,188.6,223.2,189.1z"/>
		<path fill="#E6B8AF" d="M35.2,207.1h221.6v83.4H35.2L35.2,207.1z"/>
		<path fill="none" stroke="#000000" stroke-width="2" stroke-linejoin="round" stroke-miterlimit="10" d="M35.2,207.1h221.6v83.4
			H35.2L35.2,207.1z"/>
		<path d="M84.5,224.3l3.3-8.7h1.2l3.5,8.7h-1.3l-1-2.6h-3.6l-0.9,2.6H84.5z M87,220.7H90l-0.9-2.4c-0.3-0.7-0.5-1.3-0.6-1.8
			c-0.1,0.6-0.3,1.1-0.5,1.7L87,220.7z M93.3,226.7V218h1v0.8c0.2-0.3,0.5-0.6,0.8-0.7c0.3-0.2,0.6-0.2,1-0.2c0.5,0,1,0.1,1.4,0.4
			c0.4,0.3,0.7,0.7,0.9,1.2c0.2,0.5,0.3,1.1,0.3,1.7c0,0.6-0.1,1.2-0.3,1.7c-0.2,0.5-0.6,0.9-1,1.2c-0.4,0.3-0.9,0.4-1.4,0.4
			c-0.4,0-0.7-0.1-1-0.2c-0.3-0.2-0.5-0.3-0.7-0.6v3.1H93.3z M94.2,221.2c0,0.8,0.2,1.4,0.5,1.8c0.3,0.4,0.7,0.6,1.2,0.6
			c0.5,0,0.9-0.2,1.2-0.6c0.3-0.4,0.5-1,0.5-1.9c0-0.8-0.2-1.4-0.5-1.8c-0.3-0.4-0.7-0.6-1.2-0.6c-0.5,0-0.9,0.2-1.2,0.6
			C94.4,219.8,94.2,220.4,94.2,221.2z M99.9,226.7V218h1v0.8c0.2-0.3,0.5-0.6,0.8-0.7c0.3-0.2,0.6-0.2,1-0.2c0.5,0,1,0.1,1.4,0.4
			c0.4,0.3,0.7,0.7,0.9,1.2c0.2,0.5,0.3,1.1,0.3,1.7c0,0.6-0.1,1.2-0.3,1.7c-0.2,0.5-0.6,0.9-1,1.2c-0.4,0.3-0.9,0.4-1.4,0.4
			c-0.4,0-0.7-0.1-1-0.2c-0.3-0.2-0.5-0.3-0.7-0.6v3.1H99.9z M100.9,221.2c0,0.8,0.2,1.4,0.5,1.8c0.3,0.4,0.7,0.6,1.2,0.6
			c0.5,0,0.9-0.2,1.2-0.6c0.3-0.4,0.5-1,0.5-1.9c0-0.8-0.2-1.4-0.5-1.8c-0.3-0.4-0.7-0.6-1.2-0.6c-0.5,0-0.9,0.2-1.2,0.6
			C101,219.8,100.9,220.4,100.9,221.2z M110,224.3v-8.7h6.3v1h-5.1v2.7h4.8v1h-4.8v2.9h5.3v1H110z M117.7,224.3V218h1v0.9
			c0.5-0.7,1.1-1,2-1c0.4,0,0.7,0.1,1,0.2c0.3,0.1,0.6,0.3,0.7,0.5c0.2,0.2,0.3,0.5,0.3,0.8c0,0.2,0.1,0.5,0.1,1v3.9h-1.1v-3.8
			c0-0.4,0-0.8-0.1-1c-0.1-0.2-0.2-0.4-0.4-0.5c-0.2-0.1-0.5-0.2-0.7-0.2c-0.5,0-0.8,0.1-1.2,0.4c-0.3,0.3-0.5,0.8-0.5,1.6v3.4
			H117.7z M124.2,224.8l1,0.2c0,0.3,0.2,0.6,0.4,0.7c0.3,0.2,0.6,0.3,1.1,0.3c0.5,0,0.9-0.1,1.1-0.3c0.3-0.2,0.4-0.5,0.5-0.8
			c0.1-0.2,0.1-0.7,0.1-1.4c-0.5,0.6-1,0.8-1.7,0.8c-0.9,0-1.5-0.3-2-0.9c-0.5-0.6-0.7-1.4-0.7-2.2c0-0.6,0.1-1.1,0.3-1.7
			c0.2-0.5,0.5-0.9,0.9-1.2c0.4-0.3,0.9-0.4,1.4-0.4c0.7,0,1.4,0.3,1.8,0.9V218h1v5.4c0,1-0.1,1.7-0.3,2.1c-0.2,0.4-0.5,0.7-0.9,1
			c-0.4,0.2-1,0.4-1.6,0.4c-0.8,0-1.4-0.2-1.8-0.5C124.4,226,124.2,225.5,124.2,224.8z M125,221c0,0.8,0.2,1.4,0.5,1.8
			c0.3,0.4,0.7,0.6,1.2,0.6c0.5,0,0.9-0.2,1.2-0.6c0.3-0.4,0.5-1,0.5-1.8c0-0.8-0.2-1.3-0.5-1.7c-0.3-0.4-0.7-0.6-1.2-0.6
			c-0.5,0-0.9,0.2-1.2,0.6C125.2,219.7,125,220.3,125,221z M131,216.9v-1.2h1.1v1.2H131z M131,224.3V218h1.1v6.3H131z M133.6,224.3
			V218h1v0.9c0.5-0.7,1.1-1,2-1c0.4,0,0.7,0.1,1,0.2c0.3,0.1,0.6,0.3,0.7,0.5c0.2,0.2,0.3,0.5,0.3,0.8c0,0.2,0.1,0.5,0.1,1v3.9h-1.1
			v-3.8c0-0.4,0-0.8-0.1-1c-0.1-0.2-0.2-0.4-0.4-0.5c-0.2-0.1-0.5-0.2-0.7-0.2c-0.5,0-0.8,0.1-1.2,0.4c-0.3,0.3-0.5,0.8-0.5,1.6v3.4
			H133.6z M144.5,222.3l1.1,0.1c-0.2,0.6-0.5,1.1-1,1.5c-0.5,0.4-1.1,0.5-1.8,0.5c-0.9,0-1.6-0.3-2.2-0.8c-0.5-0.6-0.8-1.4-0.8-2.4
			c0-1.1,0.3-1.9,0.8-2.5c0.5-0.6,1.3-0.9,2.1-0.9c0.8,0,1.5,0.3,2.1,0.9c0.5,0.6,0.8,1.4,0.8,2.4c0,0.1,0,0.2,0,0.3H141
			c0,0.7,0.2,1.2,0.6,1.6s0.8,0.5,1.3,0.5c0.4,0,0.7-0.1,1-0.3C144.1,223.1,144.4,222.7,144.5,222.3z M141,220.6h3.5
			c0-0.5-0.2-0.9-0.4-1.2c-0.3-0.4-0.8-0.6-1.3-0.6c-0.5,0-0.9,0.2-1.2,0.5C141.3,219.6,141.1,220,141,220.6z M149.3,224.3l3.3-8.7
			h1.2l3.5,8.7h-1.3l-1-2.6h-3.6l-0.9,2.6H149.3z M151.8,220.7h2.9l-0.9-2.4c-0.3-0.7-0.5-1.3-0.6-1.8c-0.1,0.6-0.3,1.1-0.5,1.7
			L151.8,220.7z M158.1,226.7V218h1v0.8c0.2-0.3,0.5-0.6,0.8-0.7c0.3-0.2,0.6-0.2,1-0.2c0.5,0,1,0.1,1.4,0.4
			c0.4,0.3,0.7,0.7,0.9,1.2c0.2,0.5,0.3,1.1,0.3,1.7c0,0.6-0.1,1.2-0.3,1.7c-0.2,0.5-0.6,0.9-1,1.2c-0.4,0.3-0.9,0.4-1.4,0.4
			c-0.4,0-0.7-0.1-1-0.2c-0.3-0.2-0.5-0.3-0.7-0.6v3.1H158.1z M159.1,221.2c0,0.8,0.2,1.4,0.5,1.8c0.3,0.4,0.7,0.6,1.2,0.6
			c0.5,0,0.9-0.2,1.2-0.6c0.3-0.4,0.5-1,0.5-1.9c0-0.8-0.2-1.4-0.5-1.8c-0.3-0.4-0.7-0.6-1.2-0.6c-0.5,0-0.9,0.2-1.2,0.6
			C159.2,219.8,159.1,220.4,159.1,221.2z M164.7,226.7V218h1v0.8c0.2-0.3,0.5-0.6,0.8-0.7c0.3-0.2,0.6-0.2,1-0.2
			c0.5,0,1,0.1,1.4,0.4c0.4,0.3,0.7,0.7,0.9,1.2c0.2,0.5,0.3,1.1,0.3,1.7c0,0.6-0.1,1.2-0.3,1.7c-0.2,0.5-0.6,0.9-1,1.2
			c-0.4,0.3-0.9,0.4-1.4,0.4c-0.4,0-0.7-0.1-1-0.2c-0.3-0.2-0.5-0.3-0.7-0.6v3.1H164.7z M165.7,221.2c0,0.8,0.2,1.4,0.5,1.8
			c0.3,0.4,0.7,0.6,1.2,0.6c0.5,0,0.9-0.2,1.2-0.6c0.3-0.4,0.5-1,0.5-1.9c0-0.8-0.2-1.4-0.5-1.8c-0.3-0.4-0.7-0.6-1.2-0.6
			c-0.5,0-0.9,0.2-1.2,0.6C165.8,219.8,165.7,220.4,165.7,221.2z M171.3,224.3v-8.7h1.1v8.7H171.3z M174,216.9v-1.2h1.1v1.2H174z
			 M174,224.3V218h1.1v6.3H174z M180.7,222l1,0.1c-0.1,0.7-0.4,1.3-0.9,1.7c-0.5,0.4-1.1,0.6-1.7,0.6c-0.9,0-1.5-0.3-2.1-0.8
			c-0.5-0.6-0.8-1.4-0.8-2.4c0-0.7,0.1-1.3,0.3-1.8c0.2-0.5,0.6-0.9,1-1.1c0.5-0.3,1-0.4,1.5-0.4c0.7,0,1.2,0.2,1.7,0.5
			c0.4,0.3,0.7,0.8,0.8,1.5l-1,0.2c-0.1-0.4-0.3-0.7-0.5-1c-0.3-0.2-0.6-0.3-0.9-0.3c-0.5,0-1,0.2-1.3,0.6c-0.3,0.4-0.5,1-0.5,1.8
			c0,0.8,0.2,1.5,0.5,1.8c0.3,0.4,0.7,0.6,1.3,0.6c0.4,0,0.8-0.1,1-0.4C180.4,222.9,180.6,222.5,180.7,222z M186.6,223.5
			c-0.4,0.3-0.8,0.6-1.1,0.7c-0.4,0.1-0.8,0.2-1.2,0.2c-0.7,0-1.2-0.2-1.6-0.5c-0.4-0.3-0.6-0.8-0.6-1.3c0-0.3,0.1-0.6,0.2-0.8
			c0.1-0.3,0.3-0.5,0.5-0.6c0.2-0.2,0.5-0.3,0.8-0.3c0.2-0.1,0.5-0.1,0.9-0.2c0.9-0.1,1.5-0.2,1.9-0.4c0-0.1,0-0.2,0-0.3
			c0-0.4-0.1-0.7-0.3-0.9c-0.3-0.2-0.7-0.4-1.2-0.4c-0.5,0-0.9,0.1-1.1,0.3c-0.2,0.2-0.4,0.5-0.5,0.9l-1-0.1
			c0.1-0.4,0.3-0.8,0.5-1.1c0.2-0.3,0.5-0.5,0.9-0.6c0.4-0.2,0.9-0.2,1.4-0.2c0.5,0,1,0.1,1.3,0.2c0.3,0.1,0.6,0.3,0.7,0.5
			s0.3,0.4,0.3,0.7c0,0.2,0.1,0.5,0.1,1v1.4c0,1,0,1.6,0.1,1.9c0,0.3,0.1,0.5,0.3,0.7h-1.1C186.7,224.1,186.7,223.8,186.6,223.5z
			 M186.6,221.2c-0.4,0.2-1,0.3-1.7,0.4c-0.4,0.1-0.7,0.1-0.9,0.2c-0.2,0.1-0.3,0.2-0.4,0.3c-0.1,0.2-0.1,0.3-0.1,0.5
			c0,0.3,0.1,0.5,0.3,0.7c0.2,0.2,0.5,0.3,0.9,0.3c0.4,0,0.8-0.1,1.1-0.3c0.3-0.2,0.6-0.4,0.7-0.7c0.1-0.2,0.2-0.6,0.2-1.1V221.2z
			 M191.5,223.3l0.1,0.9c-0.3,0.1-0.6,0.1-0.8,0.1c-0.4,0-0.7-0.1-0.9-0.2c-0.2-0.1-0.4-0.3-0.4-0.5c-0.1-0.2-0.1-0.6-0.1-1.3v-3.6
			h-0.8V218h0.8v-1.6l1.1-0.6v2.2h1.1v0.8h-1.1v3.7c0,0.3,0,0.5,0,0.6c0,0.1,0.1,0.2,0.2,0.2c0.1,0.1,0.2,0.1,0.4,0.1
			C191.1,223.4,191.3,223.4,191.5,223.3z M192.5,216.9v-1.2h1.1v1.2H192.5z M192.5,224.3V218h1.1v6.3H192.5z M194.7,221.2
			c0-1.2,0.3-2,1-2.6c0.5-0.5,1.2-0.7,2-0.7c0.9,0,1.6,0.3,2.1,0.9c0.6,0.6,0.8,1.3,0.8,2.3c0,0.8-0.1,1.4-0.4,1.9
			c-0.2,0.5-0.6,0.8-1.1,1.1c-0.5,0.3-1,0.4-1.5,0.4c-0.9,0-1.6-0.3-2.1-0.8C195,223,194.7,222.2,194.7,221.2z M195.8,221.2
			c0,0.8,0.2,1.4,0.5,1.8c0.4,0.4,0.8,0.6,1.3,0.6c0.5,0,1-0.2,1.3-0.6c0.4-0.4,0.5-1,0.5-1.8c0-0.8-0.2-1.4-0.5-1.8
			c-0.4-0.4-0.8-0.6-1.3-0.6c-0.5,0-1,0.2-1.3,0.6C196,219.8,195.8,220.4,195.8,221.2z M201.7,224.3V218h1v0.9c0.5-0.7,1.1-1,2-1
			c0.4,0,0.7,0.1,1,0.2c0.3,0.1,0.6,0.3,0.7,0.5c0.2,0.2,0.3,0.5,0.3,0.8c0,0.2,0.1,0.5,0.1,1v3.9h-1.1v-3.8c0-0.4,0-0.8-0.1-1
			c-0.1-0.2-0.2-0.4-0.4-0.5c-0.2-0.1-0.5-0.2-0.7-0.2c-0.5,0-0.8,0.1-1.2,0.4c-0.3,0.3-0.5,0.8-0.5,1.6v3.4H201.7z"/>
		<path fill="#FFF2CC" d="M158.1,239.6h86.8v43.4h-86.8V239.6z"/>
		<path fill="none" stroke="#000000" stroke-width="2" stroke-linejoin="round" stroke-miterlimit="10" d="M158.1,239.6h86.8v43.4
			h-86.8V239.6z"/>
		<path d="M175.6,253.7l1.1,0.3c-0.2,0.9-0.7,1.7-1.3,2.2c-0.6,0.5-1.4,0.7-2.3,0.7c-0.9,0-1.7-0.2-2.3-0.6c-0.6-0.4-1-0.9-1.3-1.7
			c-0.3-0.7-0.5-1.5-0.5-2.3c0-0.9,0.2-1.7,0.5-2.4c0.3-0.7,0.8-1.2,1.5-1.5c0.6-0.4,1.3-0.5,2.1-0.5c0.9,0,1.6,0.2,2.2,0.7
			c0.6,0.4,1,1.1,1.2,1.9l-1.1,0.3c-0.2-0.6-0.5-1.1-0.9-1.4c-0.4-0.3-0.9-0.4-1.4-0.4c-0.7,0-1.2,0.2-1.7,0.5
			c-0.4,0.3-0.8,0.8-0.9,1.3c-0.2,0.5-0.3,1.1-0.3,1.7c0,0.7,0.1,1.4,0.3,1.9c0.2,0.5,0.6,1,1,1.2c0.5,0.3,0.9,0.4,1.5,0.4
			c0.6,0,1.2-0.2,1.6-0.5C175.2,255,175.5,254.4,175.6,253.7z M177.5,253.6c0-1.2,0.3-2,1-2.6c0.5-0.5,1.2-0.7,2-0.7
			c0.9,0,1.6,0.3,2.1,0.9c0.6,0.6,0.8,1.3,0.8,2.3c0,0.8-0.1,1.4-0.4,1.9c-0.2,0.5-0.6,0.8-1.1,1.1c-0.5,0.3-1,0.4-1.5,0.4
			c-0.9,0-1.6-0.3-2.1-0.8C177.7,255.5,177.5,254.6,177.5,253.6z M178.6,253.6c0,0.8,0.2,1.4,0.5,1.8c0.4,0.4,0.8,0.6,1.3,0.6
			c0.5,0,1-0.2,1.3-0.6c0.4-0.4,0.5-1,0.5-1.8c0-0.8-0.2-1.4-0.5-1.8c-0.4-0.4-0.8-0.6-1.3-0.6c-0.5,0-1,0.2-1.3,0.6
			C178.7,252.2,178.6,252.8,178.6,253.6z M184.1,254.9l1.1-0.2c0.1,0.4,0.2,0.8,0.5,1c0.3,0.2,0.7,0.3,1.1,0.3
			c0.5,0,0.9-0.1,1.1-0.3c0.2-0.2,0.4-0.4,0.4-0.7c0-0.2-0.1-0.4-0.3-0.6c-0.1-0.1-0.5-0.2-1.1-0.4c-0.8-0.2-1.3-0.4-1.6-0.5
			c-0.3-0.1-0.5-0.3-0.7-0.6c-0.2-0.3-0.2-0.5-0.2-0.8c0-0.3,0.1-0.5,0.2-0.8c0.1-0.2,0.3-0.4,0.5-0.6c0.2-0.1,0.4-0.2,0.7-0.3
			c0.3-0.1,0.6-0.1,0.9-0.1c0.5,0,0.9,0.1,1.3,0.2c0.4,0.1,0.6,0.3,0.8,0.6c0.2,0.2,0.3,0.6,0.4,1l-1,0.1c0-0.3-0.2-0.6-0.4-0.7
			c-0.2-0.2-0.5-0.3-1-0.3c-0.5,0-0.8,0.1-1,0.2c-0.2,0.2-0.3,0.3-0.3,0.6c0,0.1,0,0.3,0.1,0.4c0.1,0.1,0.2,0.2,0.4,0.3
			c0.1,0,0.4,0.1,0.9,0.3c0.8,0.2,1.3,0.4,1.6,0.5c0.3,0.1,0.5,0.3,0.7,0.6c0.2,0.2,0.3,0.6,0.3,0.9c0,0.4-0.1,0.7-0.3,1
			c-0.2,0.3-0.5,0.6-0.9,0.7c-0.4,0.2-0.8,0.2-1.3,0.2c-0.8,0-1.4-0.2-1.9-0.5C184.5,256,184.2,255.5,184.1,254.9z M190.4,256.7
			v-6.3h1v0.9c0.2-0.3,0.5-0.6,0.8-0.7c0.3-0.2,0.7-0.3,1.1-0.3c0.5,0,0.8,0.1,1.1,0.3c0.3,0.2,0.5,0.5,0.6,0.8
			c0.5-0.7,1.1-1.1,1.9-1.1c0.6,0,1.1,0.2,1.4,0.5c0.3,0.3,0.5,0.9,0.5,1.6v4.3h-1.1v-4c0-0.4,0-0.7-0.1-0.9
			c-0.1-0.2-0.2-0.3-0.4-0.5c-0.2-0.1-0.4-0.2-0.6-0.2c-0.4,0-0.8,0.1-1.1,0.4c-0.3,0.3-0.4,0.8-0.4,1.4v3.6h-1.1v-4.1
			c0-0.5-0.1-0.8-0.3-1.1c-0.2-0.2-0.5-0.4-0.9-0.4c-0.3,0-0.6,0.1-0.8,0.2c-0.3,0.2-0.4,0.4-0.5,0.7c-0.1,0.3-0.2,0.7-0.2,1.3v3.3
			H190.4z M199.9,253.6c0-1.2,0.3-2,1-2.6c0.5-0.5,1.2-0.7,2-0.7c0.9,0,1.6,0.3,2.1,0.9c0.6,0.6,0.8,1.3,0.8,2.3
			c0,0.8-0.1,1.4-0.4,1.9c-0.2,0.5-0.6,0.8-1.1,1.1c-0.5,0.3-1,0.4-1.5,0.4c-0.9,0-1.6-0.3-2.1-0.8S199.9,254.6,199.9,253.6z
			 M201,253.6c0,0.8,0.2,1.4,0.5,1.8s0.8,0.6,1.3,0.6c0.5,0,1-0.2,1.3-0.6c0.4-0.4,0.5-1,0.5-1.8c0-0.8-0.2-1.4-0.5-1.8
			s-0.8-0.6-1.3-0.6c-0.5,0-1,0.2-1.3,0.6S201,252.8,201,253.6z M207,259.1v-8.7h1v0.8c0.2-0.3,0.5-0.6,0.8-0.7
			c0.3-0.2,0.6-0.2,1-0.2c0.5,0,1,0.1,1.4,0.4c0.4,0.3,0.7,0.7,0.9,1.2c0.2,0.5,0.3,1.1,0.3,1.7c0,0.6-0.1,1.2-0.3,1.7
			c-0.2,0.5-0.6,0.9-1,1.2c-0.4,0.3-0.9,0.4-1.4,0.4c-0.4,0-0.7-0.1-1-0.2c-0.3-0.2-0.5-0.3-0.7-0.6v3.1H207z M207.9,253.6
			c0,0.8,0.2,1.4,0.5,1.8c0.3,0.4,0.7,0.6,1.2,0.6c0.5,0,0.9-0.2,1.2-0.6c0.3-0.4,0.5-1,0.5-1.9c0-0.8-0.2-1.4-0.5-1.8
			c-0.3-0.4-0.7-0.6-1.2-0.6c-0.5,0-0.9,0.2-1.2,0.6C208.1,252.2,207.9,252.8,207.9,253.6z M213.2,253.6c0-1.2,0.3-2,1-2.6
			c0.5-0.5,1.2-0.7,2-0.7c0.9,0,1.6,0.3,2.1,0.9c0.6,0.6,0.8,1.3,0.8,2.3c0,0.8-0.1,1.4-0.4,1.9c-0.2,0.5-0.6,0.8-1.1,1.1
			c-0.5,0.3-1,0.4-1.5,0.4c-0.9,0-1.6-0.3-2.1-0.8C213.4,255.5,213.2,254.6,213.2,253.6z M214.3,253.6c0,0.8,0.2,1.4,0.5,1.8
			c0.4,0.4,0.8,0.6,1.3,0.6c0.5,0,1-0.2,1.3-0.6c0.4-0.4,0.5-1,0.5-1.8c0-0.8-0.2-1.4-0.5-1.8c-0.4-0.4-0.8-0.6-1.3-0.6
			c-0.5,0-1,0.2-1.3,0.6C214.4,252.2,214.3,252.8,214.3,253.6z M220.2,256.7v-8.7h1.1v8.7H220.2z M222.8,249.3v-1.2h1.1v1.2H222.8z
			 M222.8,256.7v-6.3h1.1v6.3H222.8z M227.8,255.8l0.1,0.9c-0.3,0.1-0.6,0.1-0.8,0.1c-0.4,0-0.7-0.1-0.9-0.2
			c-0.2-0.1-0.4-0.3-0.4-0.5c-0.1-0.2-0.1-0.6-0.1-1.3v-3.6h-0.8v-0.8h0.8v-1.6l1.1-0.6v2.2h1.1v0.8h-1.1v3.7c0,0.3,0,0.5,0,0.6
			c0,0.1,0.1,0.2,0.2,0.2c0.1,0.1,0.2,0.1,0.4,0.1C227.4,255.8,227.6,255.8,227.8,255.8z M233.1,254.7l1.1,0.1
			c-0.2,0.6-0.5,1.1-1,1.5c-0.5,0.4-1.1,0.5-1.8,0.5c-0.9,0-1.6-0.3-2.2-0.8s-0.8-1.4-0.8-2.4c0-1.1,0.3-1.9,0.8-2.5
			c0.5-0.6,1.3-0.9,2.1-0.9c0.8,0,1.5,0.3,2.1,0.9s0.8,1.4,0.8,2.4c0,0.1,0,0.2,0,0.3h-4.7c0,0.7,0.2,1.2,0.6,1.6s0.8,0.5,1.3,0.5
			c0.4,0,0.7-0.1,1-0.3C232.7,255.5,232.9,255.2,233.1,254.7z M229.6,253h3.5c0-0.5-0.2-0.9-0.4-1.2c-0.3-0.4-0.8-0.6-1.3-0.6
			c-0.5,0-0.9,0.2-1.2,0.5C229.8,252,229.6,252.4,229.6,253z"/>
		<path d="M181.9,273.3c-0.6-0.7-1.1-1.6-1.5-2.6c-0.4-1-0.6-2-0.6-3.1c0-0.9,0.1-1.8,0.4-2.7c0.4-1,0.9-2,1.6-3h0.8
			c-0.5,0.8-0.8,1.4-0.9,1.8c-0.2,0.5-0.4,1.1-0.6,1.7c-0.2,0.7-0.3,1.5-0.3,2.2c0,1.9,0.6,3.8,1.8,5.7H181.9z M184,270.7v-8.7h3.3
			c0.6,0,1,0,1.3,0.1c0.4,0.1,0.8,0.2,1.1,0.4s0.5,0.5,0.7,0.8c0.2,0.4,0.3,0.8,0.3,1.2c0,0.7-0.2,1.4-0.7,1.9
			c-0.5,0.5-1.3,0.8-2.5,0.8h-2.2v3.5H184z M185.1,266.2h2.2c0.7,0,1.3-0.1,1.6-0.4c0.3-0.3,0.5-0.7,0.5-1.2c0-0.4-0.1-0.7-0.3-0.9
			c-0.2-0.3-0.4-0.4-0.7-0.5c-0.2-0.1-0.5-0.1-1.1-0.1h-2.2V266.2z M191.7,273.2l-0.1-1c0.2,0.1,0.4,0.1,0.6,0.1
			c0.2,0,0.4,0,0.6-0.1c0.1-0.1,0.3-0.2,0.4-0.3c0.1-0.1,0.2-0.4,0.3-0.8c0-0.1,0.1-0.1,0.1-0.3l-2.4-6.3h1.1l1.3,3.6
			c0.2,0.5,0.3,0.9,0.5,1.5c0.1-0.5,0.3-1,0.4-1.4l1.3-3.7h1.1l-2.4,6.4c-0.3,0.7-0.5,1.2-0.6,1.4c-0.2,0.4-0.4,0.6-0.6,0.8
			c-0.2,0.2-0.5,0.2-0.9,0.2C192.2,273.3,192,273.3,191.7,273.2z M200,269.8l0.1,0.9c-0.3,0.1-0.6,0.1-0.8,0.1
			c-0.4,0-0.7-0.1-0.9-0.2c-0.2-0.1-0.4-0.3-0.4-0.5c-0.1-0.2-0.1-0.6-0.1-1.3v-3.6h-0.8v-0.8h0.8v-1.6l1.1-0.6v2.2h1.1v0.8H199v3.7
			c0,0.3,0,0.5,0,0.6c0,0.1,0.1,0.2,0.2,0.2c0.1,0.1,0.2,0.1,0.4,0.1C199.7,269.8,199.8,269.8,200,269.8z M201,270.7v-8.7h1.1v3.1
			c0.5-0.6,1.1-0.9,1.9-0.9c0.5,0,0.9,0.1,1.2,0.3c0.3,0.2,0.6,0.4,0.7,0.8c0.2,0.3,0.2,0.8,0.2,1.4v4h-1.1v-4
			c0-0.5-0.1-0.9-0.3-1.2c-0.2-0.2-0.6-0.4-1-0.4c-0.3,0-0.6,0.1-0.9,0.2c-0.3,0.2-0.5,0.4-0.6,0.7c-0.1,0.3-0.2,0.7-0.2,1.2v3.4
			H201z M207.2,267.6c0-1.2,0.3-2,1-2.6c0.5-0.5,1.2-0.7,2-0.7c0.9,0,1.6,0.3,2.1,0.9c0.6,0.6,0.8,1.3,0.8,2.3
			c0,0.8-0.1,1.4-0.4,1.9c-0.2,0.5-0.6,0.8-1.1,1.1c-0.5,0.3-1,0.4-1.5,0.4c-0.9,0-1.6-0.3-2.1-0.8
			C207.5,269.5,207.2,268.7,207.2,267.6z M208.3,267.6c0,0.8,0.2,1.4,0.5,1.8c0.4,0.4,0.8,0.6,1.3,0.6c0.5,0,1-0.2,1.3-0.6
			c0.4-0.4,0.5-1,0.5-1.8c0-0.8-0.2-1.4-0.5-1.8c-0.4-0.4-0.8-0.6-1.3-0.6c-0.5,0-1,0.2-1.3,0.6
			C208.5,266.2,208.3,266.8,208.3,267.6z M214.2,270.7v-6.3h1v0.9c0.5-0.7,1.1-1,2-1c0.4,0,0.7,0.1,1,0.2c0.3,0.1,0.6,0.3,0.7,0.5
			c0.2,0.2,0.3,0.5,0.3,0.8c0,0.2,0.1,0.5,0.1,1v3.9h-1.1v-3.8c0-0.4,0-0.8-0.1-1c-0.1-0.2-0.2-0.4-0.4-0.5
			c-0.2-0.1-0.5-0.2-0.7-0.2c-0.5,0-0.8,0.1-1.2,0.4c-0.3,0.3-0.5,0.8-0.5,1.6v3.4H214.2z M221.5,273.3h-0.8
			c1.2-1.9,1.8-3.8,1.8-5.7c0-0.7-0.1-1.5-0.2-2.2c-0.1-0.6-0.3-1.2-0.6-1.7c-0.2-0.4-0.5-0.9-0.9-1.8h0.8c0.7,1,1.3,2,1.6,3
			c0.3,0.9,0.5,1.8,0.5,2.7c0,1.1-0.2,2.1-0.6,3.1C222.6,271.7,222.1,272.6,221.5,273.3z"/>
		<path fill="#FFF2CC" d="M46.4,239.6h86.8v43.4H46.4V239.6z"/>
		<path fill="none" stroke="#000000" stroke-width="2" stroke-linejoin="round" stroke-miterlimit="10" d="M46.4,239.6h86.8v43.4
			H46.4V239.6z"/>
		<path d="M64.8,256.7V253l-3.3-5h1.4l1.7,2.6c0.3,0.5,0.6,1,0.9,1.5c0.3-0.5,0.6-1,0.9-1.5l1.7-2.5h1.3l-3.5,5v3.7H64.8z
			 M69.7,253.6c0-1.2,0.3-2,1-2.6c0.5-0.5,1.2-0.7,2-0.7c0.9,0,1.6,0.3,2.1,0.9c0.6,0.6,0.8,1.3,0.8,2.3c0,0.8-0.1,1.4-0.4,1.9
			c-0.2,0.5-0.6,0.8-1.1,1.1c-0.5,0.3-1,0.4-1.5,0.4c-0.9,0-1.6-0.3-2.1-0.8S69.7,254.6,69.7,253.6z M70.8,253.6
			c0,0.8,0.2,1.4,0.5,1.8c0.4,0.4,0.8,0.6,1.3,0.6c0.5,0,1-0.2,1.3-0.6c0.4-0.4,0.5-1,0.5-1.8c0-0.8-0.2-1.4-0.5-1.8
			c-0.4-0.4-0.8-0.6-1.3-0.6c-0.5,0-1,0.2-1.3,0.6C71,252.2,70.8,252.8,70.8,253.6z M80.8,256.7v-0.9c-0.5,0.7-1.1,1.1-2,1.1
			c-0.4,0-0.7-0.1-1-0.2c-0.3-0.1-0.6-0.3-0.7-0.5c-0.2-0.2-0.3-0.5-0.3-0.8c0-0.2-0.1-0.5-0.1-1v-3.9h1.1v3.5c0,0.6,0,0.9,0.1,1.1
			c0.1,0.3,0.2,0.5,0.4,0.7c0.2,0.2,0.5,0.2,0.8,0.2c0.3,0,0.6-0.1,0.9-0.2c0.3-0.2,0.5-0.4,0.6-0.7c0.1-0.3,0.2-0.7,0.2-1.2v-3.4
			h1.1v6.3H80.8z M83.3,256.7v-6.3h1v1c0.2-0.4,0.5-0.7,0.7-0.9c0.2-0.1,0.4-0.2,0.7-0.2c0.4,0,0.7,0.1,1.1,0.3l-0.4,1
			c-0.3-0.2-0.5-0.2-0.8-0.2c-0.2,0-0.4,0.1-0.6,0.2c-0.2,0.1-0.3,0.3-0.4,0.6c-0.1,0.4-0.2,0.8-0.2,1.2v3.3H83.3z M96.9,253.7
			l1.1,0.3c-0.2,0.9-0.7,1.7-1.3,2.2c-0.6,0.5-1.4,0.7-2.3,0.7c-0.9,0-1.7-0.2-2.3-0.6c-0.6-0.4-1-0.9-1.3-1.7
			c-0.3-0.7-0.5-1.5-0.5-2.3c0-0.9,0.2-1.7,0.5-2.4c0.3-0.7,0.8-1.2,1.5-1.5c0.6-0.4,1.3-0.5,2.1-0.5c0.9,0,1.6,0.2,2.2,0.7
			c0.6,0.4,1,1.1,1.2,1.9l-1.1,0.3c-0.2-0.6-0.5-1.1-0.9-1.4c-0.4-0.3-0.9-0.4-1.4-0.4c-0.7,0-1.2,0.2-1.7,0.5
			c-0.4,0.3-0.8,0.8-0.9,1.3c-0.2,0.5-0.3,1.1-0.3,1.7c0,0.7,0.1,1.4,0.3,1.9c0.2,0.5,0.6,1,1,1.2c0.5,0.3,0.9,0.4,1.5,0.4
			c0.6,0,1.2-0.2,1.6-0.5C96.5,255,96.8,254.4,96.9,253.7z M98.8,253.6c0-1.2,0.3-2,1-2.6c0.5-0.5,1.2-0.7,2-0.7
			c0.9,0,1.6,0.3,2.1,0.9c0.6,0.6,0.8,1.3,0.8,2.3c0,0.8-0.1,1.4-0.4,1.9c-0.2,0.5-0.6,0.8-1.1,1.1c-0.5,0.3-1,0.4-1.5,0.4
			c-0.9,0-1.6-0.3-2.1-0.8C99.1,255.5,98.8,254.6,98.8,253.6z M99.9,253.6c0,0.8,0.2,1.4,0.5,1.8s0.8,0.6,1.3,0.6
			c0.5,0,1-0.2,1.3-0.6c0.4-0.4,0.5-1,0.5-1.8c0-0.8-0.2-1.4-0.5-1.8s-0.8-0.6-1.3-0.6c-0.5,0-1,0.2-1.3,0.6S99.9,252.8,99.9,253.6z
			 M109.9,256.7v-0.8c-0.4,0.6-1,0.9-1.8,0.9c-0.5,0-1-0.1-1.4-0.4c-0.4-0.3-0.7-0.7-1-1.2c-0.2-0.5-0.3-1.1-0.3-1.7
			c0-0.6,0.1-1.2,0.3-1.7c0.2-0.5,0.5-0.9,0.9-1.2c0.4-0.3,0.9-0.4,1.4-0.4c0.4,0,0.7,0.1,1,0.2c0.3,0.2,0.5,0.4,0.7,0.6v-3.1h1.1
			v8.7H109.9z M106.5,253.6c0,0.8,0.2,1.4,0.5,1.8c0.3,0.4,0.7,0.6,1.2,0.6c0.5,0,0.9-0.2,1.2-0.6c0.3-0.4,0.5-1,0.5-1.7
			c0-0.9-0.2-1.5-0.5-1.9c-0.3-0.4-0.7-0.6-1.2-0.6c-0.5,0-0.9,0.2-1.2,0.6C106.7,252.1,106.5,252.8,106.5,253.6z M116.7,254.7
			l1.1,0.1c-0.2,0.6-0.5,1.1-1,1.5c-0.5,0.4-1.1,0.5-1.8,0.5c-0.9,0-1.6-0.3-2.2-0.8c-0.5-0.6-0.8-1.4-0.8-2.4
			c0-1.1,0.3-1.9,0.8-2.5c0.5-0.6,1.3-0.9,2.1-0.9c0.8,0,1.5,0.3,2.1,0.9c0.5,0.6,0.8,1.4,0.8,2.4c0,0.1,0,0.2,0,0.3h-4.7
			c0,0.7,0.2,1.2,0.6,1.6c0.4,0.4,0.8,0.5,1.3,0.5c0.4,0,0.7-0.1,1-0.3C116.3,255.5,116.6,255.2,116.7,254.7z M113.2,253h3.5
			c0-0.5-0.2-0.9-0.4-1.2c-0.3-0.4-0.8-0.6-1.3-0.6c-0.5,0-0.9,0.2-1.2,0.5C113.4,252,113.3,252.4,113.2,253z"/>
		<path d="M70.2,273.3c-0.6-0.7-1.1-1.6-1.5-2.6c-0.4-1-0.6-2-0.6-3.1c0-0.9,0.1-1.8,0.4-2.7c0.4-1,0.9-2,1.6-3h0.8
			c-0.5,0.8-0.8,1.4-0.9,1.8c-0.2,0.5-0.4,1.1-0.6,1.7c-0.2,0.7-0.3,1.5-0.3,2.2c0,1.9,0.6,3.8,1.8,5.7H70.2z M72.2,270.7v-8.7h3.3
			c0.6,0,1,0,1.3,0.1c0.4,0.1,0.8,0.2,1.1,0.4s0.5,0.5,0.7,0.8c0.2,0.4,0.3,0.8,0.3,1.2c0,0.7-0.2,1.4-0.7,1.9
			c-0.5,0.5-1.3,0.8-2.5,0.8h-2.2v3.5H72.2z M73.4,266.2h2.2c0.7,0,1.3-0.1,1.6-0.4c0.3-0.3,0.5-0.7,0.5-1.2c0-0.4-0.1-0.7-0.3-0.9
			c-0.2-0.3-0.4-0.4-0.7-0.5c-0.2-0.1-0.5-0.1-1.1-0.1h-2.2V266.2z M80,273.2l-0.1-1c0.2,0.1,0.4,0.1,0.6,0.1c0.2,0,0.4,0,0.6-0.1
			c0.1-0.1,0.3-0.2,0.4-0.3c0.1-0.1,0.2-0.4,0.3-0.8c0-0.1,0.1-0.1,0.1-0.3l-2.4-6.3h1.1l1.3,3.6c0.2,0.5,0.3,0.9,0.5,1.5
			c0.1-0.5,0.3-1,0.4-1.4l1.3-3.7h1.1l-2.4,6.4c-0.3,0.7-0.5,1.2-0.6,1.4c-0.2,0.4-0.4,0.6-0.6,0.8c-0.2,0.2-0.5,0.2-0.9,0.2
			C80.5,273.3,80.2,273.3,80,273.2z M88.3,269.8l0.1,0.9c-0.3,0.1-0.6,0.1-0.8,0.1c-0.4,0-0.7-0.1-0.9-0.2c-0.2-0.1-0.4-0.3-0.4-0.5
			c-0.1-0.2-0.1-0.6-0.1-1.3v-3.6h-0.8v-0.8h0.8v-1.6l1.1-0.6v2.2h1.1v0.8h-1.1v3.7c0,0.3,0,0.5,0,0.6c0,0.1,0.1,0.2,0.2,0.2
			s0.2,0.1,0.4,0.1C88,269.8,88.1,269.8,88.3,269.8z M89.3,270.7v-8.7h1.1v3.1c0.5-0.6,1.1-0.9,1.9-0.9c0.5,0,0.9,0.1,1.2,0.3
			c0.3,0.2,0.6,0.4,0.7,0.8c0.2,0.3,0.2,0.8,0.2,1.4v4h-1.1v-4c0-0.5-0.1-0.9-0.3-1.2c-0.2-0.2-0.6-0.4-1-0.4
			c-0.3,0-0.6,0.1-0.9,0.2c-0.3,0.2-0.5,0.4-0.6,0.7c-0.1,0.3-0.2,0.7-0.2,1.2v3.4H89.3z M95.5,267.6c0-1.2,0.3-2,1-2.6
			c0.5-0.5,1.2-0.7,2-0.7c0.9,0,1.6,0.3,2.1,0.9c0.6,0.6,0.8,1.3,0.8,2.3c0,0.8-0.1,1.4-0.4,1.9c-0.2,0.5-0.6,0.8-1.1,1.1
			c-0.5,0.3-1,0.4-1.5,0.4c-0.9,0-1.6-0.3-2.1-0.8C95.8,269.5,95.5,268.7,95.5,267.6z M96.6,267.6c0,0.8,0.2,1.4,0.5,1.8
			c0.4,0.4,0.8,0.6,1.3,0.6c0.5,0,1-0.2,1.3-0.6c0.4-0.4,0.5-1,0.5-1.8c0-0.8-0.2-1.4-0.5-1.8c-0.4-0.4-0.8-0.6-1.3-0.6
			c-0.5,0-1,0.2-1.3,0.6C96.8,266.2,96.6,266.8,96.6,267.6z M102.5,270.7v-6.3h1v0.9c0.5-0.7,1.1-1,2-1c0.4,0,0.7,0.1,1,0.2
			c0.3,0.1,0.6,0.3,0.7,0.5c0.2,0.2,0.3,0.5,0.3,0.8c0,0.2,0.1,0.5,0.1,1v3.9h-1.1v-3.8c0-0.4,0-0.8-0.1-1c-0.1-0.2-0.2-0.4-0.4-0.5
			c-0.2-0.1-0.5-0.2-0.7-0.2c-0.5,0-0.8,0.1-1.2,0.4c-0.3,0.3-0.5,0.8-0.5,1.6v3.4H102.5z M109.8,273.3h-0.8
			c1.2-1.9,1.8-3.8,1.8-5.7c0-0.7-0.1-1.5-0.2-2.2c-0.1-0.6-0.3-1.2-0.6-1.7c-0.2-0.4-0.5-0.9-0.9-1.8h0.8c0.7,1,1.3,2,1.6,3
			c0.3,0.9,0.5,1.8,0.5,2.7c0,1.1-0.2,2.1-0.6,3.1C110.9,271.7,110.4,272.6,109.8,273.3z"/>
		<path fill="#E6B8AF" d="M280.2,239.1L280.2,239.1c0,3,9.7,5.4,21.7,5.4s21.7-2.4,21.7-5.4v44.3c0,3-9.7,5.4-21.7,5.4
			s-21.7-2.4-21.7-5.4V239.1z"/>
		<path fill="#F0D4CF" d="M280.2,239.1L280.2,239.1c0-3,9.7-5.4,21.7-5.4s21.7,2.4,21.7,5.4l0,0c0,3-9.7,5.4-21.7,5.4
			S280.2,242.1,280.2,239.1z"/>
		<path fill-opacity="0" d="M323.5,239.1L323.5,239.1c0,3-9.7,5.4-21.7,5.4s-21.7-2.4-21.7-5.4l0,0c0-3,9.7-5.4,21.7-5.4
			S323.5,236.1,323.5,239.1v44.3c0,3-9.7,5.4-21.7,5.4s-21.7-2.4-21.7-5.4v-44.3"/>
		<path fill="none" stroke="#000000" stroke-width="2" stroke-linejoin="round" stroke-miterlimit="10" d="M323.5,239.1L323.5,239.1
			c0,3-9.7,5.4-21.7,5.4s-21.7-2.4-21.7-5.4l0,0c0-3,9.7-5.4,21.7-5.4S323.5,236.1,323.5,239.1v44.3c0,3-9.7,5.4-21.7,5.4
			s-21.7-2.4-21.7-5.4v-44.3"/>
		<path d="M290.2,261.3v-8.7h3c0.7,0,1.2,0,1.5,0.1c0.5,0.1,0.9,0.3,1.3,0.6c0.5,0.4,0.8,0.9,1,1.5c0.2,0.6,0.3,1.3,0.3,2.1
			c0,0.7-0.1,1.2-0.2,1.8c-0.2,0.5-0.3,0.9-0.6,1.3c-0.2,0.3-0.5,0.6-0.8,0.8c-0.3,0.2-0.6,0.3-1,0.4c-0.4,0.1-0.9,0.1-1.4,0.1
			H290.2z M291.4,260.3h1.9c0.6,0,1-0.1,1.3-0.2c0.3-0.1,0.6-0.3,0.8-0.4c0.3-0.3,0.5-0.6,0.6-1.1c0.2-0.5,0.2-1,0.2-1.7
			c0-0.9-0.1-1.6-0.4-2.1c-0.3-0.5-0.7-0.8-1.1-1c-0.3-0.1-0.8-0.2-1.5-0.2h-1.8V260.3z M302.8,260.6c-0.4,0.3-0.8,0.6-1.1,0.7
			c-0.4,0.1-0.8,0.2-1.2,0.2c-0.7,0-1.2-0.2-1.6-0.5c-0.4-0.3-0.6-0.8-0.6-1.3c0-0.3,0.1-0.6,0.2-0.8c0.1-0.3,0.3-0.5,0.5-0.6
			c0.2-0.2,0.5-0.3,0.8-0.3c0.2-0.1,0.5-0.1,0.9-0.2c0.9-0.1,1.5-0.2,1.9-0.4c0-0.1,0-0.2,0-0.3c0-0.4-0.1-0.7-0.3-0.9
			c-0.3-0.2-0.7-0.4-1.2-0.4c-0.5,0-0.9,0.1-1.1,0.3c-0.2,0.2-0.4,0.5-0.5,0.9l-1-0.1c0.1-0.4,0.3-0.8,0.5-1.1
			c0.2-0.3,0.5-0.5,0.9-0.6c0.4-0.2,0.9-0.2,1.4-0.2c0.5,0,1,0.1,1.3,0.2c0.3,0.1,0.6,0.3,0.7,0.5s0.3,0.4,0.3,0.7
			c0,0.2,0.1,0.5,0.1,1v1.4c0,1,0,1.6,0.1,1.9c0,0.3,0.1,0.5,0.3,0.7H303C302.9,261.1,302.8,260.9,302.8,260.6z M302.7,258.2
			c-0.4,0.2-1,0.3-1.7,0.4c-0.4,0.1-0.7,0.1-0.9,0.2s-0.3,0.2-0.4,0.3s-0.1,0.3-0.1,0.5c0,0.3,0.1,0.5,0.3,0.7
			c0.2,0.2,0.5,0.3,0.9,0.3c0.4,0,0.8-0.1,1.1-0.3c0.3-0.2,0.6-0.4,0.7-0.7c0.1-0.2,0.2-0.6,0.2-1.1V258.2z M307.6,260.4l0.1,0.9
			c-0.3,0.1-0.6,0.1-0.8,0.1c-0.4,0-0.7-0.1-0.9-0.2c-0.2-0.1-0.4-0.3-0.4-0.5c-0.1-0.2-0.1-0.6-0.1-1.3v-3.6h-0.8v-0.8h0.8v-1.6
			l1.1-0.6v2.2h1.1v0.8h-1.1v3.7c0,0.3,0,0.5,0,0.6c0,0.1,0.1,0.2,0.2,0.2c0.1,0.1,0.2,0.1,0.4,0.1
			C307.3,260.4,307.4,260.4,307.6,260.4z M312.7,260.6c-0.4,0.3-0.8,0.6-1.1,0.7c-0.4,0.1-0.8,0.2-1.2,0.2c-0.7,0-1.2-0.2-1.6-0.5
			c-0.4-0.3-0.6-0.8-0.6-1.3c0-0.3,0.1-0.6,0.2-0.8s0.3-0.5,0.5-0.6c0.2-0.2,0.5-0.3,0.8-0.3c0.2-0.1,0.5-0.1,0.9-0.2
			c0.9-0.1,1.5-0.2,1.9-0.4c0-0.1,0-0.2,0-0.3c0-0.4-0.1-0.7-0.3-0.9c-0.3-0.2-0.7-0.4-1.2-0.4c-0.5,0-0.9,0.1-1.1,0.3
			c-0.2,0.2-0.4,0.5-0.5,0.9l-1-0.1c0.1-0.4,0.3-0.8,0.5-1.1c0.2-0.3,0.5-0.5,0.9-0.6c0.4-0.2,0.9-0.2,1.4-0.2c0.5,0,1,0.1,1.3,0.2
			c0.3,0.1,0.6,0.3,0.7,0.5c0.2,0.2,0.3,0.4,0.3,0.7c0,0.2,0.1,0.5,0.1,1v1.4c0,1,0,1.6,0.1,1.9c0,0.3,0.1,0.5,0.3,0.7h-1.1
			C312.8,261.1,312.7,260.9,312.7,260.6z M312.6,258.2c-0.4,0.2-1,0.3-1.7,0.4c-0.4,0.1-0.7,0.1-0.9,0.2s-0.3,0.2-0.4,0.3
			s-0.1,0.3-0.1,0.5c0,0.3,0.1,0.5,0.3,0.7c0.2,0.2,0.5,0.3,0.9,0.3s0.8-0.1,1.1-0.3c0.3-0.2,0.6-0.4,0.7-0.7
			c0.1-0.2,0.2-0.6,0.2-1.1V258.2z"/>
		<path d="M289,273.5l1.1-0.2c0.1,0.4,0.2,0.8,0.5,1c0.3,0.2,0.7,0.3,1.1,0.3c0.5,0,0.9-0.1,1.1-0.3c0.2-0.2,0.4-0.4,0.4-0.7
			c0-0.2-0.1-0.4-0.3-0.6c-0.1-0.1-0.5-0.2-1.1-0.4c-0.8-0.2-1.3-0.4-1.6-0.5c-0.3-0.1-0.5-0.3-0.7-0.6c-0.2-0.3-0.2-0.5-0.2-0.8
			c0-0.3,0.1-0.5,0.2-0.8c0.1-0.2,0.3-0.4,0.5-0.6c0.2-0.1,0.4-0.2,0.7-0.3c0.3-0.1,0.6-0.1,0.9-0.1c0.5,0,0.9,0.1,1.3,0.2
			c0.4,0.1,0.6,0.3,0.8,0.6c0.2,0.2,0.3,0.6,0.4,1l-1,0.1c0-0.3-0.2-0.6-0.4-0.7c-0.2-0.2-0.5-0.3-1-0.3c-0.5,0-0.8,0.1-1,0.2
			c-0.2,0.2-0.3,0.3-0.3,0.6c0,0.1,0,0.3,0.1,0.4c0.1,0.1,0.2,0.2,0.4,0.3c0.1,0,0.4,0.1,0.9,0.3c0.8,0.2,1.3,0.4,1.6,0.5
			s0.5,0.3,0.7,0.6c0.2,0.2,0.3,0.6,0.3,0.9c0,0.4-0.1,0.7-0.3,1c-0.2,0.3-0.5,0.6-0.9,0.7c-0.4,0.2-0.8,0.2-1.3,0.2
			c-0.8,0-1.4-0.2-1.9-0.5C289.4,274.7,289.1,274.2,289,273.5z M297.7,274.4l0.1,0.9c-0.3,0.1-0.6,0.1-0.8,0.1
			c-0.4,0-0.7-0.1-0.9-0.2c-0.2-0.1-0.4-0.3-0.4-0.5c-0.1-0.2-0.1-0.6-0.1-1.3v-3.6h-0.8v-0.8h0.8v-1.6l1.1-0.6v2.2h1.1v0.8h-1.1
			v3.7c0,0.3,0,0.5,0,0.6c0,0.1,0.1,0.2,0.2,0.2c0.1,0.1,0.2,0.1,0.4,0.1C297.3,274.5,297.5,274.4,297.7,274.4z M298.3,272.2
			c0-1.2,0.3-2,1-2.6c0.5-0.5,1.2-0.7,2-0.7c0.9,0,1.6,0.3,2.1,0.9c0.6,0.6,0.8,1.3,0.8,2.3c0,0.8-0.1,1.4-0.4,1.9
			c-0.2,0.5-0.6,0.8-1.1,1.1c-0.5,0.3-1,0.4-1.5,0.4c-0.9,0-1.6-0.3-2.1-0.8C298.5,274.1,298.3,273.3,298.3,272.2z M299.4,272.2
			c0,0.8,0.2,1.4,0.5,1.8c0.4,0.4,0.8,0.6,1.3,0.6s1-0.2,1.3-0.6c0.4-0.4,0.5-1,0.5-1.8c0-0.8-0.2-1.4-0.5-1.8
			c-0.4-0.4-0.8-0.6-1.3-0.6c-0.5,0-1,0.2-1.3,0.6C299.5,270.8,299.4,271.4,299.4,272.2z M305.3,275.4v-6.3h1v1
			c0.2-0.4,0.5-0.7,0.7-0.9c0.2-0.1,0.4-0.2,0.7-0.2c0.4,0,0.7,0.1,1.1,0.3l-0.4,1c-0.3-0.2-0.5-0.2-0.8-0.2c-0.2,0-0.4,0.1-0.6,0.2
			c-0.2,0.1-0.3,0.3-0.4,0.6c-0.1,0.4-0.2,0.8-0.2,1.2v3.3H305.3z M313.5,273.3l1.1,0.1c-0.2,0.6-0.5,1.1-1,1.5
			c-0.5,0.4-1.1,0.5-1.8,0.5c-0.9,0-1.6-0.3-2.2-0.8c-0.5-0.6-0.8-1.4-0.8-2.4c0-1.1,0.3-1.9,0.8-2.5c0.5-0.6,1.3-0.9,2.1-0.9
			c0.8,0,1.5,0.3,2.1,0.9c0.5,0.6,0.8,1.4,0.8,2.4c0,0.1,0,0.2,0,0.3H310c0,0.7,0.2,1.2,0.6,1.6c0.4,0.4,0.8,0.5,1.3,0.5
			c0.4,0,0.7-0.1,1-0.3C313.2,274.1,313.4,273.8,313.5,273.3z M310.1,271.6h3.5c0-0.5-0.2-0.9-0.4-1.2c-0.3-0.4-0.8-0.6-1.3-0.6
			c-0.5,0-0.9,0.2-1.2,0.5C310.3,270.6,310.1,271.1,310.1,271.6z"/>
		<path fill-opacity="0" d="M244.9,261.2h35.2"/>
		<path fill="none" stroke="#000000" stroke-width="2" stroke-linejoin="round" stroke-miterlimit="10" d="M252.6,261.2h19.9"/>
		<path stroke="#000000" stroke-width="2" stroke-miterlimit="10" d="M252.6,259.1l-5.8,2.1l5.8,2.1V259.1z"/>
		<path stroke="#000000" stroke-width="2" stroke-miterlimit="10" d="M272.5,263.3l5.8-2.1l-5.8-2.1V263.3z"/>
		<path fill="#CFE2F3" d="M48,334.3h257.4v75.9H48L48,334.3z"/>
		<path fill="none" stroke="#000000" stroke-width="2" stroke-linejoin="round" stroke-miterlimit="10" d="M48,334.3h257.4v75.9H48
			L48,334.3z"/>
		<path d="M131.2,348.5l1.1,0.3c-0.2,0.9-0.7,1.7-1.3,2.2c-0.6,0.5-1.4,0.7-2.3,0.7c-0.9,0-1.7-0.2-2.3-0.6c-0.6-0.4-1-0.9-1.3-1.7
			c-0.3-0.7-0.5-1.5-0.5-2.3c0-0.9,0.2-1.7,0.5-2.4c0.3-0.7,0.8-1.2,1.5-1.5c0.6-0.4,1.3-0.5,2.1-0.5c0.9,0,1.6,0.2,2.2,0.7
			c0.6,0.4,1,1.1,1.2,1.9l-1.1,0.3c-0.2-0.6-0.5-1.1-0.9-1.4c-0.4-0.3-0.9-0.4-1.4-0.4c-0.7,0-1.2,0.2-1.7,0.5
			c-0.4,0.3-0.8,0.8-0.9,1.3c-0.2,0.5-0.3,1.1-0.3,1.7c0,0.7,0.1,1.4,0.3,1.9c0.2,0.5,0.6,1,1,1.2c0.5,0.3,0.9,0.4,1.5,0.4
			c0.6,0,1.2-0.2,1.6-0.5C130.8,349.8,131.1,349.2,131.2,348.5z M133.5,351.5v-8.7h1.1v8.7H133.5z M136.2,344.1v-1.2h1.1v1.2H136.2z
			 M136.2,351.5v-6.3h1.1v6.3H136.2z M143.1,349.5l1.1,0.1c-0.2,0.6-0.5,1.1-1,1.5c-0.5,0.4-1.1,0.5-1.8,0.5c-0.9,0-1.6-0.3-2.2-0.8
			c-0.5-0.6-0.8-1.4-0.8-2.4c0-1.1,0.3-1.9,0.8-2.5c0.5-0.6,1.3-0.9,2.1-0.9c0.8,0,1.5,0.3,2.1,0.9c0.5,0.6,0.8,1.4,0.8,2.4
			c0,0.1,0,0.2,0,0.3h-4.7c0,0.7,0.2,1.2,0.6,1.6c0.4,0.4,0.8,0.5,1.3,0.5c0.4,0,0.7-0.1,1-0.3C142.7,350.3,142.9,349.9,143.1,349.5
			z M139.6,347.8h3.5c0-0.5-0.2-0.9-0.4-1.2c-0.3-0.4-0.8-0.6-1.3-0.6c-0.5,0-0.9,0.2-1.2,0.5C139.8,346.8,139.6,347.2,139.6,347.8z
			 M145.4,351.5v-6.3h1v0.9c0.5-0.7,1.1-1,2-1c0.4,0,0.7,0.1,1,0.2c0.3,0.1,0.6,0.3,0.7,0.5c0.2,0.2,0.3,0.5,0.3,0.8
			c0,0.2,0.1,0.5,0.1,1v3.9h-1.1v-3.8c0-0.4,0-0.8-0.1-1c-0.1-0.2-0.2-0.4-0.4-0.5c-0.2-0.1-0.5-0.2-0.7-0.2c-0.5,0-0.8,0.1-1.2,0.4
			c-0.3,0.3-0.5,0.8-0.5,1.6v3.4H145.4z M154.4,350.6l0.1,0.9c-0.3,0.1-0.6,0.1-0.8,0.1c-0.4,0-0.7-0.1-0.9-0.2
			c-0.2-0.1-0.4-0.3-0.4-0.5c-0.1-0.2-0.1-0.6-0.1-1.3v-3.6h-0.8v-0.8h0.8v-1.6l1.1-0.6v2.2h1.1v0.8h-1.1v3.7c0,0.3,0,0.5,0,0.6
			c0,0.1,0.1,0.2,0.2,0.2c0.1,0.1,0.2,0.1,0.4,0.1C154,350.6,154.2,350.6,154.4,350.6z M160.3,351.5l-2.3-8.7h1.2l1.3,5.7
			c0.1,0.6,0.3,1.2,0.4,1.8c0.2-0.9,0.3-1.5,0.4-1.6l1.7-5.8h1.4l1.2,4.4c0.3,1.1,0.5,2.1,0.7,3.1c0.1-0.5,0.3-1.2,0.4-1.9l1.4-5.6
			h1.2l-2.4,8.7h-1.1l-1.8-6.6c-0.2-0.6-0.2-0.9-0.3-1c-0.1,0.4-0.2,0.7-0.3,1l-1.8,6.6H160.3z M174.2,349.5l1.1,0.1
			c-0.2,0.6-0.5,1.1-1,1.5c-0.5,0.4-1.1,0.5-1.8,0.5c-0.9,0-1.6-0.3-2.2-0.8c-0.5-0.6-0.8-1.4-0.8-2.4c0-1.1,0.3-1.9,0.8-2.5
			c0.5-0.6,1.3-0.9,2.1-0.9c0.8,0,1.5,0.3,2.1,0.9c0.5,0.6,0.8,1.4,0.8,2.4c0,0.1,0,0.2,0,0.3h-4.7c0,0.7,0.2,1.2,0.6,1.6
			c0.4,0.4,0.8,0.5,1.3,0.5c0.4,0,0.7-0.1,1-0.3C173.8,350.3,174,349.9,174.2,349.5z M170.7,347.8h3.5c0-0.5-0.2-0.9-0.4-1.2
			c-0.3-0.4-0.8-0.6-1.3-0.6c-0.5,0-0.9,0.2-1.2,0.5C170.9,346.8,170.7,347.2,170.7,347.8z M177.5,351.5h-1v-8.7h1.1v3.1
			c0.5-0.6,1-0.8,1.7-0.8c0.4,0,0.8,0.1,1.1,0.2c0.3,0.2,0.6,0.4,0.8,0.7c0.2,0.3,0.4,0.6,0.5,1c0.1,0.4,0.2,0.8,0.2,1.3
			c0,1.1-0.3,1.9-0.8,2.5c-0.5,0.6-1.2,0.9-1.9,0.9s-1.3-0.3-1.7-0.9V351.5z M177.4,348.3c0,0.8,0.1,1.3,0.3,1.6
			c0.3,0.5,0.8,0.8,1.4,0.8c0.5,0,0.9-0.2,1.2-0.6c0.3-0.4,0.5-1,0.5-1.8c0-0.8-0.2-1.4-0.5-1.8c-0.3-0.4-0.7-0.6-1.2-0.6
			c-0.5,0-0.9,0.2-1.2,0.6C177.6,347,177.4,347.6,177.4,348.3z M186.5,351.5v-8.7h3.3c0.7,0,1.2,0.1,1.6,0.3
			c0.4,0.2,0.7,0.4,0.9,0.8c0.2,0.4,0.3,0.7,0.3,1.1c0,0.4-0.1,0.7-0.3,1.1c-0.2,0.3-0.5,0.6-0.9,0.8c0.5,0.2,0.9,0.4,1.2,0.8
			c0.3,0.4,0.4,0.8,0.4,1.3c0,0.4-0.1,0.8-0.3,1.1c-0.2,0.3-0.4,0.6-0.6,0.8c-0.3,0.2-0.6,0.3-1,0.4c-0.4,0.1-0.8,0.1-1.4,0.1H186.5
			z M187.6,346.5h1.9c0.5,0,0.9,0,1.1-0.1c0.3-0.1,0.5-0.2,0.7-0.4c0.2-0.2,0.2-0.5,0.2-0.8c0-0.3-0.1-0.5-0.2-0.8
			c-0.1-0.2-0.3-0.4-0.6-0.4c-0.3-0.1-0.7-0.1-1.3-0.1h-1.7V346.5z M187.6,350.5h2.2c0.4,0,0.6,0,0.8,0c0.3,0,0.5-0.1,0.7-0.2
			c0.2-0.1,0.3-0.3,0.4-0.5c0.1-0.2,0.2-0.5,0.2-0.7c0-0.3-0.1-0.6-0.2-0.8s-0.4-0.4-0.7-0.5c-0.3-0.1-0.7-0.1-1.3-0.1h-2V350.5z
			 M194.3,351.5v-6.3h1v1c0.2-0.4,0.5-0.7,0.7-0.9c0.2-0.1,0.4-0.2,0.7-0.2c0.4,0,0.7,0.1,1.1,0.3l-0.4,1c-0.3-0.2-0.5-0.2-0.8-0.2
			c-0.2,0-0.4,0.1-0.6,0.2c-0.2,0.1-0.3,0.3-0.4,0.6c-0.1,0.4-0.2,0.8-0.2,1.2v3.3H194.3z M197.9,348.4c0-1.2,0.3-2,1-2.6
			c0.5-0.5,1.2-0.7,2-0.7c0.9,0,1.6,0.3,2.1,0.9c0.6,0.6,0.8,1.3,0.8,2.3c0,0.8-0.1,1.4-0.4,1.9c-0.2,0.5-0.6,0.8-1.1,1.1
			c-0.5,0.3-1,0.4-1.5,0.4c-0.9,0-1.6-0.3-2.1-0.8C198.2,350.2,197.9,349.4,197.9,348.4z M199,348.4c0,0.8,0.2,1.4,0.5,1.8
			s0.8,0.6,1.3,0.6c0.5,0,1-0.2,1.3-0.6c0.4-0.4,0.5-1,0.5-1.8c0-0.8-0.2-1.4-0.5-1.8s-0.8-0.6-1.3-0.6c-0.5,0-1,0.2-1.3,0.6
			S199,347.6,199,348.4z M206.1,351.5l-1.9-6.3h1.1l1,3.6l0.4,1.4c0-0.1,0.1-0.5,0.3-1.3l1-3.7h1.1l0.9,3.6l0.3,1.2l0.4-1.2l1.1-3.6
			h1l-2,6.3h-1.1l-1-3.8l-0.2-1.1l-1.3,4.8H206.1z M213.1,349.6l1.1-0.2c0.1,0.4,0.2,0.8,0.5,1c0.3,0.2,0.7,0.3,1.1,0.3
			c0.5,0,0.9-0.1,1.1-0.3c0.2-0.2,0.4-0.4,0.4-0.7c0-0.2-0.1-0.4-0.3-0.6c-0.1-0.1-0.5-0.2-1.1-0.4c-0.8-0.2-1.3-0.4-1.6-0.5
			c-0.3-0.1-0.5-0.3-0.7-0.6c-0.2-0.3-0.2-0.5-0.2-0.8c0-0.3,0.1-0.5,0.2-0.8c0.1-0.2,0.3-0.4,0.5-0.6c0.2-0.1,0.4-0.2,0.7-0.3
			c0.3-0.1,0.6-0.1,0.9-0.1c0.5,0,0.9,0.1,1.3,0.2c0.4,0.1,0.6,0.3,0.8,0.6c0.2,0.2,0.3,0.6,0.4,1l-1,0.1c0-0.3-0.2-0.6-0.4-0.7
			c-0.2-0.2-0.5-0.3-1-0.3c-0.5,0-0.8,0.1-1,0.2c-0.2,0.2-0.3,0.3-0.3,0.6c0,0.1,0,0.3,0.1,0.4c0.1,0.1,0.2,0.2,0.4,0.3
			c0.1,0,0.4,0.1,0.9,0.3c0.8,0.2,1.3,0.4,1.6,0.5c0.3,0.1,0.5,0.3,0.7,0.6c0.2,0.2,0.3,0.6,0.3,0.9c0,0.4-0.1,0.7-0.3,1
			c-0.2,0.3-0.5,0.6-0.9,0.7c-0.4,0.2-0.8,0.2-1.3,0.2c-0.8,0-1.4-0.2-1.9-0.5C213.4,350.8,213.2,350.3,213.1,349.6z M223.7,349.5
			l1.1,0.1c-0.2,0.6-0.5,1.1-1,1.5c-0.5,0.4-1.1,0.5-1.8,0.5c-0.9,0-1.6-0.3-2.2-0.8c-0.5-0.6-0.8-1.4-0.8-2.4
			c0-1.1,0.3-1.9,0.8-2.5c0.5-0.6,1.3-0.9,2.1-0.9c0.8,0,1.5,0.3,2.1,0.9c0.5,0.6,0.8,1.4,0.8,2.4c0,0.1,0,0.2,0,0.3h-4.7
			c0,0.7,0.2,1.2,0.6,1.6c0.4,0.4,0.8,0.5,1.3,0.5c0.4,0,0.7-0.1,1-0.3C223.3,350.3,223.6,349.9,223.7,349.5z M220.2,347.8h3.5
			c0-0.5-0.2-0.9-0.4-1.2c-0.3-0.4-0.8-0.6-1.3-0.6c-0.5,0-0.9,0.2-1.2,0.5C220.5,346.8,220.3,347.2,220.2,347.8z M226,351.5v-6.3h1
			v1c0.2-0.4,0.5-0.7,0.7-0.9c0.2-0.1,0.4-0.2,0.7-0.2c0.4,0,0.7,0.1,1.1,0.3l-0.4,1c-0.3-0.2-0.5-0.2-0.8-0.2
			c-0.2,0-0.4,0.1-0.6,0.2c-0.2,0.1-0.3,0.3-0.4,0.6c-0.1,0.4-0.2,0.8-0.2,1.2v3.3H226z"/>
		<path fill="#FFF2CC" d="M59.1,358.9h86.8v43.4H59.1L59.1,358.9z"/>
		<path fill="none" stroke="#000000" stroke-width="2" stroke-linejoin="round" stroke-miterlimit="10" d="M59.1,358.9h86.8v43.4
			H59.1L59.1,358.9z"/>
		<path d="M77.4,376v-3.7l-3.3-5h1.4l1.7,2.6c0.3,0.5,0.6,1,0.9,1.5c0.3-0.5,0.6-1,0.9-1.5l1.7-2.5H82l-3.5,5v3.7H77.4z M82.4,372.9
			c0-1.2,0.3-2,1-2.6c0.5-0.5,1.2-0.7,2-0.7c0.9,0,1.6,0.3,2.1,0.9c0.6,0.6,0.8,1.3,0.8,2.3c0,0.8-0.1,1.4-0.4,1.9
			c-0.2,0.5-0.6,0.8-1.1,1.1c-0.5,0.3-1,0.4-1.5,0.4c-0.9,0-1.6-0.3-2.1-0.8C82.6,374.7,82.4,373.9,82.4,372.9z M83.4,372.9
			c0,0.8,0.2,1.4,0.5,1.8c0.4,0.4,0.8,0.6,1.3,0.6c0.5,0,1-0.2,1.3-0.6c0.4-0.4,0.5-1,0.5-1.8c0-0.8-0.2-1.4-0.5-1.8
			c-0.4-0.4-0.8-0.6-1.3-0.6c-0.5,0-1,0.2-1.3,0.6C83.6,371.5,83.4,372.1,83.4,372.9z M93.5,376v-0.9c-0.5,0.7-1.1,1.1-2,1.1
			c-0.4,0-0.7-0.1-1-0.2c-0.3-0.1-0.6-0.3-0.7-0.5c-0.2-0.2-0.3-0.5-0.3-0.8c0-0.2-0.1-0.5-0.1-1v-3.9h1.1v3.5c0,0.6,0,0.9,0.1,1.1
			c0.1,0.3,0.2,0.5,0.4,0.7c0.2,0.2,0.5,0.2,0.8,0.2s0.6-0.1,0.9-0.2c0.3-0.2,0.5-0.4,0.6-0.7c0.1-0.3,0.2-0.7,0.2-1.2v-3.4h1.1v6.3
			H93.5z M96,376v-6.3h1v1c0.2-0.4,0.5-0.7,0.7-0.9c0.2-0.1,0.4-0.2,0.7-0.2c0.4,0,0.7,0.1,1.1,0.3l-0.4,1c-0.3-0.2-0.5-0.2-0.8-0.2
			c-0.2,0-0.4,0.1-0.6,0.2c-0.2,0.1-0.3,0.3-0.4,0.6c-0.1,0.4-0.2,0.8-0.2,1.2v3.3H96z M109.6,373l1.1,0.3c-0.2,0.9-0.7,1.7-1.3,2.2
			c-0.6,0.5-1.4,0.7-2.3,0.7c-0.9,0-1.7-0.2-2.3-0.6c-0.6-0.4-1-0.9-1.3-1.7c-0.3-0.7-0.5-1.5-0.5-2.3c0-0.9,0.2-1.7,0.5-2.4
			c0.3-0.7,0.8-1.2,1.5-1.5c0.6-0.4,1.3-0.5,2.1-0.5c0.9,0,1.6,0.2,2.2,0.7c0.6,0.4,1,1.1,1.2,1.9l-1.1,0.3
			c-0.2-0.6-0.5-1.1-0.9-1.4c-0.4-0.3-0.9-0.4-1.4-0.4c-0.7,0-1.2,0.2-1.7,0.5c-0.4,0.3-0.8,0.8-0.9,1.3c-0.2,0.5-0.3,1.1-0.3,1.7
			c0,0.7,0.1,1.4,0.3,1.9c0.2,0.5,0.6,1,1,1.2c0.5,0.3,0.9,0.4,1.5,0.4c0.6,0,1.2-0.2,1.6-0.5C109.1,374.3,109.4,373.7,109.6,373z
			 M111.4,372.9c0-1.2,0.3-2,1-2.6c0.5-0.5,1.2-0.7,2-0.7c0.9,0,1.6,0.3,2.1,0.9c0.6,0.6,0.8,1.3,0.8,2.3c0,0.8-0.1,1.4-0.4,1.9
			c-0.2,0.5-0.6,0.8-1.1,1.1c-0.5,0.3-1,0.4-1.5,0.4c-0.9,0-1.6-0.3-2.1-0.8C111.7,374.7,111.4,373.9,111.4,372.9z M112.5,372.9
			c0,0.8,0.2,1.4,0.5,1.8s0.8,0.6,1.3,0.6c0.5,0,1-0.2,1.3-0.6c0.4-0.4,0.5-1,0.5-1.8c0-0.8-0.2-1.4-0.5-1.8s-0.8-0.6-1.3-0.6
			c-0.5,0-1,0.2-1.3,0.6S112.5,372.1,112.5,372.9z M122.5,376v-0.8c-0.4,0.6-1,0.9-1.8,0.9c-0.5,0-1-0.1-1.4-0.4
			c-0.4-0.3-0.7-0.7-1-1.2c-0.2-0.5-0.3-1.1-0.3-1.7c0-0.6,0.1-1.2,0.3-1.7c0.2-0.5,0.5-0.9,0.9-1.2c0.4-0.3,0.9-0.4,1.4-0.4
			c0.4,0,0.7,0.1,1,0.2c0.3,0.2,0.5,0.4,0.7,0.6v-3.1h1.1v8.7H122.5z M119.2,372.9c0,0.8,0.2,1.4,0.5,1.8c0.3,0.4,0.7,0.6,1.2,0.6
			c0.5,0,0.9-0.2,1.2-0.6c0.3-0.4,0.5-1,0.5-1.7c0-0.9-0.2-1.5-0.5-1.9c-0.3-0.4-0.7-0.6-1.2-0.6c-0.5,0-0.9,0.2-1.2,0.6
			C119.3,371.4,119.2,372,119.2,372.9z M129.4,374l1.1,0.1c-0.2,0.6-0.5,1.1-1,1.5c-0.5,0.4-1.1,0.5-1.8,0.5c-0.9,0-1.6-0.3-2.2-0.8
			c-0.5-0.6-0.8-1.4-0.8-2.4c0-1.1,0.3-1.9,0.8-2.5c0.5-0.6,1.3-0.9,2.1-0.9c0.8,0,1.5,0.3,2.1,0.9c0.5,0.6,0.8,1.4,0.8,2.4
			c0,0.1,0,0.2,0,0.3h-4.7c0,0.7,0.2,1.2,0.6,1.6c0.4,0.4,0.8,0.5,1.3,0.5c0.4,0,0.7-0.1,1-0.3C129,374.8,129.2,374.4,129.4,374z
			 M125.9,372.3h3.5c0-0.5-0.2-0.9-0.4-1.2c-0.3-0.4-0.8-0.6-1.3-0.6c-0.5,0-0.9,0.2-1.2,0.5C126.1,371.3,125.9,371.7,125.9,372.3z"
			/>
		<path d="M73.6,392.6c-0.6-0.7-1.1-1.6-1.5-2.6c-0.4-1-0.6-2-0.6-3.1c0-0.9,0.1-1.8,0.4-2.7c0.4-1,0.9-2,1.6-3h0.8
			c-0.5,0.8-0.8,1.4-0.9,1.8c-0.2,0.5-0.4,1.1-0.6,1.7c-0.2,0.7-0.3,1.5-0.3,2.2c0,1.9,0.6,3.8,1.8,5.7H73.6z M75,387.6l1-0.1
			c0,0.7,0.1,1.1,0.4,1.4c0.2,0.2,0.5,0.4,0.9,0.4c0.3,0,0.5-0.1,0.7-0.2c0.2-0.1,0.4-0.3,0.4-0.5c0.1-0.2,0.1-0.6,0.1-1.1v-6h1.2
			v5.9c0,0.7-0.1,1.3-0.3,1.7c-0.2,0.4-0.5,0.7-0.8,0.9c-0.4,0.2-0.8,0.3-1.3,0.3c-0.8,0-1.3-0.2-1.8-0.7
			C75.2,389.1,75,388.4,75,387.6z M85.5,389.3c-0.4,0.3-0.8,0.6-1.1,0.7c-0.4,0.1-0.8,0.2-1.2,0.2c-0.7,0-1.2-0.2-1.6-0.5
			c-0.4-0.3-0.6-0.8-0.6-1.3c0-0.3,0.1-0.6,0.2-0.8c0.1-0.3,0.3-0.5,0.5-0.6c0.2-0.2,0.5-0.3,0.8-0.3c0.2-0.1,0.5-0.1,0.9-0.2
			c0.9-0.1,1.5-0.2,1.9-0.4c0-0.1,0-0.2,0-0.3c0-0.4-0.1-0.7-0.3-0.9c-0.3-0.2-0.7-0.4-1.2-0.4c-0.5,0-0.9,0.1-1.1,0.3
			c-0.2,0.2-0.4,0.5-0.5,0.9l-1-0.1c0.1-0.4,0.3-0.8,0.5-1.1c0.2-0.3,0.5-0.5,0.9-0.6c0.4-0.2,0.9-0.2,1.4-0.2c0.5,0,1,0.1,1.3,0.2
			c0.3,0.1,0.6,0.3,0.7,0.5c0.2,0.2,0.3,0.4,0.3,0.7c0,0.2,0.1,0.5,0.1,1v1.4c0,1,0,1.6,0.1,1.9c0,0.3,0.1,0.5,0.3,0.7h-1.1
			C85.6,389.8,85.6,389.6,85.5,389.3z M85.4,386.9c-0.4,0.2-1,0.3-1.7,0.4c-0.4,0.1-0.7,0.1-0.9,0.2c-0.2,0.1-0.3,0.2-0.4,0.3
			c-0.1,0.2-0.1,0.3-0.1,0.5c0,0.3,0.1,0.5,0.3,0.7c0.2,0.2,0.5,0.3,0.9,0.3s0.8-0.1,1.1-0.3c0.3-0.2,0.6-0.4,0.7-0.7
			c0.1-0.2,0.2-0.6,0.2-1.1V386.9z M89.8,390l-2.4-6.3h1.1l1.4,3.8c0.1,0.4,0.3,0.8,0.4,1.3c0.1-0.3,0.2-0.7,0.4-1.2l1.4-3.8h1.1
			l-2.4,6.3H89.8z M98.1,389.3c-0.4,0.3-0.8,0.6-1.1,0.7c-0.4,0.1-0.8,0.2-1.2,0.2c-0.7,0-1.2-0.2-1.6-0.5c-0.4-0.3-0.6-0.8-0.6-1.3
			c0-0.3,0.1-0.6,0.2-0.8c0.1-0.3,0.3-0.5,0.5-0.6c0.2-0.2,0.5-0.3,0.8-0.3c0.2-0.1,0.5-0.1,0.9-0.2c0.9-0.1,1.5-0.2,1.9-0.4
			c0-0.1,0-0.2,0-0.3c0-0.4-0.1-0.7-0.3-0.9c-0.3-0.2-0.7-0.4-1.2-0.4c-0.5,0-0.9,0.1-1.1,0.3c-0.2,0.2-0.4,0.5-0.5,0.9l-1-0.1
			c0.1-0.4,0.3-0.8,0.5-1.1c0.2-0.3,0.5-0.5,0.9-0.6c0.4-0.2,0.9-0.2,1.4-0.2c0.5,0,1,0.1,1.3,0.2c0.3,0.1,0.6,0.3,0.7,0.5
			c0.2,0.2,0.3,0.4,0.3,0.7c0,0.2,0.1,0.5,0.1,1v1.4c0,1,0,1.6,0.1,1.9c0,0.3,0.1,0.5,0.3,0.7h-1.1
			C98.2,389.8,98.1,389.6,98.1,389.3z M98,386.9c-0.4,0.2-1,0.3-1.7,0.4c-0.4,0.1-0.7,0.1-0.9,0.2c-0.2,0.1-0.3,0.2-0.4,0.3
			c-0.1,0.2-0.1,0.3-0.1,0.5c0,0.3,0.1,0.5,0.3,0.7c0.2,0.2,0.5,0.3,0.9,0.3s0.8-0.1,1.1-0.3c0.3-0.2,0.6-0.4,0.7-0.7
			c0.1-0.2,0.2-0.6,0.2-1.1V386.9z M100.4,387.3l1.1-0.1c0.1,0.4,0.2,0.8,0.4,1.1c0.2,0.3,0.5,0.5,0.9,0.7c0.4,0.2,0.8,0.3,1.3,0.3
			c0.4,0,0.8-0.1,1.2-0.2c0.3-0.1,0.6-0.3,0.8-0.5c0.2-0.2,0.2-0.5,0.2-0.7c0-0.3-0.1-0.5-0.2-0.7c-0.2-0.2-0.4-0.4-0.8-0.5
			c-0.2-0.1-0.7-0.2-1.5-0.4c-0.8-0.2-1.4-0.4-1.7-0.5c-0.4-0.2-0.7-0.5-0.9-0.8c-0.2-0.3-0.3-0.7-0.3-1.1c0-0.4,0.1-0.8,0.4-1.2
			c0.3-0.4,0.6-0.7,1.1-0.9c0.5-0.2,1-0.3,1.6-0.3c0.6,0,1.2,0.1,1.7,0.3c0.5,0.2,0.9,0.5,1.1,0.9c0.3,0.4,0.4,0.9,0.4,1.4l-1.1,0.1
			c-0.1-0.5-0.3-1-0.6-1.2c-0.3-0.3-0.8-0.4-1.5-0.4c-0.7,0-1.2,0.1-1.5,0.4c-0.3,0.3-0.5,0.6-0.5,0.9c0,0.3,0.1,0.6,0.3,0.8
			c0.2,0.2,0.8,0.4,1.7,0.6c0.9,0.2,1.6,0.4,1.9,0.6c0.5,0.2,0.9,0.5,1.1,0.9c0.2,0.4,0.4,0.8,0.4,1.2c0,0.5-0.1,0.9-0.4,1.3
			c-0.3,0.4-0.6,0.7-1.1,0.9c-0.5,0.2-1,0.3-1.7,0.3c-0.8,0-1.4-0.1-2-0.3c-0.5-0.2-0.9-0.6-1.3-1
			C100.5,388.4,100.4,387.8,100.4,387.3z M112.6,387.7l1,0.1c-0.1,0.7-0.4,1.3-0.9,1.7c-0.5,0.4-1.1,0.6-1.7,0.6
			c-0.9,0-1.5-0.3-2.1-0.8c-0.5-0.6-0.8-1.4-0.8-2.4c0-0.7,0.1-1.3,0.3-1.8c0.2-0.5,0.6-0.9,1-1.1c0.5-0.3,1-0.4,1.5-0.4
			c0.7,0,1.2,0.2,1.7,0.5c0.4,0.3,0.7,0.8,0.8,1.5l-1,0.2c-0.1-0.4-0.3-0.7-0.5-1c-0.3-0.2-0.6-0.3-0.9-0.3c-0.5,0-1,0.2-1.3,0.6
			c-0.3,0.4-0.5,1-0.5,1.8c0,0.8,0.2,1.5,0.5,1.8c0.3,0.4,0.7,0.6,1.3,0.6c0.4,0,0.8-0.1,1-0.4C112.4,388.7,112.6,388.3,112.6,387.7
			z M114.5,390v-6.3h1v1c0.2-0.4,0.5-0.7,0.7-0.9c0.2-0.1,0.4-0.2,0.7-0.2c0.4,0,0.7,0.1,1.1,0.3l-0.4,1c-0.3-0.2-0.5-0.2-0.8-0.2
			c-0.2,0-0.4,0.1-0.6,0.2c-0.2,0.1-0.3,0.3-0.4,0.6c-0.1,0.4-0.2,0.8-0.2,1.2v3.3H114.5z M118.5,382.6v-1.2h1.1v1.2H118.5z
			 M118.5,390v-6.3h1.1v6.3H118.5z M121.1,392.5v-8.7h1v0.8c0.2-0.3,0.5-0.6,0.8-0.7c0.3-0.2,0.6-0.2,1-0.2c0.5,0,1,0.1,1.4,0.4
			c0.4,0.3,0.7,0.7,0.9,1.2c0.2,0.5,0.3,1.1,0.3,1.7c0,0.6-0.1,1.2-0.3,1.7c-0.2,0.5-0.6,0.9-1,1.2c-0.4,0.3-0.9,0.4-1.4,0.4
			c-0.4,0-0.7-0.1-1-0.2c-0.3-0.2-0.5-0.3-0.7-0.6v3.1H121.1z M122.1,386.9c0,0.8,0.2,1.4,0.5,1.8c0.3,0.4,0.7,0.6,1.2,0.6
			c0.5,0,0.9-0.2,1.2-0.6c0.3-0.4,0.5-1,0.5-1.9c0-0.8-0.2-1.4-0.5-1.8c-0.3-0.4-0.7-0.6-1.2-0.6c-0.5,0-0.9,0.2-1.2,0.6
			C122.2,385.5,122.1,386.1,122.1,386.9z M130,389.1l0.1,0.9c-0.3,0.1-0.6,0.1-0.8,0.1c-0.4,0-0.7-0.1-0.9-0.2
			c-0.2-0.1-0.4-0.3-0.4-0.5c-0.1-0.2-0.1-0.6-0.1-1.3v-3.6h-0.8v-0.8h0.8v-1.6l1.1-0.6v2.2h1.1v0.8H129v3.7c0,0.3,0,0.5,0,0.6
			c0,0.1,0.1,0.2,0.2,0.2c0.1,0.1,0.2,0.1,0.4,0.1C129.7,389.1,129.8,389.1,130,389.1z M131.7,392.6H131c1.2-1.9,1.8-3.8,1.8-5.7
			c0-0.7-0.1-1.5-0.2-2.2c-0.1-0.6-0.3-1.2-0.6-1.7c-0.2-0.4-0.5-0.9-0.9-1.8h0.8c0.7,1,1.3,2,1.6,3c0.3,0.9,0.5,1.8,0.5,2.7
			c0,1.1-0.2,2.1-0.6,3.1C132.8,391,132.3,391.8,131.7,392.6z"/>
		<path fill="#FFF2CC" d="M209.4,358.9h86.8v43.4h-86.8V358.9z"/>
		<path fill="none" stroke="#000000" stroke-width="2" stroke-linejoin="round" stroke-miterlimit="10" d="M209.4,358.9h86.8v43.4
			h-86.8V358.9z"/>
		<path d="M226.8,373l1.1,0.3c-0.2,0.9-0.7,1.7-1.3,2.2c-0.6,0.5-1.4,0.7-2.3,0.7c-0.9,0-1.7-0.2-2.3-0.6c-0.6-0.4-1-0.9-1.3-1.7
			c-0.3-0.7-0.5-1.5-0.5-2.3c0-0.9,0.2-1.7,0.5-2.4c0.3-0.7,0.8-1.2,1.5-1.5c0.6-0.4,1.3-0.5,2.1-0.5c0.9,0,1.6,0.2,2.2,0.7
			c0.6,0.4,1,1.1,1.2,1.9l-1.1,0.3c-0.2-0.6-0.5-1.1-0.9-1.4c-0.4-0.3-0.9-0.4-1.4-0.4c-0.7,0-1.2,0.2-1.7,0.5
			c-0.4,0.3-0.8,0.8-0.9,1.3c-0.2,0.5-0.3,1.1-0.3,1.7c0,0.7,0.1,1.4,0.3,1.9c0.2,0.5,0.6,1,1,1.2c0.5,0.3,0.9,0.4,1.5,0.4
			c0.6,0,1.2-0.2,1.6-0.5C226.4,374.3,226.7,373.7,226.8,373z M228.7,372.9c0-1.2,0.3-2,1-2.6c0.5-0.5,1.2-0.7,2-0.7
			c0.9,0,1.6,0.3,2.1,0.9c0.6,0.6,0.8,1.3,0.8,2.3c0,0.8-0.1,1.4-0.4,1.9c-0.2,0.5-0.6,0.8-1.1,1.1c-0.5,0.3-1,0.4-1.5,0.4
			c-0.9,0-1.6-0.3-2.1-0.8C229,374.7,228.7,373.9,228.7,372.9z M229.8,372.9c0,0.8,0.2,1.4,0.5,1.8c0.4,0.4,0.8,0.6,1.3,0.6
			c0.5,0,1-0.2,1.3-0.6c0.4-0.4,0.5-1,0.5-1.8c0-0.8-0.2-1.4-0.5-1.8c-0.4-0.4-0.8-0.6-1.3-0.6c-0.5,0-1,0.2-1.3,0.6
			C230,371.5,229.8,372.1,229.8,372.9z M235.3,374.1l1.1-0.2c0.1,0.4,0.2,0.8,0.5,1c0.3,0.2,0.7,0.3,1.1,0.3c0.5,0,0.9-0.1,1.1-0.3
			c0.2-0.2,0.4-0.4,0.4-0.7c0-0.2-0.1-0.4-0.3-0.6c-0.1-0.1-0.5-0.2-1.1-0.4c-0.8-0.2-1.3-0.4-1.6-0.5c-0.3-0.1-0.5-0.3-0.7-0.6
			c-0.2-0.3-0.2-0.5-0.2-0.8c0-0.3,0.1-0.5,0.2-0.8c0.1-0.2,0.3-0.4,0.5-0.6c0.2-0.1,0.4-0.2,0.7-0.3c0.3-0.1,0.6-0.1,0.9-0.1
			c0.5,0,0.9,0.1,1.3,0.2c0.4,0.1,0.6,0.3,0.8,0.6c0.2,0.2,0.3,0.6,0.4,1l-1,0.1c0-0.3-0.2-0.6-0.4-0.7c-0.2-0.2-0.5-0.3-1-0.3
			c-0.5,0-0.8,0.1-1,0.2c-0.2,0.2-0.3,0.3-0.3,0.6c0,0.1,0,0.3,0.1,0.4c0.1,0.1,0.2,0.2,0.4,0.3c0.1,0,0.4,0.1,0.9,0.3
			c0.8,0.2,1.3,0.4,1.6,0.5c0.3,0.1,0.5,0.3,0.7,0.6c0.2,0.2,0.3,0.6,0.3,0.9c0,0.4-0.1,0.7-0.3,1c-0.2,0.3-0.5,0.6-0.9,0.7
			c-0.4,0.2-0.8,0.2-1.3,0.2c-0.8,0-1.4-0.2-1.9-0.5C235.7,375.3,235.4,374.8,235.3,374.1z M241.6,376v-6.3h1v0.9
			c0.2-0.3,0.5-0.6,0.8-0.7c0.3-0.2,0.7-0.3,1.1-0.3c0.5,0,0.8,0.1,1.1,0.3c0.3,0.2,0.5,0.5,0.6,0.8c0.5-0.7,1.1-1.1,1.9-1.1
			c0.6,0,1.1,0.2,1.4,0.5c0.3,0.3,0.5,0.9,0.5,1.6v4.3h-1.1v-4c0-0.4,0-0.7-0.1-0.9c-0.1-0.2-0.2-0.3-0.4-0.5
			c-0.2-0.1-0.4-0.2-0.6-0.2c-0.4,0-0.8,0.1-1.1,0.4c-0.3,0.3-0.4,0.8-0.4,1.4v3.6h-1.1v-4.1c0-0.5-0.1-0.8-0.3-1.1
			c-0.2-0.2-0.5-0.4-0.9-0.4c-0.3,0-0.6,0.1-0.8,0.2c-0.3,0.2-0.4,0.4-0.5,0.7c-0.1,0.3-0.2,0.7-0.2,1.3v3.3H241.6z M251.2,372.9
			c0-1.2,0.3-2,1-2.6c0.5-0.5,1.2-0.7,2-0.7c0.9,0,1.6,0.3,2.1,0.9c0.6,0.6,0.8,1.3,0.8,2.3c0,0.8-0.1,1.4-0.4,1.9
			c-0.2,0.5-0.6,0.8-1.1,1.1c-0.5,0.3-1,0.4-1.5,0.4c-0.9,0-1.6-0.3-2.1-0.8C251.4,374.7,251.2,373.9,251.2,372.9z M252.3,372.9
			c0,0.8,0.2,1.4,0.5,1.8c0.4,0.4,0.8,0.6,1.3,0.6c0.5,0,1-0.2,1.3-0.6c0.4-0.4,0.5-1,0.5-1.8c0-0.8-0.2-1.4-0.5-1.8
			c-0.4-0.4-0.8-0.6-1.3-0.6c-0.5,0-1,0.2-1.3,0.6C252.4,371.5,252.3,372.1,252.3,372.9z M258.2,378.4v-8.7h1v0.8
			c0.2-0.3,0.5-0.6,0.8-0.7c0.3-0.2,0.6-0.2,1-0.2c0.5,0,1,0.1,1.4,0.4c0.4,0.3,0.7,0.7,0.9,1.2c0.2,0.5,0.3,1.1,0.3,1.7
			c0,0.6-0.1,1.2-0.3,1.7c-0.2,0.5-0.6,0.9-1,1.2c-0.4,0.3-0.9,0.4-1.4,0.4c-0.4,0-0.7-0.1-1-0.2c-0.3-0.2-0.5-0.3-0.7-0.6v3.1
			H258.2z M259.1,372.9c0,0.8,0.2,1.4,0.5,1.8c0.3,0.4,0.7,0.6,1.2,0.6c0.5,0,0.9-0.2,1.2-0.6c0.3-0.4,0.5-1,0.5-1.9
			c0-0.8-0.2-1.4-0.5-1.8c-0.3-0.4-0.7-0.6-1.2-0.6c-0.5,0-0.9,0.2-1.2,0.6C259.3,371.5,259.1,372.1,259.1,372.9z M264.4,372.9
			c0-1.2,0.3-2,1-2.6c0.5-0.5,1.2-0.7,2-0.7c0.9,0,1.6,0.3,2.1,0.9c0.6,0.6,0.8,1.3,0.8,2.3c0,0.8-0.1,1.4-0.4,1.9
			c-0.2,0.5-0.6,0.8-1.1,1.1c-0.5,0.3-1,0.4-1.5,0.4c-0.9,0-1.6-0.3-2.1-0.8C264.7,374.7,264.4,373.9,264.4,372.9z M265.5,372.9
			c0,0.8,0.2,1.4,0.5,1.8c0.4,0.4,0.8,0.6,1.3,0.6s1-0.2,1.3-0.6c0.4-0.4,0.5-1,0.5-1.8c0-0.8-0.2-1.4-0.5-1.8
			c-0.4-0.4-0.8-0.6-1.3-0.6c-0.5,0-1,0.2-1.3,0.6C265.7,371.5,265.5,372.1,265.5,372.9z M271.4,376v-8.7h1.1v8.7H271.4z
			 M274.1,368.6v-1.2h1.1v1.2H274.1z M274.1,376v-6.3h1.1v6.3H274.1z M279,375.1l0.1,0.9c-0.3,0.1-0.6,0.1-0.8,0.1
			c-0.4,0-0.7-0.1-0.9-0.2c-0.2-0.1-0.4-0.3-0.4-0.5c-0.1-0.2-0.1-0.6-0.1-1.3v-3.6h-0.8v-0.8h0.8v-1.6l1.1-0.6v2.2h1.1v0.8h-1.1
			v3.7c0,0.3,0,0.5,0,0.6c0,0.1,0.1,0.2,0.2,0.2c0.1,0.1,0.2,0.1,0.4,0.1C278.7,375.1,278.8,375.1,279,375.1z M284.3,374l1.1,0.1
			c-0.2,0.6-0.5,1.1-1,1.5c-0.5,0.4-1.1,0.5-1.8,0.5c-0.9,0-1.6-0.3-2.2-0.8c-0.5-0.6-0.8-1.4-0.8-2.4c0-1.1,0.3-1.9,0.8-2.5
			c0.5-0.6,1.3-0.9,2.1-0.9c0.8,0,1.5,0.3,2.1,0.9c0.5,0.6,0.8,1.4,0.8,2.4c0,0.1,0,0.2,0,0.3h-4.7c0,0.7,0.2,1.2,0.6,1.6
			c0.4,0.4,0.8,0.5,1.3,0.5c0.4,0,0.7-0.1,1-0.3C283.9,374.8,284.1,374.4,284.3,374z M280.8,372.3h3.5c0-0.5-0.2-0.9-0.4-1.2
			c-0.3-0.4-0.8-0.6-1.3-0.6c-0.5,0-0.9,0.2-1.2,0.5C281,371.3,280.8,371.7,280.8,372.3z"/>
		<path d="M223.9,392.6c-0.6-0.7-1.1-1.6-1.5-2.6c-0.4-1-0.6-2-0.6-3.1c0-0.9,0.1-1.8,0.4-2.7c0.4-1,0.9-2,1.6-3h0.8
			c-0.5,0.8-0.8,1.4-0.9,1.8c-0.2,0.5-0.4,1.1-0.6,1.7c-0.2,0.7-0.3,1.5-0.3,2.2c0,1.9,0.6,3.8,1.8,5.7H223.9z M225.3,387.6l1-0.1
			c0,0.7,0.1,1.1,0.4,1.4c0.2,0.2,0.5,0.4,0.9,0.4c0.3,0,0.5-0.1,0.7-0.2c0.2-0.1,0.4-0.3,0.4-0.5c0.1-0.2,0.1-0.6,0.1-1.1v-6h1.2
			v5.9c0,0.7-0.1,1.3-0.3,1.7c-0.2,0.4-0.5,0.7-0.8,0.9c-0.4,0.2-0.8,0.3-1.3,0.3c-0.8,0-1.3-0.2-1.8-0.7
			C225.5,389.1,225.3,388.4,225.3,387.6z M235.8,389.3c-0.4,0.3-0.8,0.6-1.1,0.7c-0.4,0.1-0.8,0.2-1.2,0.2c-0.7,0-1.2-0.2-1.6-0.5
			c-0.4-0.3-0.6-0.8-0.6-1.3c0-0.3,0.1-0.6,0.2-0.8c0.1-0.3,0.3-0.5,0.5-0.6c0.2-0.2,0.5-0.3,0.8-0.3c0.2-0.1,0.5-0.1,0.9-0.2
			c0.9-0.1,1.5-0.2,1.9-0.4c0-0.1,0-0.2,0-0.3c0-0.4-0.1-0.7-0.3-0.9c-0.3-0.2-0.7-0.4-1.2-0.4c-0.5,0-0.9,0.1-1.1,0.3
			c-0.2,0.2-0.4,0.5-0.5,0.9l-1-0.1c0.1-0.4,0.3-0.8,0.5-1.1c0.2-0.3,0.5-0.5,0.9-0.6c0.4-0.2,0.9-0.2,1.4-0.2c0.5,0,1,0.1,1.3,0.2
			c0.3,0.1,0.6,0.3,0.7,0.5c0.2,0.2,0.3,0.4,0.3,0.7c0,0.2,0.1,0.5,0.1,1v1.4c0,1,0,1.6,0.1,1.9c0,0.3,0.1,0.5,0.3,0.7H236
			C235.9,389.8,235.9,389.6,235.8,389.3z M235.8,386.9c-0.4,0.2-1,0.3-1.7,0.4c-0.4,0.1-0.7,0.1-0.9,0.2c-0.2,0.1-0.3,0.2-0.4,0.3
			c-0.1,0.2-0.1,0.3-0.1,0.5c0,0.3,0.1,0.5,0.3,0.7c0.2,0.2,0.5,0.3,0.9,0.3c0.4,0,0.8-0.1,1.1-0.3c0.3-0.2,0.6-0.4,0.7-0.7
			c0.1-0.2,0.2-0.6,0.2-1.1V386.9z M240.1,390l-2.4-6.3h1.1l1.4,3.8c0.1,0.4,0.3,0.8,0.4,1.3c0.1-0.3,0.2-0.7,0.4-1.2l1.4-3.8h1.1
			l-2.4,6.3H240.1z M248.4,389.3c-0.4,0.3-0.8,0.6-1.1,0.7c-0.4,0.1-0.8,0.2-1.2,0.2c-0.7,0-1.2-0.2-1.6-0.5
			c-0.4-0.3-0.6-0.8-0.6-1.3c0-0.3,0.1-0.6,0.2-0.8c0.1-0.3,0.3-0.5,0.5-0.6c0.2-0.2,0.5-0.3,0.8-0.3c0.2-0.1,0.5-0.1,0.9-0.2
			c0.9-0.1,1.5-0.2,1.9-0.4c0-0.1,0-0.2,0-0.3c0-0.4-0.1-0.7-0.3-0.9c-0.3-0.2-0.7-0.4-1.2-0.4c-0.5,0-0.9,0.1-1.1,0.3
			c-0.2,0.2-0.4,0.5-0.5,0.9l-1-0.1c0.1-0.4,0.3-0.8,0.5-1.1c0.2-0.3,0.5-0.5,0.9-0.6c0.4-0.2,0.9-0.2,1.4-0.2c0.5,0,1,0.1,1.3,0.2
			c0.3,0.1,0.6,0.3,0.7,0.5c0.2,0.2,0.3,0.4,0.3,0.7c0,0.2,0.1,0.5,0.1,1v1.4c0,1,0,1.6,0.1,1.9c0,0.3,0.1,0.5,0.3,0.7h-1.1
			C248.5,389.8,248.4,389.6,248.4,389.3z M248.3,386.9c-0.4,0.2-1,0.3-1.7,0.4c-0.4,0.1-0.7,0.1-0.9,0.2c-0.2,0.1-0.3,0.2-0.4,0.3
			c-0.1,0.2-0.1,0.3-0.1,0.5c0,0.3,0.1,0.5,0.3,0.7c0.2,0.2,0.5,0.3,0.9,0.3c0.4,0,0.8-0.1,1.1-0.3c0.3-0.2,0.6-0.4,0.7-0.7
			c0.1-0.2,0.2-0.6,0.2-1.1V386.9z M250.7,387.3l1.1-0.1c0.1,0.4,0.2,0.8,0.4,1.1c0.2,0.3,0.5,0.5,0.9,0.7c0.4,0.2,0.8,0.3,1.3,0.3
			c0.4,0,0.8-0.1,1.2-0.2c0.3-0.1,0.6-0.3,0.8-0.5c0.2-0.2,0.2-0.5,0.2-0.7c0-0.3-0.1-0.5-0.2-0.7c-0.2-0.2-0.4-0.4-0.8-0.5
			c-0.2-0.1-0.7-0.2-1.5-0.4c-0.8-0.2-1.4-0.4-1.7-0.5c-0.4-0.2-0.7-0.5-0.9-0.8c-0.2-0.3-0.3-0.7-0.3-1.1c0-0.4,0.1-0.8,0.4-1.2
			c0.3-0.4,0.6-0.7,1.1-0.9c0.5-0.2,1-0.3,1.6-0.3c0.6,0,1.2,0.1,1.7,0.3c0.5,0.2,0.9,0.5,1.1,0.9c0.3,0.4,0.4,0.9,0.4,1.4l-1.1,0.1
			c-0.1-0.5-0.3-1-0.6-1.2c-0.3-0.3-0.8-0.4-1.5-0.4c-0.7,0-1.2,0.1-1.5,0.4c-0.3,0.3-0.5,0.6-0.5,0.9c0,0.3,0.1,0.6,0.3,0.8
			c0.2,0.2,0.8,0.4,1.7,0.6c0.9,0.2,1.6,0.4,1.9,0.6c0.5,0.2,0.9,0.5,1.1,0.9c0.2,0.4,0.4,0.8,0.4,1.2c0,0.5-0.1,0.9-0.4,1.3
			c-0.3,0.4-0.6,0.7-1.1,0.9c-0.5,0.2-1,0.3-1.7,0.3c-0.8,0-1.4-0.1-2-0.3c-0.5-0.2-0.9-0.6-1.3-1
			C250.8,388.4,250.7,387.8,250.7,387.3z M262.9,387.7l1,0.1c-0.1,0.7-0.4,1.3-0.9,1.7c-0.5,0.4-1.1,0.6-1.7,0.6
			c-0.9,0-1.5-0.3-2.1-0.8c-0.5-0.6-0.8-1.4-0.8-2.4c0-0.7,0.1-1.3,0.3-1.8c0.2-0.5,0.6-0.9,1-1.1c0.5-0.3,1-0.4,1.5-0.4
			c0.7,0,1.2,0.2,1.7,0.5c0.4,0.3,0.7,0.8,0.8,1.5l-1,0.2c-0.1-0.4-0.3-0.7-0.5-1s-0.6-0.3-0.9-0.3c-0.5,0-1,0.2-1.3,0.6
			c-0.3,0.4-0.5,1-0.5,1.8c0,0.8,0.2,1.5,0.5,1.8c0.3,0.4,0.7,0.6,1.3,0.6c0.4,0,0.8-0.1,1-0.4C262.7,388.7,262.9,388.3,262.9,387.7
			z M264.8,390v-6.3h1v1c0.2-0.4,0.5-0.7,0.7-0.9c0.2-0.1,0.4-0.2,0.7-0.2c0.4,0,0.7,0.1,1.1,0.3l-0.4,1c-0.3-0.2-0.5-0.2-0.8-0.2
			c-0.2,0-0.4,0.1-0.6,0.2c-0.2,0.1-0.3,0.3-0.4,0.6c-0.1,0.4-0.2,0.8-0.2,1.2v3.3H264.8z M268.8,382.6v-1.2h1.1v1.2H268.8z
			 M268.8,390v-6.3h1.1v6.3H268.8z M271.4,392.5v-8.7h1v0.8c0.2-0.3,0.5-0.6,0.8-0.7c0.3-0.2,0.6-0.2,1-0.2c0.5,0,1,0.1,1.4,0.4
			c0.4,0.3,0.7,0.7,0.9,1.2c0.2,0.5,0.3,1.1,0.3,1.7c0,0.6-0.1,1.2-0.3,1.7c-0.2,0.5-0.6,0.9-1,1.2c-0.4,0.3-0.9,0.4-1.4,0.4
			c-0.4,0-0.7-0.1-1-0.2c-0.3-0.2-0.5-0.3-0.7-0.6v3.1H271.4z M272.4,386.9c0,0.8,0.2,1.4,0.5,1.8c0.3,0.4,0.7,0.6,1.2,0.6
			c0.5,0,0.9-0.2,1.2-0.6c0.3-0.4,0.5-1,0.5-1.9c0-0.8-0.2-1.4-0.5-1.8c-0.3-0.4-0.7-0.6-1.2-0.6c-0.5,0-0.9,0.2-1.2,0.6
			C272.5,385.5,272.4,386.1,272.4,386.9z M280.3,389.1l0.1,0.9c-0.3,0.1-0.6,0.1-0.8,0.1c-0.4,0-0.7-0.1-0.9-0.2
			c-0.2-0.1-0.4-0.3-0.4-0.5c-0.1-0.2-0.1-0.6-0.1-1.3v-3.6h-0.8v-0.8h0.8v-1.6l1.1-0.6v2.2h1.1v0.8h-1.1v3.7c0,0.3,0,0.5,0,0.6
			c0,0.1,0.1,0.2,0.2,0.2c0.1,0.1,0.2,0.1,0.4,0.1C280,389.1,280.1,389.1,280.3,389.1z M282,392.6h-0.8c1.2-1.9,1.8-3.8,1.8-5.7
			c0-0.7-0.1-1.5-0.2-2.2c-0.1-0.6-0.3-1.2-0.6-1.7c-0.2-0.4-0.5-0.9-0.9-1.8h0.8c0.7,1,1.3,2,1.6,3c0.3,0.9,0.5,1.8,0.5,2.7
			c0,1.1-0.2,2.1-0.6,3.1C283.1,391,282.6,391.8,282,392.6z"/>
		<path fill-opacity="0" d="M145.9,380.5h63.5"/>
		<path fill="none" stroke="#000000" stroke-width="2" stroke-linejoin="round" stroke-miterlimit="10" d="M153.5,380.5h48.2"/>
		<path stroke="#000000" stroke-width="2" stroke-miterlimit="10" d="M153.5,378.4l-5.8,2.1l5.8,2.1V378.4z"/>
		<path stroke="#000000" stroke-width="2" stroke-miterlimit="10" d="M201.7,382.6l5.8-2.1l-5.8-2.1V382.6z"/>
		<path fill-opacity="0" d="M145.9,358.9h63.5v21.7h-63.5V358.9z"/>
		<path d="M158,366l0.7-0.1c0,0.5,0.1,0.8,0.2,0.9c0.2,0.2,0.4,0.2,0.6,0.2c0.2,0,0.4,0,0.5-0.1c0.1-0.1,0.2-0.2,0.3-0.4
			c0.1-0.2,0.1-0.4,0.1-0.7v-4.1h0.8v4c0,0.5-0.1,0.9-0.2,1.2c-0.1,0.3-0.3,0.5-0.6,0.6c-0.3,0.1-0.6,0.2-0.9,0.2
			c-0.5,0-0.9-0.1-1.2-0.4C158.1,367,158,366.6,158,366z M165.4,367.1c-0.3,0.2-0.5,0.4-0.8,0.5c-0.2,0.1-0.5,0.1-0.8,0.1
			c-0.5,0-0.8-0.1-1.1-0.3c-0.3-0.2-0.4-0.5-0.4-0.9c0-0.2,0-0.4,0.1-0.6c0.1-0.2,0.2-0.3,0.4-0.4c0.2-0.1,0.3-0.2,0.5-0.2
			c0.1,0,0.4-0.1,0.6-0.1c0.6-0.1,1-0.1,1.3-0.2c0-0.1,0-0.2,0-0.2c0-0.3-0.1-0.5-0.2-0.6c-0.2-0.2-0.5-0.2-0.8-0.2
			c-0.3,0-0.6,0.1-0.8,0.2c-0.2,0.1-0.3,0.3-0.4,0.6l-0.7-0.1c0.1-0.3,0.2-0.6,0.3-0.7c0.2-0.2,0.4-0.3,0.6-0.4
			c0.3-0.1,0.6-0.1,1-0.1c0.4,0,0.7,0,0.9,0.1c0.2,0.1,0.4,0.2,0.5,0.3c0.1,0.1,0.2,0.3,0.2,0.5c0,0.1,0,0.4,0,0.7v1
			c0,0.7,0,1.1,0,1.3c0,0.2,0.1,0.4,0.2,0.5h-0.8C165.4,367.5,165.4,367.3,165.4,367.1z M165.3,365.5c-0.3,0.1-0.7,0.2-1.2,0.3
			c-0.3,0-0.5,0.1-0.6,0.1c-0.1,0.1-0.2,0.1-0.3,0.2c-0.1,0.1-0.1,0.2-0.1,0.3c0,0.2,0.1,0.4,0.2,0.5c0.1,0.1,0.4,0.2,0.6,0.2
			c0.3,0,0.5-0.1,0.7-0.2c0.2-0.1,0.4-0.3,0.5-0.5c0.1-0.2,0.1-0.4,0.1-0.7V365.5z M168.5,367.7l-1.6-4.3h0.8l0.9,2.6
			c0.1,0.3,0.2,0.6,0.3,0.9c0.1-0.2,0.2-0.5,0.3-0.8l1-2.6h0.7l-1.6,4.3H168.5z M174.3,367.1c-0.3,0.2-0.5,0.4-0.8,0.5
			c-0.2,0.1-0.5,0.1-0.8,0.1c-0.5,0-0.8-0.1-1.1-0.3c-0.3-0.2-0.4-0.5-0.4-0.9c0-0.2,0-0.4,0.1-0.6c0.1-0.2,0.2-0.3,0.4-0.4
			c0.2-0.1,0.3-0.2,0.5-0.2c0.1,0,0.4-0.1,0.6-0.1c0.6-0.1,1-0.1,1.3-0.2c0-0.1,0-0.2,0-0.2c0-0.3-0.1-0.5-0.2-0.6
			c-0.2-0.2-0.5-0.2-0.8-0.2c-0.3,0-0.6,0.1-0.8,0.2c-0.2,0.1-0.3,0.3-0.4,0.6l-0.7-0.1c0.1-0.3,0.2-0.6,0.3-0.7
			c0.2-0.2,0.4-0.3,0.6-0.4c0.3-0.1,0.6-0.1,1-0.1c0.4,0,0.7,0,0.9,0.1c0.2,0.1,0.4,0.2,0.5,0.3c0.1,0.1,0.2,0.3,0.2,0.5
			c0,0.1,0,0.4,0,0.7v1c0,0.7,0,1.1,0,1.3c0,0.2,0.1,0.4,0.2,0.5h-0.8C174.4,367.5,174.4,367.3,174.3,367.1z M174.3,365.5
			c-0.3,0.1-0.7,0.2-1.2,0.3c-0.3,0-0.5,0.1-0.6,0.1c-0.1,0.1-0.2,0.1-0.3,0.2c-0.1,0.1-0.1,0.2-0.1,0.3c0,0.2,0.1,0.4,0.2,0.5
			c0.1,0.1,0.4,0.2,0.6,0.2c0.3,0,0.5-0.1,0.7-0.2c0.2-0.1,0.4-0.3,0.5-0.5c0.1-0.2,0.1-0.4,0.1-0.7V365.5z M176.1,365.8l0.7-0.1
			c0,0.3,0.1,0.5,0.2,0.7c0.1,0.2,0.3,0.3,0.6,0.5c0.3,0.1,0.6,0.2,0.9,0.2c0.3,0,0.6,0,0.8-0.1c0.2-0.1,0.4-0.2,0.5-0.4
			c0.1-0.2,0.2-0.3,0.2-0.5s-0.1-0.3-0.2-0.5c-0.1-0.1-0.3-0.3-0.5-0.3c-0.2-0.1-0.5-0.2-1.1-0.3c-0.5-0.1-0.9-0.3-1.1-0.4
			c-0.3-0.1-0.5-0.3-0.6-0.5c-0.1-0.2-0.2-0.5-0.2-0.7c0-0.3,0.1-0.6,0.2-0.8c0.2-0.3,0.4-0.5,0.7-0.6c0.3-0.1,0.7-0.2,1.1-0.2
			c0.4,0,0.8,0.1,1.2,0.2c0.3,0.1,0.6,0.3,0.8,0.6c0.2,0.3,0.3,0.6,0.3,0.9l-0.8,0.1c0-0.4-0.2-0.7-0.4-0.8c-0.2-0.2-0.6-0.3-1-0.3
			c-0.5,0-0.8,0.1-1,0.3c-0.2,0.2-0.3,0.4-0.3,0.6c0,0.2,0.1,0.4,0.2,0.5c0.2,0.1,0.5,0.3,1.2,0.4c0.6,0.1,1.1,0.3,1.3,0.4
			c0.3,0.2,0.6,0.4,0.8,0.6c0.2,0.2,0.2,0.5,0.2,0.8c0,0.3-0.1,0.6-0.3,0.9c-0.2,0.3-0.4,0.5-0.8,0.7c-0.3,0.2-0.7,0.2-1.1,0.2
			c-0.5,0-1-0.1-1.4-0.2c-0.4-0.2-0.6-0.4-0.8-0.7C176.2,366.5,176.1,366.1,176.1,365.8z M184.7,366.1l0.7,0.1
			c-0.1,0.5-0.3,0.9-0.6,1.2c-0.3,0.3-0.7,0.4-1.2,0.4c-0.6,0-1.1-0.2-1.4-0.6c-0.4-0.4-0.5-0.9-0.5-1.7c0-0.5,0.1-0.9,0.2-1.2
			c0.2-0.4,0.4-0.6,0.7-0.8s0.7-0.3,1-0.3c0.5,0,0.8,0.1,1.1,0.4c0.3,0.2,0.5,0.6,0.6,1l-0.7,0.1c-0.1-0.3-0.2-0.5-0.4-0.6
			c-0.2-0.1-0.4-0.2-0.6-0.2c-0.4,0-0.7,0.1-0.9,0.4c-0.2,0.3-0.3,0.7-0.3,1.2c0,0.6,0.1,1,0.3,1.3c0.2,0.3,0.5,0.4,0.9,0.4
			c0.3,0,0.5-0.1,0.7-0.3C184.6,366.7,184.7,366.4,184.7,366.1z M186.2,367.7v-4.3h0.7v0.6c0.2-0.3,0.3-0.5,0.5-0.6
			c0.1-0.1,0.3-0.1,0.5-0.1c0.2,0,0.5,0.1,0.7,0.2l-0.2,0.7c-0.2-0.1-0.4-0.2-0.5-0.2c-0.2,0-0.3,0-0.4,0.1
			c-0.1,0.1-0.2,0.2-0.3,0.4c-0.1,0.3-0.1,0.5-0.1,0.8v2.3H186.2z M189,362.6v-0.8h0.7v0.8H189z M189,367.7v-4.3h0.7v4.3H189z
			 M190.9,369.3v-5.9h0.7v0.6c0.2-0.2,0.3-0.4,0.5-0.5c0.2-0.1,0.4-0.2,0.7-0.2c0.4,0,0.7,0.1,1,0.3c0.3,0.2,0.5,0.5,0.6,0.8
			c0.1,0.3,0.2,0.7,0.2,1.1c0,0.4-0.1,0.8-0.2,1.2c-0.2,0.4-0.4,0.6-0.7,0.8c-0.3,0.2-0.6,0.3-0.9,0.3c-0.2,0-0.5,0-0.6-0.1
			c-0.2-0.1-0.4-0.2-0.5-0.4v2.1H190.9z M191.6,365.5c0,0.6,0.1,1,0.3,1.2c0.2,0.3,0.5,0.4,0.8,0.4c0.3,0,0.6-0.1,0.8-0.4
			c0.2-0.3,0.3-0.7,0.3-1.3c0-0.6-0.1-1-0.3-1.2c-0.2-0.3-0.5-0.4-0.8-0.4s-0.6,0.1-0.8,0.4C191.7,364.6,191.6,365,191.6,365.5z
			 M197.2,367l0.1,0.6c-0.2,0-0.4,0.1-0.5,0.1c-0.3,0-0.5,0-0.6-0.1c-0.1-0.1-0.2-0.2-0.3-0.3c-0.1-0.1-0.1-0.4-0.1-0.9v-2.5h-0.5
			v-0.6h0.5v-1.1l0.7-0.4v1.5h0.7v0.6h-0.7v2.5c0,0.2,0,0.3,0,0.4s0.1,0.1,0.1,0.1c0.1,0,0.1,0,0.2,0C197,367,197.1,367,197.2,367z"
			/>
		<path d="M170.7,377.9l2.3-5.9h0.8l2.4,5.9h-0.9l-0.7-1.8h-2.5l-0.7,1.8H170.7z M172.5,375.4h2l-0.6-1.6c-0.2-0.5-0.3-0.9-0.4-1.2
			c-0.1,0.4-0.2,0.8-0.3,1.1L172.5,375.4z M177.1,377.9v-5.9h2.2c0.4,0,0.7,0,0.9,0.1c0.3,0,0.5,0.1,0.7,0.3
			c0.2,0.1,0.4,0.3,0.5,0.6c0.1,0.2,0.2,0.5,0.2,0.8c0,0.5-0.2,0.9-0.5,1.3c-0.3,0.3-0.9,0.5-1.7,0.5h-1.5v2.4H177.1z M177.9,374.7
			h1.5c0.5,0,0.9-0.1,1.1-0.3c0.2-0.2,0.3-0.5,0.3-0.8c0-0.2-0.1-0.5-0.2-0.6c-0.1-0.2-0.3-0.3-0.5-0.4c-0.1,0-0.4,0-0.7,0h-1.5
			V374.7z M182.9,377.9v-5.9h0.8v5.9H182.9z"/>
		<path fill-opacity="0" d="M201.5,282.9l51.2,75.9"/>
		<path fill="none" stroke="#000000" stroke-width="2" stroke-linejoin="round" stroke-miterlimit="10" d="M205.8,289.3l42.7,63.3"
			/>
		<path stroke="#000000" stroke-width="2" stroke-miterlimit="10" d="M207.6,288.1l-5-3.6l1.5,6L207.6,288.1z"/>
		<path stroke="#000000" stroke-width="2" stroke-miterlimit="10" d="M246.7,353.7l5,3.6l-1.5-6L246.7,353.7z"/>
		<path fill-opacity="0" d="M222.2,302.3h113.3v30.6H222.2V302.3z"/>
		<path d="M228.6,316.2v-5.9h0.8v2.4h3.1v-2.4h0.8v5.9h-0.8v-2.8h-3.1v2.8H228.6z M236.2,316.2V311h-2v-0.7h4.7v0.7h-2v5.2H236.2z
			 M241.4,316.2V311h-2v-0.7h4.7v0.7h-2v5.2H241.4z M245.1,316.2v-5.9h2.2c0.4,0,0.7,0,0.9,0.1c0.3,0,0.5,0.1,0.7,0.3
			c0.2,0.1,0.4,0.3,0.5,0.6s0.2,0.5,0.2,0.8c0,0.5-0.2,0.9-0.5,1.3c-0.3,0.3-0.9,0.5-1.7,0.5h-1.5v2.4H245.1z M245.9,313.1h1.5
			c0.5,0,0.9-0.1,1.1-0.3c0.2-0.2,0.3-0.5,0.3-0.8c0-0.2-0.1-0.5-0.2-0.6c-0.1-0.2-0.3-0.3-0.5-0.4c-0.1,0-0.4,0-0.7,0h-1.5V313.1z
			 M252.7,314.5l0.7-0.1c0,0.5,0.1,0.8,0.2,0.9c0.2,0.2,0.4,0.2,0.6,0.2c0.2,0,0.4,0,0.5-0.1c0.1-0.1,0.2-0.2,0.3-0.4
			c0.1-0.2,0.1-0.4,0.1-0.7v-4.1h0.8v4c0,0.5-0.1,0.9-0.2,1.2c-0.1,0.3-0.3,0.5-0.6,0.6c-0.3,0.1-0.6,0.2-0.9,0.2
			c-0.5,0-0.9-0.1-1.2-0.4C252.8,315.6,252.7,315.1,252.7,314.5z M257.1,314.3l0.7-0.1c0,0.3,0.1,0.5,0.2,0.7
			c0.1,0.2,0.3,0.3,0.6,0.5c0.3,0.1,0.6,0.2,0.9,0.2c0.3,0,0.6,0,0.8-0.1c0.2-0.1,0.4-0.2,0.5-0.4c0.1-0.2,0.2-0.3,0.2-0.5
			c0-0.2-0.1-0.3-0.2-0.5c-0.1-0.1-0.3-0.3-0.5-0.3c-0.2-0.1-0.5-0.2-1.1-0.3s-0.9-0.3-1.1-0.4c-0.3-0.1-0.5-0.3-0.6-0.5
			c-0.1-0.2-0.2-0.5-0.2-0.7c0-0.3,0.1-0.6,0.2-0.8c0.2-0.3,0.4-0.5,0.7-0.6c0.3-0.1,0.7-0.2,1.1-0.2c0.4,0,0.8,0.1,1.2,0.2
			c0.3,0.1,0.6,0.3,0.8,0.6c0.2,0.3,0.3,0.6,0.3,0.9l-0.8,0.1c0-0.4-0.2-0.7-0.4-0.8c-0.2-0.2-0.6-0.3-1-0.3c-0.5,0-0.8,0.1-1,0.3
			c-0.2,0.2-0.3,0.4-0.3,0.6c0,0.2,0.1,0.4,0.2,0.5c0.2,0.1,0.5,0.3,1.2,0.4c0.6,0.1,1.1,0.3,1.3,0.4c0.3,0.2,0.6,0.4,0.8,0.6
			c0.2,0.2,0.2,0.5,0.2,0.8c0,0.3-0.1,0.6-0.3,0.9c-0.2,0.3-0.4,0.5-0.8,0.7c-0.3,0.2-0.7,0.2-1.1,0.2c-0.5,0-1-0.1-1.4-0.2
			c-0.4-0.2-0.6-0.4-0.8-0.7C257.2,315.1,257.1,314.7,257.1,314.3z M262.8,313.3c0-1,0.3-1.8,0.8-2.3c0.5-0.6,1.2-0.8,2.1-0.8
			c0.6,0,1,0.1,1.5,0.4c0.4,0.3,0.8,0.6,1,1.1c0.2,0.5,0.3,1,0.3,1.6c0,0.6-0.1,1.1-0.4,1.6c-0.2,0.5-0.6,0.8-1,1.1
			c-0.4,0.2-0.9,0.4-1.4,0.4c-0.6,0-1.1-0.1-1.5-0.4c-0.4-0.3-0.8-0.6-1-1.1C262.9,314.3,262.8,313.9,262.8,313.3z M263.6,313.3
			c0,0.7,0.2,1.3,0.6,1.7c0.4,0.4,0.9,0.6,1.5,0.6c0.6,0,1.1-0.2,1.5-0.6c0.4-0.4,0.6-1,0.6-1.8c0-0.5-0.1-0.9-0.2-1.3
			c-0.2-0.4-0.4-0.6-0.7-0.8c-0.3-0.2-0.7-0.3-1.1-0.3c-0.6,0-1,0.2-1.4,0.6C263.8,311.8,263.6,312.5,263.6,313.3z M269.6,316.2
			v-5.9h0.8l3.1,4.7v-4.7h0.8v5.9h-0.8l-3.1-4.7v4.7H269.6z M277.5,316.2l2.3-5.9h0.8l2.4,5.9h-0.9l-0.7-1.8H279l-0.7,1.8H277.5z
			 M279.2,313.8h2l-0.6-1.6c-0.2-0.5-0.3-0.9-0.4-1.2c-0.1,0.4-0.2,0.8-0.3,1.1L279.2,313.8z M283.8,316.2v-5.9h2.2
			c0.4,0,0.7,0,0.9,0.1c0.3,0,0.5,0.1,0.7,0.3c0.2,0.1,0.4,0.3,0.5,0.6s0.2,0.5,0.2,0.8c0,0.5-0.2,0.9-0.5,1.3
			c-0.3,0.3-0.9,0.5-1.7,0.5h-1.5v2.4H283.8z M284.6,313.1h1.5c0.5,0,0.9-0.1,1.1-0.3c0.2-0.2,0.3-0.5,0.3-0.8
			c0-0.2-0.1-0.5-0.2-0.6c-0.1-0.2-0.3-0.3-0.5-0.4c-0.1,0-0.4,0-0.7,0h-1.5V313.1z M289.6,316.2v-5.9h0.8v5.9H289.6z"/>
		<path d="M236.1,324.1v-0.7l2.5,0v2.2c-0.4,0.3-0.8,0.5-1.2,0.7c-0.4,0.2-0.8,0.2-1.3,0.2c-0.6,0-1.1-0.1-1.6-0.4
			c-0.5-0.3-0.8-0.6-1.1-1.1c-0.2-0.5-0.4-1-0.4-1.6c0-0.6,0.1-1.1,0.4-1.6c0.2-0.5,0.6-0.9,1-1.1c0.5-0.2,1-0.4,1.6-0.4
			c0.4,0,0.8,0.1,1.2,0.2c0.3,0.1,0.6,0.3,0.8,0.6c0.2,0.2,0.3,0.6,0.4,1l-0.7,0.2c-0.1-0.3-0.2-0.5-0.3-0.7
			c-0.1-0.2-0.3-0.3-0.6-0.4c-0.2-0.1-0.5-0.2-0.8-0.2c-0.4,0-0.7,0.1-0.9,0.2c-0.3,0.1-0.5,0.2-0.6,0.4c-0.2,0.2-0.3,0.4-0.4,0.6
			c-0.1,0.4-0.2,0.8-0.2,1.2c0,0.5,0.1,1,0.3,1.3c0.2,0.4,0.4,0.6,0.8,0.8c0.4,0.2,0.7,0.3,1.1,0.3c0.3,0,0.7-0.1,1-0.2
			c0.3-0.1,0.6-0.3,0.7-0.4v-1.1H236.1z M239.5,324.3c0-0.8,0.2-1.4,0.7-1.8c0.4-0.3,0.8-0.5,1.4-0.5c0.6,0,1.1,0.2,1.4,0.6
			c0.4,0.4,0.6,0.9,0.6,1.6c0,0.6-0.1,1-0.2,1.3c-0.2,0.3-0.4,0.6-0.7,0.7c-0.3,0.2-0.7,0.3-1,0.3c-0.6,0-1.1-0.2-1.5-0.6
			C239.7,325.6,239.5,325,239.5,324.3z M240.3,324.3c0,0.6,0.1,1,0.4,1.2c0.2,0.3,0.5,0.4,0.9,0.4c0.4,0,0.7-0.1,0.9-0.4
			c0.2-0.3,0.4-0.7,0.4-1.3c0-0.5-0.1-0.9-0.4-1.2c-0.2-0.3-0.5-0.4-0.9-0.4c-0.4,0-0.7,0.1-0.9,0.4S240.3,323.7,240.3,324.3z
			 M244.3,324.3c0-0.8,0.2-1.4,0.7-1.8c0.4-0.3,0.8-0.5,1.4-0.5c0.6,0,1.1,0.2,1.4,0.6c0.4,0.4,0.6,0.9,0.6,1.6c0,0.6-0.1,1-0.2,1.3
			c-0.2,0.3-0.4,0.6-0.7,0.7c-0.3,0.2-0.7,0.3-1,0.3c-0.6,0-1.1-0.2-1.5-0.6C244.4,325.6,244.3,325,244.3,324.3z M245,324.3
			c0,0.6,0.1,1,0.4,1.2c0.2,0.3,0.5,0.4,0.9,0.4c0.4,0,0.7-0.1,0.9-0.4c0.2-0.3,0.4-0.7,0.4-1.3c0-0.5-0.1-0.9-0.4-1.2
			c-0.2-0.3-0.5-0.4-0.9-0.4c-0.4,0-0.7,0.1-0.9,0.4S245,323.7,245,324.3z M249.1,326.8l0.7,0.1c0,0.2,0.1,0.4,0.2,0.5
			c0.2,0.1,0.4,0.2,0.7,0.2c0.3,0,0.6-0.1,0.8-0.2c0.2-0.1,0.3-0.3,0.4-0.6c0-0.1,0.1-0.5,0.1-0.9c-0.3,0.4-0.7,0.6-1.2,0.6
			c-0.6,0-1-0.2-1.4-0.6c-0.3-0.4-0.5-0.9-0.5-1.5c0-0.4,0.1-0.8,0.2-1.1c0.2-0.3,0.4-0.6,0.6-0.8c0.3-0.2,0.6-0.3,1-0.3
			c0.5,0,0.9,0.2,1.3,0.6v-0.5h0.7v3.7c0,0.7-0.1,1.1-0.2,1.4c-0.1,0.3-0.3,0.5-0.6,0.7c-0.3,0.2-0.7,0.2-1.1,0.2
			c-0.5,0-0.9-0.1-1.2-0.3C249.3,327.6,249.1,327.2,249.1,326.8z M249.7,324.2c0,0.6,0.1,1,0.3,1.2c0.2,0.3,0.5,0.4,0.8,0.4
			c0.3,0,0.6-0.1,0.8-0.4c0.2-0.3,0.3-0.7,0.3-1.2c0-0.5-0.1-0.9-0.3-1.2c-0.2-0.3-0.5-0.4-0.8-0.4c-0.3,0-0.6,0.1-0.8,0.4
			C249.8,323.3,249.7,323.7,249.7,324.2z M254,326.4v-5.9h0.7v5.9H254z M258.8,325l0.8,0.1c-0.1,0.4-0.3,0.8-0.7,1
			c-0.3,0.2-0.7,0.4-1.2,0.4c-0.6,0-1.1-0.2-1.5-0.6c-0.4-0.4-0.5-0.9-0.5-1.6c0-0.7,0.2-1.3,0.6-1.7c0.4-0.4,0.9-0.6,1.5-0.6
			c0.6,0,1,0.2,1.4,0.6c0.4,0.4,0.5,0.9,0.5,1.6c0,0,0,0.1,0,0.2h-3.2c0,0.5,0.2,0.8,0.4,1.1c0.2,0.3,0.5,0.4,0.9,0.4
			c0.3,0,0.5-0.1,0.7-0.2C258.5,325.6,258.7,325.3,258.8,325z M256.4,323.9h2.4c0-0.4-0.1-0.6-0.3-0.8c-0.2-0.3-0.5-0.4-0.9-0.4
			c-0.3,0-0.6,0.1-0.8,0.3C256.6,323.2,256.4,323.5,256.4,323.9z M267.3,324.3l0.8,0.2c-0.2,0.6-0.5,1.1-0.9,1.5
			c-0.4,0.3-0.9,0.5-1.6,0.5c-0.6,0-1.2-0.1-1.6-0.4c-0.4-0.3-0.7-0.6-0.9-1.1c-0.2-0.5-0.3-1-0.3-1.6c0-0.6,0.1-1.2,0.4-1.6
			c0.2-0.5,0.6-0.8,1-1.1c0.4-0.2,0.9-0.4,1.4-0.4c0.6,0,1.1,0.2,1.5,0.5c0.4,0.3,0.7,0.7,0.8,1.3l-0.8,0.2
			c-0.1-0.4-0.3-0.7-0.6-0.9c-0.3-0.2-0.6-0.3-1-0.3c-0.5,0-0.8,0.1-1.1,0.3c-0.3,0.2-0.5,0.5-0.6,0.9c-0.1,0.4-0.2,0.7-0.2,1.1
			c0,0.5,0.1,0.9,0.2,1.3s0.4,0.7,0.7,0.8c0.3,0.2,0.7,0.3,1,0.3c0.4,0,0.8-0.1,1.1-0.4C267,325.2,267.2,324.8,267.3,324.3z
			 M269.1,326.4v-5.9h0.7v2.1c0.3-0.4,0.8-0.6,1.3-0.6c0.3,0,0.6,0.1,0.8,0.2c0.2,0.1,0.4,0.3,0.5,0.5c0.1,0.2,0.1,0.5,0.1,1v2.7
			h-0.7v-2.7c0-0.4-0.1-0.6-0.2-0.8c-0.2-0.2-0.4-0.2-0.7-0.2c-0.2,0-0.4,0.1-0.6,0.2c-0.2,0.1-0.3,0.3-0.4,0.4
			c-0.1,0.2-0.1,0.5-0.1,0.8v2.4H269.1z M276.6,325.9c-0.3,0.2-0.5,0.4-0.8,0.5c-0.2,0.1-0.5,0.1-0.8,0.1c-0.5,0-0.8-0.1-1.1-0.3
			c-0.3-0.2-0.4-0.5-0.4-0.9c0-0.2,0-0.4,0.1-0.6c0.1-0.2,0.2-0.3,0.4-0.4c0.2-0.1,0.3-0.2,0.5-0.2c0.1,0,0.4-0.1,0.6-0.1
			c0.6-0.1,1-0.1,1.3-0.2c0-0.1,0-0.2,0-0.2c0-0.3-0.1-0.5-0.2-0.6c-0.2-0.2-0.5-0.2-0.8-0.2c-0.3,0-0.6,0.1-0.8,0.2
			c-0.2,0.1-0.3,0.3-0.4,0.6l-0.7-0.1c0.1-0.3,0.2-0.6,0.3-0.7c0.2-0.2,0.4-0.3,0.6-0.4c0.3-0.1,0.6-0.1,1-0.1c0.4,0,0.7,0,0.9,0.1
			c0.2,0.1,0.4,0.2,0.5,0.3c0.1,0.1,0.2,0.3,0.2,0.5c0,0.1,0,0.4,0,0.7v1c0,0.7,0,1.1,0,1.3c0,0.2,0.1,0.4,0.2,0.5h-0.8
			C276.7,326.3,276.6,326.1,276.6,325.9z M276.5,324.3c-0.3,0.1-0.7,0.2-1.2,0.3c-0.3,0-0.5,0.1-0.6,0.1c-0.1,0.1-0.2,0.1-0.3,0.2
			c-0.1,0.1-0.1,0.2-0.1,0.3c0,0.2,0.1,0.4,0.2,0.5c0.1,0.1,0.4,0.2,0.6,0.2c0.3,0,0.5-0.1,0.7-0.2c0.2-0.1,0.4-0.3,0.5-0.5
			c0.1-0.2,0.1-0.4,0.1-0.7V324.3z M278.5,326.4v-4.3h0.7v0.6c0.3-0.5,0.8-0.7,1.4-0.7c0.3,0,0.5,0,0.7,0.1c0.2,0.1,0.4,0.2,0.5,0.4
			c0.1,0.1,0.2,0.3,0.2,0.5c0,0.1,0,0.4,0,0.7v2.6h-0.7v-2.6c0-0.3,0-0.5-0.1-0.7c-0.1-0.1-0.2-0.3-0.3-0.3
			c-0.1-0.1-0.3-0.1-0.5-0.1c-0.3,0-0.6,0.1-0.8,0.3c-0.2,0.2-0.3,0.6-0.3,1.1v2.4H278.5z M283.3,326.4v-4.3h0.7v0.6
			c0.3-0.5,0.8-0.7,1.4-0.7c0.3,0,0.5,0,0.7,0.1c0.2,0.1,0.4,0.2,0.5,0.4c0.1,0.1,0.2,0.3,0.2,0.5c0,0.1,0,0.4,0,0.7v2.6H286v-2.6
			c0-0.3,0-0.5-0.1-0.7c-0.1-0.1-0.2-0.3-0.3-0.3c-0.1-0.1-0.3-0.1-0.5-0.1c-0.3,0-0.6,0.1-0.8,0.3c-0.2,0.2-0.3,0.6-0.3,1.1v2.4
			H283.3z M290.9,325l0.8,0.1c-0.1,0.4-0.3,0.8-0.7,1c-0.3,0.2-0.7,0.4-1.2,0.4c-0.6,0-1.1-0.2-1.5-0.6c-0.4-0.4-0.5-0.9-0.5-1.6
			c0-0.7,0.2-1.3,0.6-1.7c0.4-0.4,0.9-0.6,1.5-0.6c0.6,0,1,0.2,1.4,0.6c0.4,0.4,0.5,0.9,0.5,1.6c0,0,0,0.1,0,0.2h-3.2
			c0,0.5,0.2,0.8,0.4,1.1c0.2,0.3,0.5,0.4,0.9,0.4c0.3,0,0.5-0.1,0.7-0.2C290.7,325.6,290.8,325.3,290.9,325z M288.5,323.9h2.4
			c0-0.4-0.1-0.6-0.3-0.8c-0.2-0.3-0.5-0.4-0.9-0.4c-0.3,0-0.6,0.1-0.8,0.3C288.7,323.2,288.6,323.5,288.5,323.9z M292.7,326.4v-5.9
			h0.7v5.9H292.7z M297,326.4v-5.9h0.8v5.2h2.9v0.7H297z M301.7,321.3v-0.8h0.7v0.8H301.7z M301.7,326.4v-4.3h0.7v4.3H301.7z
			 M304.2,326.4h-0.7v-5.9h0.7v2.1c0.3-0.4,0.7-0.6,1.2-0.6c0.3,0,0.5,0.1,0.7,0.2c0.2,0.1,0.4,0.3,0.6,0.4c0.2,0.2,0.3,0.4,0.4,0.7
			c0.1,0.3,0.1,0.6,0.1,0.9c0,0.7-0.2,1.3-0.5,1.7c-0.4,0.4-0.8,0.6-1.3,0.6c-0.5,0-0.9-0.2-1.2-0.6V326.4z M304.2,324.2
			c0,0.5,0.1,0.9,0.2,1.1c0.2,0.4,0.5,0.6,0.9,0.6c0.3,0,0.6-0.1,0.8-0.4s0.3-0.7,0.3-1.2c0-0.6-0.1-1-0.3-1.2
			c-0.2-0.3-0.5-0.4-0.8-0.4s-0.6,0.1-0.8,0.4C304.3,323.3,304.2,323.7,304.2,324.2z M308.3,326.4v-4.3h0.7v0.6
			c0.2-0.3,0.3-0.5,0.5-0.6c0.1-0.1,0.3-0.1,0.5-0.1c0.2,0,0.5,0.1,0.7,0.2l-0.2,0.7c-0.2-0.1-0.4-0.2-0.5-0.2c-0.2,0-0.3,0-0.4,0.1
			c-0.1,0.1-0.2,0.2-0.3,0.4c-0.1,0.3-0.1,0.5-0.1,0.8v2.3H308.3z M313.9,325.9c-0.3,0.2-0.5,0.4-0.8,0.5c-0.2,0.1-0.5,0.1-0.8,0.1
			c-0.5,0-0.8-0.1-1.1-0.3s-0.4-0.5-0.4-0.9c0-0.2,0-0.4,0.1-0.6c0.1-0.2,0.2-0.3,0.4-0.4c0.2-0.1,0.3-0.2,0.5-0.2
			c0.1,0,0.4-0.1,0.6-0.1c0.6-0.1,1-0.1,1.3-0.2c0-0.1,0-0.2,0-0.2c0-0.3-0.1-0.5-0.2-0.6c-0.2-0.2-0.5-0.2-0.8-0.2
			c-0.3,0-0.6,0.1-0.8,0.2c-0.2,0.1-0.3,0.3-0.4,0.6l-0.7-0.1c0.1-0.3,0.2-0.6,0.3-0.7c0.2-0.2,0.4-0.3,0.6-0.4
			c0.3-0.1,0.6-0.1,1-0.1c0.4,0,0.7,0,0.9,0.1c0.2,0.1,0.4,0.2,0.5,0.3c0.1,0.1,0.2,0.3,0.2,0.5c0,0.1,0,0.4,0,0.7v1
			c0,0.7,0,1.1,0,1.3s0.1,0.4,0.2,0.5h-0.8C314,326.3,314,326.1,313.9,325.9z M313.9,324.3c-0.3,0.1-0.7,0.2-1.2,0.3
			c-0.3,0-0.5,0.1-0.6,0.1s-0.2,0.1-0.3,0.2c-0.1,0.1-0.1,0.2-0.1,0.3c0,0.2,0.1,0.4,0.2,0.5c0.1,0.1,0.4,0.2,0.6,0.2
			c0.3,0,0.5-0.1,0.7-0.2c0.2-0.1,0.4-0.3,0.5-0.5c0.1-0.2,0.1-0.4,0.1-0.7V324.3z M315.8,326.4v-4.3h0.7v0.6
			c0.2-0.3,0.3-0.5,0.5-0.6c0.1-0.1,0.3-0.1,0.5-0.1c0.2,0,0.5,0.1,0.7,0.2l-0.2,0.7c-0.2-0.1-0.4-0.2-0.5-0.2c-0.2,0-0.3,0-0.4,0.1
			c-0.1,0.1-0.2,0.2-0.3,0.4c-0.1,0.3-0.1,0.5-0.1,0.8v2.3H315.8z M318.7,328.1l-0.1-0.7c0.2,0,0.3,0.1,0.4,0.1c0.2,0,0.3,0,0.4-0.1
			c0.1-0.1,0.2-0.1,0.2-0.2c0-0.1,0.1-0.3,0.2-0.5c0,0,0-0.1,0.1-0.2l-1.6-4.3h0.8l0.9,2.5c0.1,0.3,0.2,0.7,0.3,1
			c0.1-0.3,0.2-0.7,0.3-1l0.9-2.5h0.7l-1.6,4.4c-0.2,0.5-0.3,0.8-0.4,1c-0.1,0.2-0.3,0.4-0.4,0.5s-0.4,0.2-0.6,0.2
			C319,328.2,318.8,328.1,318.7,328.1z"/>
	</g>
</g>
</svg>
