<?xml version="1.0" encoding="utf-8"?>
<!-- Generator: Adobe Illustrator 17.1.0, SVG Export Plug-In . SVG Version: 6.00 Build 0)  -->
<!DOCTYPE svg PUBLIC "-//W3C//DTD SVG 1.1//EN" "http://www.w3.org/Graphics/SVG/1.1/DTD/svg11.dtd">
<svg version="1.1" id="Layer_1" xmlns="http://www.w3.org/2000/svg" xmlns:xlink="http://www.w3.org/1999/xlink" x="0px" y="0px"
	 viewBox="55.9 244.9 465.3 229.8" enable-background="new 55.9 244.9 465.3 229.8" xml:space="preserve">
<g>
	<g>
		<path fill="#CFE2F3" d="M170.7,259.7h242.2v79.1H170.7V259.7z"/>
		<path fill="none" stroke="#000000" stroke-width="2" stroke-linejoin="round" stroke-miterlimit="10" d="M170.7,259.7h242.2v79.1
			H170.7V259.7z"/>
		<path d="M272.5,274.1l1.1-0.1c0.1,0.4,0.2,0.8,0.4,1.1c0.2,0.3,0.5,0.5,0.9,0.7c0.4,0.2,0.8,0.3,1.3,0.3c0.4,0,0.8-0.1,1.2-0.2
			c0.3-0.1,0.6-0.3,0.8-0.5c0.2-0.2,0.2-0.5,0.2-0.7c0-0.3-0.1-0.5-0.2-0.7c-0.2-0.2-0.4-0.4-0.8-0.5c-0.2-0.1-0.7-0.2-1.5-0.4
			c-0.8-0.2-1.4-0.4-1.7-0.5c-0.4-0.2-0.7-0.5-0.9-0.8c-0.2-0.3-0.3-0.7-0.3-1.1c0-0.4,0.1-0.8,0.4-1.2c0.3-0.4,0.6-0.7,1.1-0.9
			c0.5-0.2,1-0.3,1.6-0.3c0.6,0,1.2,0.1,1.7,0.3c0.5,0.2,0.9,0.5,1.1,0.9c0.3,0.4,0.4,0.9,0.4,1.4l-1.1,0.1c-0.1-0.5-0.3-1-0.6-1.2
			c-0.3-0.3-0.8-0.4-1.5-0.4c-0.7,0-1.2,0.1-1.5,0.4c-0.3,0.3-0.5,0.6-0.5,0.9c0,0.3,0.1,0.6,0.3,0.8c0.2,0.2,0.8,0.4,1.7,0.6
			c0.9,0.2,1.6,0.4,1.9,0.6c0.5,0.2,0.9,0.5,1.1,0.9c0.2,0.4,0.4,0.8,0.4,1.2c0,0.5-0.1,0.9-0.4,1.3c-0.3,0.4-0.6,0.7-1.1,0.9
			c-0.5,0.2-1,0.3-1.7,0.3c-0.8,0-1.4-0.1-2-0.3c-0.5-0.2-0.9-0.6-1.3-1C272.7,275.2,272.5,274.7,272.5,274.1z M284.8,276.9v-0.9
			c-0.5,0.7-1.1,1.1-2,1.1c-0.4,0-0.7-0.1-1-0.2c-0.3-0.1-0.6-0.3-0.7-0.5c-0.2-0.2-0.3-0.5-0.3-0.8c0-0.2-0.1-0.5-0.1-1v-3.9h1.1
			v3.5c0,0.6,0,0.9,0.1,1.1c0.1,0.3,0.2,0.5,0.4,0.7c0.2,0.2,0.5,0.2,0.8,0.2c0.3,0,0.6-0.1,0.9-0.2c0.3-0.2,0.5-0.4,0.6-0.7
			c0.1-0.3,0.2-0.7,0.2-1.2v-3.4h1.1v6.3H284.8z M288.3,276.9h-1v-8.7h1.1v3.1c0.5-0.6,1-0.8,1.7-0.8c0.4,0,0.8,0.1,1.1,0.2
			c0.3,0.2,0.6,0.4,0.8,0.7c0.2,0.3,0.4,0.6,0.5,1c0.1,0.4,0.2,0.8,0.2,1.3c0,1.1-0.3,1.9-0.8,2.5c-0.5,0.6-1.2,0.9-1.9,0.9
			s-1.3-0.3-1.7-0.9V276.9z M288.3,273.7c0,0.8,0.1,1.3,0.3,1.6c0.3,0.5,0.8,0.8,1.4,0.8c0.5,0,0.9-0.2,1.2-0.6
			c0.3-0.4,0.5-1,0.5-1.8c0-0.8-0.2-1.4-0.5-1.8c-0.3-0.4-0.7-0.6-1.2-0.6c-0.5,0-0.9,0.2-1.2,0.6
			C288.5,272.3,288.3,272.9,288.3,273.7z M293.9,269.4v-1.2h1.1v1.2H293.9z M292.6,279.3l0.2-0.9c0.2,0.1,0.4,0.1,0.5,0.1
			c0.2,0,0.4-0.1,0.5-0.2c0.1-0.1,0.2-0.5,0.2-1.1v-6.6h1.1v6.6c0,0.8-0.1,1.3-0.3,1.6c-0.3,0.4-0.7,0.6-1.3,0.6
			C293.1,279.4,292.9,279.4,292.6,279.3z M300.9,274.8l1.1,0.1c-0.2,0.6-0.5,1.1-1,1.5c-0.5,0.4-1.1,0.5-1.8,0.5
			c-0.9,0-1.6-0.3-2.2-0.8c-0.5-0.6-0.8-1.4-0.8-2.4c0-1.1,0.3-1.9,0.8-2.5c0.5-0.6,1.3-0.9,2.1-0.9c0.8,0,1.5,0.3,2.1,0.9
			c0.5,0.6,0.8,1.4,0.8,2.4c0,0.1,0,0.2,0,0.3h-4.7c0,0.7,0.2,1.2,0.6,1.6s0.8,0.5,1.3,0.5c0.4,0,0.7-0.1,1-0.3
			C300.5,275.6,300.7,275.3,300.9,274.8z M297.4,273.1h3.5c0-0.5-0.2-0.9-0.4-1.2c-0.3-0.4-0.8-0.6-1.3-0.6c-0.5,0-0.9,0.2-1.2,0.5
			C297.6,272.1,297.4,272.6,297.4,273.1z M307.3,274.6l1,0.1c-0.1,0.7-0.4,1.3-0.9,1.7c-0.5,0.4-1.1,0.6-1.7,0.6
			c-0.9,0-1.5-0.3-2.1-0.8c-0.5-0.6-0.8-1.4-0.8-2.4c0-0.7,0.1-1.3,0.3-1.8c0.2-0.5,0.6-0.9,1-1.1c0.5-0.3,1-0.4,1.5-0.4
			c0.7,0,1.2,0.2,1.7,0.5c0.4,0.3,0.7,0.8,0.8,1.5l-1,0.2c-0.1-0.4-0.3-0.7-0.5-1c-0.3-0.2-0.6-0.3-0.9-0.3c-0.5,0-1,0.2-1.3,0.6
			c-0.3,0.4-0.5,1-0.5,1.8c0,0.8,0.2,1.5,0.5,1.8c0.3,0.4,0.7,0.6,1.3,0.6c0.4,0,0.8-0.1,1-0.4C307,275.5,307.2,275.1,307.3,274.6z
			 M311.5,275.9l0.1,0.9c-0.3,0.1-0.6,0.1-0.8,0.1c-0.4,0-0.7-0.1-0.9-0.2c-0.2-0.1-0.4-0.3-0.4-0.5c-0.1-0.2-0.1-0.6-0.1-1.3v-3.6
			h-0.8v-0.8h0.8V269l1.1-0.6v2.2h1.1v0.8h-1.1v3.7c0,0.3,0,0.5,0,0.6c0,0.1,0.1,0.2,0.2,0.2c0.1,0.1,0.2,0.1,0.4,0.1
			C311.1,276,311.3,275.9,311.5,275.9z"/>
		<path fill="#F4CCCC" d="M180.5,289H245v39.6h-64.5V289z"/>
		<path fill="none" stroke="#000000" stroke-width="2" stroke-linejoin="round" stroke-miterlimit="10" d="M180.5,289H245v39.6
			h-64.5V289z"/>
		<path d="M189.5,313.2v-8.7h1.7l2.1,6.1c0.2,0.6,0.3,1,0.4,1.3c0.1-0.3,0.3-0.8,0.5-1.4l2.1-6h1.5v8.7h-1.1v-7.3l-2.5,7.3h-1
			l-2.5-7.4v7.4H189.5z M203.6,311.1l1.1,0.1c-0.2,0.6-0.5,1.1-1,1.5c-0.5,0.4-1.1,0.5-1.8,0.5c-0.9,0-1.6-0.3-2.2-0.8
			c-0.5-0.6-0.8-1.4-0.8-2.4c0-1.1,0.3-1.9,0.8-2.5c0.5-0.6,1.3-0.9,2.1-0.9c0.8,0,1.5,0.3,2.1,0.9c0.5,0.6,0.8,1.4,0.8,2.4
			c0,0.1,0,0.2,0,0.3H200c0,0.7,0.2,1.2,0.6,1.6c0.4,0.4,0.8,0.5,1.3,0.5c0.4,0,0.7-0.1,1-0.3C203.2,311.9,203.4,311.6,203.6,311.1z
			 M200.1,309.4h3.5c0-0.5-0.2-0.9-0.4-1.2c-0.3-0.4-0.8-0.6-1.3-0.6c-0.5,0-0.9,0.2-1.2,0.5C200.3,308.4,200.1,308.9,200.1,309.4z
			 M205.5,311.3l1.1-0.2c0.1,0.4,0.2,0.8,0.5,1c0.3,0.2,0.7,0.3,1.1,0.3c0.5,0,0.9-0.1,1.1-0.3c0.2-0.2,0.4-0.4,0.4-0.7
			c0-0.2-0.1-0.4-0.3-0.6c-0.1-0.1-0.5-0.2-1.1-0.4c-0.8-0.2-1.3-0.4-1.6-0.5c-0.3-0.1-0.5-0.3-0.7-0.6c-0.2-0.3-0.2-0.5-0.2-0.8
			c0-0.3,0.1-0.5,0.2-0.8c0.1-0.2,0.3-0.4,0.5-0.6c0.2-0.1,0.4-0.2,0.7-0.3s0.6-0.1,0.9-0.1c0.5,0,0.9,0.1,1.3,0.2
			c0.4,0.1,0.6,0.3,0.8,0.6c0.2,0.2,0.3,0.6,0.4,1l-1,0.1c0-0.3-0.2-0.6-0.4-0.7c-0.2-0.2-0.5-0.3-1-0.3c-0.5,0-0.8,0.1-1,0.2
			c-0.2,0.2-0.3,0.3-0.3,0.6c0,0.1,0,0.3,0.1,0.4c0.1,0.1,0.2,0.2,0.4,0.3c0.1,0,0.4,0.1,0.9,0.3c0.8,0.2,1.3,0.4,1.6,0.5
			c0.3,0.1,0.5,0.3,0.7,0.6c0.2,0.2,0.3,0.6,0.3,0.9c0,0.4-0.1,0.7-0.3,1c-0.2,0.3-0.5,0.6-0.9,0.7c-0.4,0.2-0.8,0.2-1.3,0.2
			c-0.8,0-1.4-0.2-1.9-0.5C205.9,312.5,205.6,312,205.5,311.3z M211.4,311.3l1.1-0.2c0.1,0.4,0.2,0.8,0.5,1c0.3,0.2,0.7,0.3,1.1,0.3
			c0.5,0,0.9-0.1,1.1-0.3c0.2-0.2,0.4-0.4,0.4-0.7c0-0.2-0.1-0.4-0.3-0.6c-0.1-0.1-0.5-0.2-1.1-0.4c-0.8-0.2-1.3-0.4-1.6-0.5
			c-0.3-0.1-0.5-0.3-0.7-0.6c-0.2-0.3-0.2-0.5-0.2-0.8c0-0.3,0.1-0.5,0.2-0.8c0.1-0.2,0.3-0.4,0.5-0.6c0.2-0.1,0.4-0.2,0.7-0.3
			s0.6-0.1,0.9-0.1c0.5,0,0.9,0.1,1.3,0.2c0.4,0.1,0.6,0.3,0.8,0.6c0.2,0.2,0.3,0.6,0.4,1l-1,0.1c0-0.3-0.2-0.6-0.4-0.7
			c-0.2-0.2-0.5-0.3-1-0.3c-0.5,0-0.8,0.1-1,0.2c-0.2,0.2-0.3,0.3-0.3,0.6c0,0.1,0,0.3,0.1,0.4c0.1,0.1,0.2,0.2,0.4,0.3
			c0.1,0,0.4,0.1,0.9,0.3c0.8,0.2,1.3,0.4,1.6,0.5c0.3,0.1,0.5,0.3,0.7,0.6c0.2,0.2,0.3,0.6,0.3,0.9c0,0.4-0.1,0.7-0.3,1
			c-0.2,0.3-0.5,0.6-0.9,0.7c-0.4,0.2-0.8,0.2-1.3,0.2c-0.8,0-1.4-0.2-1.9-0.5C211.8,312.5,211.5,312,211.4,311.3z M221.9,312.4
			c-0.4,0.3-0.8,0.6-1.1,0.7c-0.4,0.1-0.8,0.2-1.2,0.2c-0.7,0-1.2-0.2-1.6-0.5c-0.4-0.3-0.6-0.8-0.6-1.3c0-0.3,0.1-0.6,0.2-0.8
			c0.1-0.3,0.3-0.5,0.5-0.6c0.2-0.2,0.5-0.3,0.8-0.3c0.2-0.1,0.5-0.1,0.9-0.2c0.9-0.1,1.5-0.2,1.9-0.4c0-0.1,0-0.2,0-0.3
			c0-0.4-0.1-0.7-0.3-0.9c-0.3-0.2-0.7-0.4-1.2-0.4c-0.5,0-0.9,0.1-1.1,0.3c-0.2,0.2-0.4,0.5-0.5,0.9l-1-0.1
			c0.1-0.4,0.3-0.8,0.5-1.1c0.2-0.3,0.5-0.5,0.9-0.6c0.4-0.2,0.9-0.2,1.4-0.2c0.5,0,1,0.1,1.3,0.2c0.3,0.1,0.6,0.3,0.7,0.5
			c0.2,0.2,0.3,0.4,0.3,0.7c0,0.2,0.1,0.5,0.1,1v1.4c0,1,0,1.6,0.1,1.9c0,0.3,0.1,0.5,0.3,0.7h-1.1
			C222,312.9,221.9,312.7,221.9,312.4z M221.8,310c-0.4,0.2-1,0.3-1.7,0.4c-0.4,0.1-0.7,0.1-0.9,0.2c-0.2,0.1-0.3,0.2-0.4,0.3
			c-0.1,0.2-0.1,0.3-0.1,0.5c0,0.3,0.1,0.5,0.3,0.7c0.2,0.2,0.5,0.3,0.9,0.3c0.4,0,0.8-0.1,1.1-0.3c0.3-0.2,0.6-0.4,0.7-0.7
			c0.1-0.2,0.2-0.6,0.2-1.1V310z M224.2,313.7l1,0.2c0,0.3,0.2,0.6,0.4,0.7c0.3,0.2,0.6,0.3,1.1,0.3c0.5,0,0.9-0.1,1.1-0.3
			c0.3-0.2,0.4-0.5,0.5-0.8c0.1-0.2,0.1-0.7,0.1-1.4c-0.5,0.6-1,0.8-1.7,0.8c-0.9,0-1.5-0.3-2-0.9c-0.5-0.6-0.7-1.4-0.7-2.2
			c0-0.6,0.1-1.1,0.3-1.7c0.2-0.5,0.5-0.9,0.9-1.2c0.4-0.3,0.9-0.4,1.4-0.4c0.7,0,1.4,0.3,1.8,0.9v-0.8h1v5.4c0,1-0.1,1.7-0.3,2.1
			c-0.2,0.4-0.5,0.7-0.9,1c-0.4,0.2-1,0.4-1.6,0.4c-0.8,0-1.4-0.2-1.8-0.5C224.4,314.9,224.2,314.4,224.2,313.7z M225.1,309.9
			c0,0.8,0.2,1.4,0.5,1.8c0.3,0.4,0.7,0.6,1.2,0.6c0.5,0,0.9-0.2,1.2-0.6c0.3-0.4,0.5-1,0.5-1.8c0-0.8-0.2-1.3-0.5-1.7
			c-0.3-0.4-0.7-0.6-1.2-0.6c-0.5,0-0.9,0.2-1.2,0.6C225.3,308.6,225.1,309.1,225.1,309.9z M235.3,311.1l1.1,0.1
			c-0.2,0.6-0.5,1.1-1,1.5c-0.5,0.4-1.1,0.5-1.8,0.5c-0.9,0-1.6-0.3-2.2-0.8c-0.5-0.6-0.8-1.4-0.8-2.4c0-1.1,0.3-1.9,0.8-2.5
			c0.5-0.6,1.3-0.9,2.1-0.9c0.8,0,1.5,0.3,2.1,0.9s0.8,1.4,0.8,2.4c0,0.1,0,0.2,0,0.3h-4.7c0,0.7,0.2,1.2,0.6,1.6
			c0.4,0.4,0.8,0.5,1.3,0.5c0.4,0,0.7-0.1,1-0.3C234.9,311.9,235.2,311.6,235.3,311.1z M231.8,309.4h3.5c0-0.5-0.2-0.9-0.4-1.2
			c-0.3-0.4-0.8-0.6-1.3-0.6c-0.5,0-0.9,0.2-1.2,0.5C232,308.4,231.9,308.9,231.8,309.4z"/>
		<path fill="#F4CCCC" d="M259.6,289h64.5v39.6h-64.5V289z"/>
		<path fill="none" stroke="#000000" stroke-width="2" stroke-linejoin="round" stroke-miterlimit="10" d="M259.6,289h64.5v39.6
			h-64.5V289z"/>
		<path d="M268.6,313.2v-8.7h1.7l2.1,6.1c0.2,0.6,0.3,1,0.4,1.3c0.1-0.3,0.3-0.8,0.5-1.4l2.1-6h1.5v8.7h-1.1v-7.3l-2.5,7.3h-1
			l-2.5-7.4v7.4H268.6z M282.7,311.1l1.1,0.1c-0.2,0.6-0.5,1.1-1,1.5c-0.5,0.4-1.1,0.5-1.8,0.5c-0.9,0-1.6-0.3-2.2-0.8
			c-0.5-0.6-0.8-1.4-0.8-2.4c0-1.1,0.3-1.9,0.8-2.5c0.5-0.6,1.3-0.9,2.1-0.9c0.8,0,1.5,0.3,2.1,0.9c0.5,0.6,0.8,1.4,0.8,2.4
			c0,0.1,0,0.2,0,0.3h-4.7c0,0.7,0.2,1.2,0.6,1.6c0.4,0.4,0.8,0.5,1.3,0.5c0.4,0,0.7-0.1,1-0.3C282.3,311.9,282.5,311.6,282.7,311.1
			z M279.2,309.4h3.5c0-0.5-0.2-0.9-0.4-1.2c-0.3-0.4-0.8-0.6-1.3-0.6c-0.5,0-0.9,0.2-1.2,0.5C279.4,308.4,279.2,308.9,279.2,309.4z
			 M284.6,311.3l1.1-0.2c0.1,0.4,0.2,0.8,0.5,1c0.3,0.2,0.7,0.3,1.1,0.3c0.5,0,0.9-0.1,1.1-0.3c0.2-0.2,0.4-0.4,0.4-0.7
			c0-0.2-0.1-0.4-0.3-0.6c-0.1-0.1-0.5-0.2-1.1-0.4c-0.8-0.2-1.3-0.4-1.6-0.5c-0.3-0.1-0.5-0.3-0.7-0.6c-0.2-0.3-0.2-0.5-0.2-0.8
			c0-0.3,0.1-0.5,0.2-0.8c0.1-0.2,0.3-0.4,0.5-0.6c0.2-0.1,0.4-0.2,0.7-0.3s0.6-0.1,0.9-0.1c0.5,0,0.9,0.1,1.3,0.2
			c0.4,0.1,0.6,0.3,0.8,0.6c0.2,0.2,0.3,0.6,0.4,1l-1,0.1c0-0.3-0.2-0.6-0.4-0.7c-0.2-0.2-0.5-0.3-1-0.3c-0.5,0-0.8,0.1-1,0.2
			c-0.2,0.2-0.3,0.3-0.3,0.6c0,0.1,0,0.3,0.1,0.4c0.1,0.1,0.2,0.2,0.4,0.3c0.1,0,0.4,0.1,0.9,0.3c0.8,0.2,1.3,0.4,1.6,0.5
			c0.3,0.1,0.5,0.3,0.7,0.6c0.2,0.2,0.3,0.6,0.3,0.9c0,0.4-0.1,0.7-0.3,1c-0.2,0.3-0.5,0.6-0.9,0.7c-0.4,0.2-0.8,0.2-1.3,0.2
			c-0.8,0-1.4-0.2-1.9-0.5C285,312.5,284.7,312,284.6,311.3z M290.5,311.3l1.1-0.2c0.1,0.4,0.2,0.8,0.5,1c0.3,0.2,0.7,0.3,1.1,0.3
			c0.5,0,0.9-0.1,1.1-0.3c0.2-0.2,0.4-0.4,0.4-0.7c0-0.2-0.1-0.4-0.3-0.6c-0.1-0.1-0.5-0.2-1.1-0.4c-0.8-0.2-1.3-0.4-1.6-0.5
			c-0.3-0.1-0.5-0.3-0.7-0.6c-0.2-0.3-0.2-0.5-0.2-0.8c0-0.3,0.1-0.5,0.2-0.8c0.1-0.2,0.3-0.4,0.5-0.6c0.2-0.1,0.4-0.2,0.7-0.3
			c0.3-0.1,0.6-0.1,0.9-0.1c0.5,0,0.9,0.1,1.3,0.2c0.4,0.1,0.6,0.3,0.8,0.6c0.2,0.2,0.3,0.6,0.4,1l-1,0.1c0-0.3-0.2-0.6-0.4-0.7
			c-0.2-0.2-0.5-0.3-1-0.3c-0.5,0-0.8,0.1-1,0.2c-0.2,0.2-0.3,0.3-0.3,0.6c0,0.1,0,0.3,0.1,0.4c0.1,0.1,0.2,0.2,0.4,0.3
			c0.1,0,0.4,0.1,0.9,0.3c0.8,0.2,1.3,0.4,1.6,0.5c0.3,0.1,0.5,0.3,0.7,0.6c0.2,0.2,0.3,0.6,0.3,0.9c0,0.4-0.1,0.7-0.3,1
			c-0.2,0.3-0.5,0.6-0.9,0.7c-0.4,0.2-0.8,0.2-1.3,0.2c-0.8,0-1.4-0.2-1.9-0.5C290.9,312.5,290.6,312,290.5,311.3z M301,312.4
			c-0.4,0.3-0.8,0.6-1.1,0.7c-0.4,0.1-0.8,0.2-1.2,0.2c-0.7,0-1.2-0.2-1.6-0.5c-0.4-0.3-0.6-0.8-0.6-1.3c0-0.3,0.1-0.6,0.2-0.8
			c0.1-0.3,0.3-0.5,0.5-0.6c0.2-0.2,0.5-0.3,0.8-0.3c0.2-0.1,0.5-0.1,0.9-0.2c0.9-0.1,1.5-0.2,1.9-0.4c0-0.1,0-0.2,0-0.3
			c0-0.4-0.1-0.7-0.3-0.9c-0.3-0.2-0.7-0.4-1.2-0.4c-0.5,0-0.9,0.1-1.1,0.3c-0.2,0.2-0.4,0.5-0.5,0.9l-1-0.1
			c0.1-0.4,0.3-0.8,0.5-1.1c0.2-0.3,0.5-0.5,0.9-0.6c0.4-0.2,0.9-0.2,1.4-0.2c0.5,0,1,0.1,1.3,0.2c0.3,0.1,0.6,0.3,0.7,0.5
			c0.2,0.2,0.3,0.4,0.3,0.7c0,0.2,0.1,0.5,0.1,1v1.4c0,1,0,1.6,0.1,1.9c0,0.3,0.1,0.5,0.3,0.7h-1.1C301.1,312.9,301,312.7,301,312.4
			z M300.9,310c-0.4,0.2-1,0.3-1.7,0.4c-0.4,0.1-0.7,0.1-0.9,0.2c-0.2,0.1-0.3,0.2-0.4,0.3c-0.1,0.2-0.1,0.3-0.1,0.5
			c0,0.3,0.1,0.5,0.3,0.7c0.2,0.2,0.5,0.3,0.9,0.3c0.4,0,0.8-0.1,1.1-0.3c0.3-0.2,0.6-0.4,0.7-0.7c0.1-0.2,0.2-0.6,0.2-1.1V310z
			 M303.3,313.7l1,0.2c0,0.3,0.2,0.6,0.4,0.7c0.3,0.2,0.6,0.3,1.1,0.3c0.5,0,0.9-0.1,1.1-0.3c0.3-0.2,0.4-0.5,0.5-0.8
			c0.1-0.2,0.1-0.7,0.1-1.4c-0.5,0.6-1,0.8-1.7,0.8c-0.9,0-1.5-0.3-2-0.9c-0.5-0.6-0.7-1.4-0.7-2.2c0-0.6,0.1-1.1,0.3-1.7
			c0.2-0.5,0.5-0.9,0.9-1.2c0.4-0.3,0.9-0.4,1.4-0.4c0.7,0,1.4,0.3,1.8,0.9v-0.8h1v5.4c0,1-0.1,1.7-0.3,2.1c-0.2,0.4-0.5,0.7-0.9,1
			c-0.4,0.2-1,0.4-1.6,0.4c-0.8,0-1.4-0.2-1.8-0.5C303.5,314.9,303.3,314.4,303.3,313.7z M304.2,309.9c0,0.8,0.2,1.4,0.5,1.8
			c0.3,0.4,0.7,0.6,1.2,0.6c0.5,0,0.9-0.2,1.2-0.6c0.3-0.4,0.5-1,0.5-1.8c0-0.8-0.2-1.3-0.5-1.7c-0.3-0.4-0.7-0.6-1.2-0.6
			c-0.5,0-0.9,0.2-1.2,0.6C304.4,308.6,304.2,309.1,304.2,309.9z M314.4,311.1l1.1,0.1c-0.2,0.6-0.5,1.1-1,1.5
			c-0.5,0.4-1.1,0.5-1.8,0.5c-0.9,0-1.6-0.3-2.2-0.8c-0.5-0.6-0.8-1.4-0.8-2.4c0-1.1,0.3-1.9,0.8-2.5c0.5-0.6,1.3-0.9,2.1-0.9
			c0.8,0,1.5,0.3,2.1,0.9s0.8,1.4,0.8,2.4c0,0.1,0,0.2,0,0.3h-4.7c0,0.7,0.2,1.2,0.6,1.6s0.8,0.5,1.3,0.5c0.4,0,0.7-0.1,1-0.3
			C314,311.9,314.3,311.6,314.4,311.1z M310.9,309.4h3.5c0-0.5-0.2-0.9-0.4-1.2c-0.3-0.4-0.8-0.6-1.3-0.6c-0.5,0-0.9,0.2-1.2,0.5
			C311.2,308.4,311,308.9,310.9,309.4z"/>
		<path fill="#F4CCCC" d="M338.7,289h64.5v39.6h-64.5V289z"/>
		<path fill="none" stroke="#000000" stroke-width="2" stroke-linejoin="round" stroke-miterlimit="10" d="M338.7,289h64.5v39.6
			h-64.5V289z"/>
		<path d="M363.3,313.2v-8.7h3.3c0.6,0,1,0,1.3,0.1c0.4,0.1,0.8,0.2,1.1,0.4s0.5,0.5,0.7,0.8c0.2,0.4,0.3,0.8,0.3,1.2
			c0,0.7-0.2,1.4-0.7,1.9c-0.5,0.5-1.3,0.8-2.5,0.8h-2.2v3.5H363.3z M364.4,308.6h2.2c0.7,0,1.3-0.1,1.6-0.4
			c0.3-0.3,0.5-0.7,0.5-1.2c0-0.4-0.1-0.7-0.3-0.9c-0.2-0.3-0.4-0.4-0.7-0.5c-0.2-0.1-0.5-0.1-1.1-0.1h-2.2V308.6z M371.1,305.7
			v-1.2h1.1v1.2H371.1z M371.1,313.2v-6.3h1.1v6.3H371.1z M373.7,313.2v-6.3h1v0.9c0.5-0.7,1.1-1,2-1c0.4,0,0.7,0.1,1,0.2
			c0.3,0.1,0.6,0.3,0.7,0.5c0.2,0.2,0.3,0.5,0.3,0.8c0,0.2,0.1,0.5,0.1,1v3.9h-1.1v-3.8c0-0.4,0-0.8-0.1-1c-0.1-0.2-0.2-0.4-0.4-0.5
			c-0.2-0.1-0.5-0.2-0.7-0.2c-0.5,0-0.8,0.1-1.2,0.4c-0.3,0.3-0.5,0.8-0.5,1.6v3.4H373.7z"/>
		<path fill-opacity="0" d="M129.5,259.7l41.2,39.6"/>
		<path fill="none" stroke="#000000" stroke-width="2" stroke-linejoin="round" stroke-miterlimit="10" d="M129.5,259.7l35.7,34.3"
			/>
		<path stroke="#000000" stroke-width="2" stroke-miterlimit="10" d="M163.7,295.5l5.6,2.5l-2.7-5.5L163.7,295.5z"/>
		<path fill="#D9EAD3" d="M56.9,245.9h72.6v27.6H56.9V245.9z"/>
		<path fill="none" stroke="#000000" stroke-width="2" stroke-linejoin="round" stroke-miterlimit="10" d="M56.9,245.9h72.6v27.6
			H56.9V245.9z"/>
		<path d="M64.2,261.5l0.7-0.1c0,0.3,0.2,0.5,0.3,0.7c0.2,0.2,0.4,0.2,0.8,0.2s0.6-0.1,0.7-0.2c0.2-0.1,0.2-0.3,0.2-0.5
			c0-0.2-0.1-0.3-0.2-0.4c-0.1-0.1-0.3-0.1-0.7-0.2c-0.5-0.1-0.9-0.2-1.1-0.3c-0.2-0.1-0.4-0.2-0.5-0.4c-0.1-0.2-0.2-0.4-0.2-0.6
			c0-0.2,0-0.4,0.1-0.5c0.1-0.2,0.2-0.3,0.4-0.4c0.1-0.1,0.3-0.2,0.5-0.2c0.2-0.1,0.4-0.1,0.6-0.1c0.3,0,0.6,0,0.9,0.1
			c0.3,0.1,0.4,0.2,0.6,0.4c0.1,0.2,0.2,0.4,0.3,0.7l-0.7,0.1c0-0.2-0.1-0.4-0.3-0.5c-0.2-0.1-0.4-0.2-0.7-0.2
			c-0.3,0-0.6,0.1-0.7,0.2c-0.1,0.1-0.2,0.2-0.2,0.4c0,0.1,0,0.2,0.1,0.2c0.1,0.1,0.2,0.1,0.3,0.2c0.1,0,0.3,0.1,0.6,0.2
			c0.5,0.1,0.9,0.3,1.1,0.3c0.2,0.1,0.4,0.2,0.5,0.4c0.1,0.2,0.2,0.4,0.2,0.6c0,0.2-0.1,0.5-0.2,0.7c-0.1,0.2-0.3,0.4-0.6,0.5
			c-0.3,0.1-0.6,0.2-0.9,0.2c-0.6,0-1-0.1-1.3-0.3C64.5,262.3,64.3,261.9,64.2,261.5z M71.7,261.4l0.8,0.1c-0.1,0.4-0.3,0.8-0.7,1
			c-0.3,0.2-0.7,0.4-1.2,0.4c-0.6,0-1.1-0.2-1.5-0.6c-0.4-0.4-0.5-0.9-0.5-1.6c0-0.7,0.2-1.3,0.6-1.7c0.4-0.4,0.9-0.6,1.5-0.6
			c0.6,0,1,0.2,1.4,0.6c0.4,0.4,0.5,0.9,0.5,1.6c0,0,0,0.1,0,0.2h-3.2c0,0.5,0.2,0.8,0.4,1.1c0.2,0.3,0.5,0.4,0.9,0.4
			c0.3,0,0.5-0.1,0.7-0.2C71.4,261.9,71.6,261.7,71.7,261.4z M69.3,260.2h2.4c0-0.4-0.1-0.6-0.3-0.8c-0.2-0.3-0.5-0.4-0.9-0.4
			c-0.3,0-0.6,0.1-0.8,0.3C69.4,259.5,69.3,259.8,69.3,260.2z M73.5,262.8v-4.3h0.7v0.6c0.3-0.5,0.8-0.7,1.4-0.7
			c0.3,0,0.5,0,0.7,0.1c0.2,0.1,0.4,0.2,0.5,0.4c0.1,0.1,0.2,0.3,0.2,0.5c0,0.1,0,0.4,0,0.7v2.6h-0.7v-2.6c0-0.3,0-0.5-0.1-0.7
			c-0.1-0.1-0.2-0.3-0.3-0.3c-0.1-0.1-0.3-0.1-0.5-0.1c-0.3,0-0.6,0.1-0.8,0.3c-0.2,0.2-0.3,0.6-0.3,1.1v2.4H73.5z M81,262.8v-0.5
			c-0.3,0.4-0.7,0.6-1.2,0.6c-0.3,0-0.7-0.1-0.9-0.3c-0.3-0.2-0.5-0.5-0.7-0.8c-0.2-0.3-0.2-0.7-0.2-1.2c0-0.4,0.1-0.8,0.2-1.2
			c0.1-0.4,0.4-0.6,0.6-0.8c0.3-0.2,0.6-0.3,1-0.3c0.3,0,0.5,0.1,0.7,0.2c0.2,0.1,0.4,0.2,0.5,0.4v-2.1h0.7v5.9H81z M78.7,260.6
			c0,0.6,0.1,1,0.3,1.2c0.2,0.3,0.5,0.4,0.8,0.4c0.3,0,0.6-0.1,0.8-0.4c0.2-0.3,0.3-0.7,0.3-1.2c0-0.6-0.1-1-0.3-1.3
			c-0.2-0.3-0.5-0.4-0.8-0.4c-0.3,0-0.6,0.1-0.8,0.4C78.8,259.6,78.7,260.1,78.7,260.6z M83,262.8v-5.9h1.2l1.4,4.2
			c0.1,0.4,0.2,0.7,0.3,0.9c0.1-0.2,0.2-0.5,0.3-0.9l1.4-4.1h1.1v5.9h-0.8v-5l-1.7,5h-0.7l-1.7-5.1v5.1H83z M92.9,261.4l0.8,0.1
			c-0.1,0.4-0.3,0.8-0.7,1c-0.3,0.2-0.7,0.4-1.2,0.4c-0.6,0-1.1-0.2-1.5-0.6c-0.4-0.4-0.5-0.9-0.5-1.6c0-0.7,0.2-1.3,0.6-1.7
			c0.4-0.4,0.9-0.6,1.5-0.6c0.6,0,1,0.2,1.4,0.6c0.4,0.4,0.5,0.9,0.5,1.6c0,0,0,0.1,0,0.2h-3.2c0,0.5,0.2,0.8,0.4,1.1
			c0.2,0.3,0.5,0.4,0.9,0.4c0.3,0,0.5-0.1,0.7-0.2C92.7,261.9,92.8,261.7,92.9,261.4z M90.5,260.2h2.4c0-0.4-0.1-0.6-0.3-0.8
			c-0.2-0.3-0.5-0.4-0.9-0.4c-0.3,0-0.6,0.1-0.8,0.3C90.7,259.5,90.6,259.8,90.5,260.2z M94.4,261.5l0.7-0.1c0,0.3,0.2,0.5,0.3,0.7
			c0.2,0.2,0.4,0.2,0.8,0.2c0.3,0,0.6-0.1,0.7-0.2c0.2-0.1,0.2-0.3,0.2-0.5c0-0.2-0.1-0.3-0.2-0.4c-0.1-0.1-0.3-0.1-0.7-0.2
			c-0.5-0.1-0.9-0.2-1.1-0.3c-0.2-0.1-0.4-0.2-0.5-0.4c-0.1-0.2-0.2-0.4-0.2-0.6c0-0.2,0-0.4,0.1-0.5c0.1-0.2,0.2-0.3,0.4-0.4
			c0.1-0.1,0.3-0.2,0.5-0.2c0.2-0.1,0.4-0.1,0.6-0.1c0.3,0,0.6,0,0.9,0.1c0.3,0.1,0.4,0.2,0.6,0.4c0.1,0.2,0.2,0.4,0.3,0.7l-0.7,0.1
			c0-0.2-0.1-0.4-0.3-0.5c-0.2-0.1-0.4-0.2-0.7-0.2c-0.3,0-0.6,0.1-0.7,0.2c-0.1,0.1-0.2,0.2-0.2,0.4c0,0.1,0,0.2,0.1,0.2
			c0.1,0.1,0.2,0.1,0.3,0.2c0.1,0,0.3,0.1,0.6,0.2c0.5,0.1,0.9,0.3,1.1,0.3c0.2,0.1,0.4,0.2,0.5,0.4c0.1,0.2,0.2,0.4,0.2,0.6
			c0,0.2-0.1,0.5-0.2,0.7c-0.1,0.2-0.3,0.4-0.6,0.5c-0.3,0.1-0.6,0.2-0.9,0.2c-0.6,0-1-0.1-1.3-0.3S94.5,261.9,94.4,261.5z
			 M98.7,261.5l0.7-0.1c0,0.3,0.2,0.5,0.3,0.7c0.2,0.2,0.4,0.2,0.8,0.2c0.3,0,0.6-0.1,0.7-0.2c0.2-0.1,0.2-0.3,0.2-0.5
			c0-0.2-0.1-0.3-0.2-0.4c-0.1-0.1-0.3-0.1-0.7-0.2c-0.5-0.1-0.9-0.2-1.1-0.3s-0.4-0.2-0.5-0.4c-0.1-0.2-0.2-0.4-0.2-0.6
			c0-0.2,0-0.4,0.1-0.5c0.1-0.2,0.2-0.3,0.4-0.4c0.1-0.1,0.3-0.2,0.5-0.2c0.2-0.1,0.4-0.1,0.6-0.1c0.3,0,0.6,0,0.9,0.1
			c0.3,0.1,0.4,0.2,0.6,0.4c0.1,0.2,0.2,0.4,0.3,0.7l-0.7,0.1c0-0.2-0.1-0.4-0.3-0.5c-0.2-0.1-0.4-0.2-0.7-0.2
			c-0.3,0-0.6,0.1-0.7,0.2c-0.1,0.1-0.2,0.2-0.2,0.4c0,0.1,0,0.2,0.1,0.2c0.1,0.1,0.2,0.1,0.3,0.2c0.1,0,0.3,0.1,0.6,0.2
			c0.5,0.1,0.9,0.3,1.1,0.3c0.2,0.1,0.4,0.2,0.5,0.4c0.1,0.2,0.2,0.4,0.2,0.6c0,0.2-0.1,0.5-0.2,0.7c-0.1,0.2-0.3,0.4-0.6,0.5
			c-0.3,0.1-0.6,0.2-0.9,0.2c-0.6,0-1-0.1-1.3-0.3C98.9,262.3,98.8,261.9,98.7,261.5z M106,262.2c-0.3,0.2-0.5,0.4-0.8,0.5
			c-0.2,0.1-0.5,0.1-0.8,0.1c-0.5,0-0.8-0.1-1.1-0.3c-0.3-0.2-0.4-0.5-0.4-0.9c0-0.2,0-0.4,0.1-0.6c0.1-0.2,0.2-0.3,0.4-0.4
			c0.2-0.1,0.3-0.2,0.5-0.2c0.1,0,0.4-0.1,0.6-0.1c0.6-0.1,1-0.1,1.3-0.2c0-0.1,0-0.2,0-0.2c0-0.3-0.1-0.5-0.2-0.6
			c-0.2-0.2-0.5-0.2-0.8-0.2c-0.3,0-0.6,0.1-0.8,0.2c-0.2,0.1-0.3,0.3-0.4,0.6l-0.7-0.1c0.1-0.3,0.2-0.6,0.3-0.7
			c0.2-0.2,0.4-0.3,0.6-0.4c0.3-0.1,0.6-0.1,1-0.1c0.4,0,0.7,0,0.9,0.1c0.2,0.1,0.4,0.2,0.5,0.3c0.1,0.1,0.2,0.3,0.2,0.5
			c0,0.1,0,0.4,0,0.7v1c0,0.7,0,1.1,0,1.3s0.1,0.4,0.2,0.5h-0.8C106.1,262.6,106,262.4,106,262.2z M105.9,260.6
			c-0.3,0.1-0.7,0.2-1.2,0.3c-0.3,0-0.5,0.1-0.6,0.1c-0.1,0.1-0.2,0.1-0.3,0.2c-0.1,0.1-0.1,0.2-0.1,0.3c0,0.2,0.1,0.4,0.2,0.5
			c0.1,0.1,0.4,0.2,0.6,0.2c0.3,0,0.5-0.1,0.7-0.2c0.2-0.1,0.4-0.3,0.5-0.5c0.1-0.2,0.1-0.4,0.1-0.7V260.6z M107.8,263.1l0.7,0.1
			c0,0.2,0.1,0.4,0.2,0.5c0.2,0.1,0.4,0.2,0.7,0.2c0.3,0,0.6-0.1,0.8-0.2c0.2-0.1,0.3-0.3,0.4-0.6c0-0.1,0.1-0.5,0.1-0.9
			c-0.3,0.4-0.7,0.6-1.2,0.6c-0.6,0-1-0.2-1.4-0.6c-0.3-0.4-0.5-0.9-0.5-1.5c0-0.4,0.1-0.8,0.2-1.1c0.2-0.3,0.4-0.6,0.6-0.8
			c0.3-0.2,0.6-0.3,1-0.3c0.5,0,0.9,0.2,1.3,0.6v-0.5h0.7v3.7c0,0.7-0.1,1.1-0.2,1.4c-0.1,0.3-0.3,0.5-0.6,0.7
			c-0.3,0.2-0.7,0.2-1.1,0.2c-0.5,0-0.9-0.1-1.2-0.3C107.9,263.9,107.8,263.6,107.8,263.1z M108.4,260.5c0,0.6,0.1,1,0.3,1.2
			c0.2,0.3,0.5,0.4,0.8,0.4c0.3,0,0.6-0.1,0.8-0.4c0.2-0.3,0.3-0.7,0.3-1.2c0-0.5-0.1-0.9-0.3-1.2c-0.2-0.3-0.5-0.4-0.8-0.4
			c-0.3,0-0.6,0.1-0.8,0.4S108.4,260,108.4,260.5z M115.6,261.4l0.8,0.1c-0.1,0.4-0.3,0.8-0.7,1c-0.3,0.2-0.7,0.4-1.2,0.4
			c-0.6,0-1.1-0.2-1.5-0.6c-0.4-0.4-0.5-0.9-0.5-1.6c0-0.7,0.2-1.3,0.6-1.7c0.4-0.4,0.9-0.6,1.5-0.6c0.6,0,1,0.2,1.4,0.6
			c0.4,0.4,0.5,0.9,0.5,1.6c0,0,0,0.1,0,0.2h-3.2c0,0.5,0.2,0.8,0.4,1.1c0.2,0.3,0.5,0.4,0.9,0.4c0.3,0,0.5-0.1,0.7-0.2
			C115.3,261.9,115.5,261.7,115.6,261.4z M113.2,260.2h2.4c0-0.4-0.1-0.6-0.3-0.8c-0.2-0.3-0.5-0.4-0.9-0.4c-0.3,0-0.6,0.1-0.8,0.3
			C113.4,259.5,113.2,259.8,113.2,260.2z M118.8,264.5c-0.4-0.5-0.7-1.1-1-1.8c-0.3-0.7-0.4-1.4-0.4-2.1c0-0.6,0.1-1.3,0.3-1.8
			c0.2-0.7,0.6-1.4,1.1-2h0.5c-0.3,0.6-0.5,1-0.6,1.2c-0.2,0.4-0.3,0.8-0.4,1.2c-0.1,0.5-0.2,1-0.2,1.5c0,1.3,0.4,2.6,1.2,3.9H118.8
			z M120.7,264.5h-0.5c0.8-1.3,1.2-2.6,1.2-3.9c0-0.5-0.1-1-0.2-1.5c-0.1-0.4-0.2-0.8-0.4-1.2c-0.1-0.2-0.3-0.6-0.7-1.2h0.5
			c0.5,0.7,0.9,1.4,1.1,2c0.2,0.6,0.3,1.2,0.3,1.8c0,0.7-0.1,1.4-0.4,2.1C121.4,263.4,121.1,264,120.7,264.5z"/>
		<path fill="#D9D2E9" d="M340.3,373.4h72.6V401h-72.6V373.4z"/>
		<path fill="none" stroke="#000000" stroke-width="2" stroke-linejoin="round" stroke-miterlimit="10" d="M340.3,373.4h72.6V401
			h-72.6V373.4z"/>
		<path d="M354.9,383c0-0.8,0.2-1.4,0.7-1.8c0.4-0.3,0.8-0.5,1.4-0.5c0.6,0,1.1,0.2,1.4,0.6c0.4,0.4,0.6,0.9,0.6,1.6
			c0,0.6-0.1,1-0.2,1.3c-0.2,0.3-0.4,0.6-0.7,0.7c-0.3,0.2-0.7,0.3-1,0.3c-0.6,0-1.1-0.2-1.5-0.6C355.1,384.3,354.9,383.8,354.9,383
			z M355.7,383c0,0.6,0.1,1,0.4,1.2c0.2,0.3,0.5,0.4,0.9,0.4c0.4,0,0.7-0.1,0.9-0.4c0.2-0.3,0.4-0.7,0.4-1.3c0-0.5-0.1-0.9-0.4-1.2
			c-0.2-0.3-0.5-0.4-0.9-0.4c-0.4,0-0.7,0.1-0.9,0.4C355.8,382.1,355.7,382.5,355.7,383z M359.9,385.2v-4.3h0.7v0.6
			c0.3-0.5,0.8-0.7,1.4-0.7c0.3,0,0.5,0,0.7,0.1c0.2,0.1,0.4,0.2,0.5,0.4c0.1,0.1,0.2,0.3,0.2,0.5c0,0.1,0,0.4,0,0.7v2.6h-0.7v-2.6
			c0-0.3,0-0.5-0.1-0.7c-0.1-0.1-0.2-0.3-0.3-0.3c-0.1-0.1-0.3-0.1-0.5-0.1c-0.3,0-0.6,0.1-0.8,0.3c-0.2,0.2-0.3,0.6-0.3,1.1v2.4
			H359.9z M364.7,385.2v-5.9h1.2l1.4,4.2c0.1,0.4,0.2,0.7,0.3,0.9c0.1-0.2,0.2-0.5,0.3-0.9l1.4-4.1h1.1v5.9h-0.8v-5l-1.7,5h-0.7
			l-1.7-5.1v5.1H364.7z M374.7,383.8l0.8,0.1c-0.1,0.4-0.3,0.8-0.7,1c-0.3,0.2-0.7,0.4-1.2,0.4c-0.6,0-1.1-0.2-1.5-0.6
			c-0.4-0.4-0.5-0.9-0.5-1.6c0-0.7,0.2-1.3,0.6-1.7c0.4-0.4,0.9-0.6,1.5-0.6c0.6,0,1,0.2,1.4,0.6c0.4,0.4,0.5,0.9,0.5,1.6
			c0,0,0,0.1,0,0.2h-3.2c0,0.5,0.2,0.8,0.4,1.1c0.2,0.3,0.5,0.4,0.9,0.4c0.3,0,0.5-0.1,0.7-0.2C374.4,384.3,374.6,384.1,374.7,383.8
			z M372.3,382.6h2.4c0-0.4-0.1-0.6-0.3-0.8c-0.2-0.3-0.5-0.4-0.9-0.4c-0.3,0-0.6,0.1-0.8,0.3C372.4,381.9,372.3,382.2,372.3,382.6z
			 M376.2,383.9l0.7-0.1c0,0.3,0.2,0.5,0.3,0.7c0.2,0.2,0.4,0.2,0.8,0.2c0.3,0,0.6-0.1,0.7-0.2c0.2-0.1,0.2-0.3,0.2-0.5
			c0-0.2-0.1-0.3-0.2-0.4c-0.1-0.1-0.3-0.1-0.7-0.2c-0.5-0.1-0.9-0.2-1.1-0.3c-0.2-0.1-0.4-0.2-0.5-0.4c-0.1-0.2-0.2-0.4-0.2-0.6
			c0-0.2,0-0.4,0.1-0.5c0.1-0.2,0.2-0.3,0.4-0.4c0.1-0.1,0.3-0.2,0.5-0.2c0.2-0.1,0.4-0.1,0.6-0.1c0.3,0,0.6,0,0.9,0.1
			c0.3,0.1,0.4,0.2,0.6,0.4c0.1,0.2,0.2,0.4,0.3,0.7l-0.7,0.1c0-0.2-0.1-0.4-0.3-0.5c-0.2-0.1-0.4-0.2-0.7-0.2
			c-0.3,0-0.6,0.1-0.7,0.2c-0.1,0.1-0.2,0.2-0.2,0.4c0,0.1,0,0.2,0.1,0.2c0.1,0.1,0.2,0.1,0.3,0.2c0.1,0,0.3,0.1,0.6,0.2
			c0.5,0.1,0.9,0.3,1.1,0.3c0.2,0.1,0.4,0.2,0.5,0.4c0.1,0.2,0.2,0.4,0.2,0.6c0,0.2-0.1,0.5-0.2,0.7c-0.1,0.2-0.3,0.4-0.6,0.5
			s-0.6,0.2-0.9,0.2c-0.6,0-1-0.1-1.3-0.3C376.4,384.7,376.3,384.4,376.2,383.9z M380.4,383.9l0.7-0.1c0,0.3,0.2,0.5,0.3,0.7
			c0.2,0.2,0.4,0.2,0.8,0.2c0.3,0,0.6-0.1,0.7-0.2c0.2-0.1,0.2-0.3,0.2-0.5c0-0.2-0.1-0.3-0.2-0.4c-0.1-0.1-0.3-0.1-0.7-0.2
			c-0.5-0.1-0.9-0.2-1.1-0.3c-0.2-0.1-0.4-0.2-0.5-0.4c-0.1-0.2-0.2-0.4-0.2-0.6c0-0.2,0-0.4,0.1-0.5c0.1-0.2,0.2-0.3,0.4-0.4
			c0.1-0.1,0.3-0.2,0.5-0.2c0.2-0.1,0.4-0.1,0.6-0.1c0.3,0,0.6,0,0.9,0.1c0.3,0.1,0.4,0.2,0.6,0.4c0.1,0.2,0.2,0.4,0.3,0.7l-0.7,0.1
			c0-0.2-0.1-0.4-0.3-0.5c-0.2-0.1-0.4-0.2-0.7-0.2c-0.3,0-0.6,0.1-0.7,0.2c-0.1,0.1-0.2,0.2-0.2,0.4c0,0.1,0,0.2,0.1,0.2
			c0.1,0.1,0.2,0.1,0.3,0.2c0.1,0,0.3,0.1,0.6,0.2c0.5,0.1,0.9,0.3,1.1,0.3c0.2,0.1,0.4,0.2,0.5,0.4c0.1,0.2,0.2,0.4,0.2,0.6
			c0,0.2-0.1,0.5-0.2,0.7c-0.1,0.2-0.3,0.4-0.6,0.5c-0.3,0.1-0.6,0.2-0.9,0.2c-0.6,0-1-0.1-1.3-0.3
			C380.7,384.7,380.5,384.4,380.4,383.9z M387.8,384.7c-0.3,0.2-0.5,0.4-0.8,0.5c-0.2,0.1-0.5,0.1-0.8,0.1c-0.5,0-0.8-0.1-1.1-0.3
			c-0.3-0.2-0.4-0.5-0.4-0.9c0-0.2,0-0.4,0.1-0.6c0.1-0.2,0.2-0.3,0.4-0.4c0.2-0.1,0.3-0.2,0.5-0.2c0.1,0,0.4-0.1,0.6-0.1
			c0.6-0.1,1-0.1,1.3-0.2c0-0.1,0-0.2,0-0.2c0-0.3-0.1-0.5-0.2-0.6c-0.2-0.2-0.5-0.2-0.8-0.2c-0.3,0-0.6,0.1-0.8,0.2
			c-0.2,0.1-0.3,0.3-0.4,0.6l-0.7-0.1c0.1-0.3,0.2-0.6,0.3-0.7c0.2-0.2,0.4-0.3,0.6-0.4c0.3-0.1,0.6-0.1,1-0.1c0.4,0,0.7,0,0.9,0.1
			c0.2,0.1,0.4,0.2,0.5,0.3c0.1,0.1,0.2,0.3,0.2,0.5c0,0.1,0,0.4,0,0.7v1c0,0.7,0,1.1,0,1.3c0,0.2,0.1,0.4,0.2,0.5h-0.8
			C387.8,385,387.8,384.9,387.8,384.7z M387.7,383c-0.3,0.1-0.7,0.2-1.2,0.3c-0.3,0-0.5,0.1-0.6,0.1c-0.1,0.1-0.2,0.1-0.3,0.2
			c-0.1,0.1-0.1,0.2-0.1,0.3c0,0.2,0.1,0.4,0.2,0.5c0.1,0.1,0.4,0.2,0.6,0.2c0.3,0,0.5-0.1,0.7-0.2c0.2-0.1,0.4-0.3,0.5-0.5
			c0.1-0.2,0.1-0.4,0.1-0.7V383z M389.5,385.5l0.7,0.1c0,0.2,0.1,0.4,0.2,0.5c0.2,0.1,0.4,0.2,0.7,0.2c0.3,0,0.6-0.1,0.8-0.2
			c0.2-0.1,0.3-0.3,0.4-0.6c0-0.1,0.1-0.5,0.1-0.9c-0.3,0.4-0.7,0.6-1.2,0.6c-0.6,0-1-0.2-1.4-0.6c-0.3-0.4-0.5-0.9-0.5-1.5
			c0-0.4,0.1-0.8,0.2-1.1c0.2-0.3,0.4-0.6,0.6-0.8c0.3-0.2,0.6-0.3,1-0.3c0.5,0,0.9,0.2,1.3,0.6v-0.5h0.7v3.7c0,0.7-0.1,1.1-0.2,1.4
			c-0.1,0.3-0.3,0.5-0.6,0.7c-0.3,0.2-0.7,0.2-1.1,0.2c-0.5,0-0.9-0.1-1.2-0.3C389.7,386.4,389.5,386,389.5,385.5z M390.2,383
			c0,0.6,0.1,1,0.3,1.2c0.2,0.3,0.5,0.4,0.8,0.4c0.3,0,0.6-0.1,0.8-0.4c0.2-0.3,0.3-0.7,0.3-1.2c0-0.5-0.1-0.9-0.3-1.2
			c-0.2-0.3-0.5-0.4-0.8-0.4c-0.3,0-0.6,0.1-0.8,0.4C390.3,382.1,390.2,382.4,390.2,383z M397.3,383.8l0.8,0.1
			c-0.1,0.4-0.3,0.8-0.7,1c-0.3,0.2-0.7,0.4-1.2,0.4c-0.6,0-1.1-0.2-1.5-0.6c-0.4-0.4-0.5-0.9-0.5-1.6c0-0.7,0.2-1.3,0.6-1.7
			c0.4-0.4,0.9-0.6,1.5-0.6c0.6,0,1,0.2,1.4,0.6c0.4,0.4,0.5,0.9,0.5,1.6c0,0,0,0.1,0,0.2h-3.2c0,0.5,0.2,0.8,0.4,1.1
			c0.2,0.3,0.5,0.4,0.9,0.4c0.3,0,0.5-0.1,0.7-0.2C397.1,384.3,397.2,384.1,397.3,383.8z M395,382.6h2.4c0-0.4-0.1-0.6-0.3-0.8
			c-0.2-0.3-0.5-0.4-0.9-0.4c-0.3,0-0.6,0.1-0.8,0.3C395.1,381.9,395,382.2,395,382.6z"/>
		<path d="M364.6,393.8l0.7,0.1c-0.1,0.5-0.3,0.9-0.6,1.2s-0.7,0.4-1.2,0.4c-0.6,0-1.1-0.2-1.4-0.6c-0.4-0.4-0.5-0.9-0.5-1.7
			c0-0.5,0.1-0.9,0.2-1.2c0.2-0.4,0.4-0.6,0.7-0.8s0.7-0.3,1-0.3c0.5,0,0.8,0.1,1.1,0.4c0.3,0.2,0.5,0.6,0.6,1l-0.7,0.1
			c-0.1-0.3-0.2-0.5-0.4-0.6c-0.2-0.1-0.4-0.2-0.6-0.2c-0.4,0-0.7,0.1-0.9,0.4c-0.2,0.3-0.3,0.7-0.3,1.2c0,0.6,0.1,1,0.3,1.3
			c0.2,0.3,0.5,0.4,0.9,0.4c0.3,0,0.5-0.1,0.7-0.3C364.5,394.5,364.6,394.2,364.6,393.8z M368.9,394.9c-0.3,0.2-0.5,0.4-0.8,0.5
			c-0.2,0.1-0.5,0.1-0.8,0.1c-0.5,0-0.8-0.1-1.1-0.3c-0.3-0.2-0.4-0.5-0.4-0.9c0-0.2,0-0.4,0.1-0.6c0.1-0.2,0.2-0.3,0.4-0.4
			c0.2-0.1,0.3-0.2,0.5-0.2c0.1,0,0.4-0.1,0.6-0.1c0.6-0.1,1-0.1,1.3-0.2c0-0.1,0-0.2,0-0.2c0-0.3-0.1-0.5-0.2-0.6
			c-0.2-0.2-0.5-0.2-0.8-0.2c-0.3,0-0.6,0.1-0.8,0.2c-0.2,0.1-0.3,0.3-0.4,0.6l-0.7-0.1c0.1-0.3,0.2-0.6,0.3-0.7
			c0.2-0.2,0.4-0.3,0.6-0.4c0.3-0.1,0.6-0.1,1-0.1c0.4,0,0.7,0,0.9,0.1c0.2,0.1,0.4,0.2,0.5,0.3c0.1,0.1,0.2,0.3,0.2,0.5
			c0,0.1,0,0.4,0,0.7v1c0,0.7,0,1.1,0,1.3c0,0.2,0.1,0.4,0.2,0.5H369C368.9,395.2,368.9,395.1,368.9,394.9z M368.8,393.2
			c-0.3,0.1-0.7,0.2-1.2,0.3c-0.3,0-0.5,0.1-0.6,0.1c-0.1,0.1-0.2,0.1-0.3,0.2c-0.1,0.1-0.1,0.2-0.1,0.3c0,0.2,0.1,0.4,0.2,0.5
			c0.1,0.1,0.4,0.2,0.6,0.2c0.3,0,0.5-0.1,0.7-0.2c0.2-0.1,0.4-0.3,0.5-0.5c0.1-0.2,0.1-0.4,0.1-0.7V393.2z M370.8,395.4v-5.9h0.7
			v5.9H370.8z M372.7,395.4v-5.9h0.7v5.9H372.7z M375.2,395.4h-0.7v-5.9h0.7v2.1c0.3-0.4,0.7-0.6,1.2-0.6c0.3,0,0.5,0.1,0.7,0.2
			c0.2,0.1,0.4,0.3,0.6,0.4c0.2,0.2,0.3,0.4,0.4,0.7c0.1,0.3,0.1,0.6,0.1,0.9c0,0.7-0.2,1.3-0.5,1.7c-0.4,0.4-0.8,0.6-1.3,0.6
			c-0.5,0-0.9-0.2-1.2-0.6V395.4z M375.2,393.2c0,0.5,0.1,0.9,0.2,1.1c0.2,0.4,0.5,0.6,0.9,0.6c0.3,0,0.6-0.1,0.8-0.4
			s0.3-0.7,0.3-1.2c0-0.6-0.1-1-0.3-1.2c-0.2-0.3-0.5-0.4-0.8-0.4c-0.3,0-0.6,0.1-0.8,0.4C375.3,392.3,375.2,392.7,375.2,393.2z
			 M382.1,394.9c-0.3,0.2-0.5,0.4-0.8,0.5c-0.2,0.1-0.5,0.1-0.8,0.1c-0.5,0-0.8-0.1-1.1-0.3s-0.4-0.5-0.4-0.9c0-0.2,0-0.4,0.1-0.6
			c0.1-0.2,0.2-0.3,0.4-0.4c0.2-0.1,0.3-0.2,0.5-0.2c0.1,0,0.4-0.1,0.6-0.1c0.6-0.1,1-0.1,1.3-0.2c0-0.1,0-0.2,0-0.2
			c0-0.3-0.1-0.5-0.2-0.6c-0.2-0.2-0.5-0.2-0.8-0.2c-0.3,0-0.6,0.1-0.8,0.2c-0.2,0.1-0.3,0.3-0.4,0.6l-0.7-0.1
			c0.1-0.3,0.2-0.6,0.3-0.7c0.2-0.2,0.4-0.3,0.6-0.4c0.3-0.1,0.6-0.1,1-0.1c0.4,0,0.7,0,0.9,0.1c0.2,0.1,0.4,0.2,0.5,0.3
			c0.1,0.1,0.2,0.3,0.2,0.5c0,0.1,0,0.4,0,0.7v1c0,0.7,0,1.1,0,1.3c0,0.2,0.1,0.4,0.2,0.5h-0.8C382.2,395.2,382.1,395.1,382.1,394.9
			z M382,393.2c-0.3,0.1-0.7,0.2-1.2,0.3c-0.3,0-0.5,0.1-0.6,0.1c-0.1,0.1-0.2,0.1-0.3,0.2c-0.1,0.1-0.1,0.2-0.1,0.3
			c0,0.2,0.1,0.4,0.2,0.5c0.1,0.1,0.4,0.2,0.6,0.2c0.3,0,0.5-0.1,0.7-0.2c0.2-0.1,0.4-0.3,0.5-0.5c0.1-0.2,0.1-0.4,0.1-0.7V393.2z
			 M386.8,393.8l0.7,0.1c-0.1,0.5-0.3,0.9-0.6,1.2c-0.3,0.3-0.7,0.4-1.2,0.4c-0.6,0-1.1-0.2-1.4-0.6c-0.4-0.4-0.5-0.9-0.5-1.7
			c0-0.5,0.1-0.9,0.2-1.2c0.2-0.4,0.4-0.6,0.7-0.8c0.3-0.2,0.7-0.3,1-0.3c0.5,0,0.8,0.1,1.1,0.4c0.3,0.2,0.5,0.6,0.6,1l-0.7,0.1
			c-0.1-0.3-0.2-0.5-0.4-0.6c-0.2-0.1-0.4-0.2-0.6-0.2c-0.4,0-0.7,0.1-0.9,0.4c-0.2,0.3-0.3,0.7-0.3,1.2c0,0.6,0.1,1,0.3,1.3
			c0.2,0.3,0.5,0.4,0.9,0.4c0.3,0,0.5-0.1,0.7-0.3C386.7,394.5,386.8,394.2,386.8,393.8z M388.3,395.4v-5.9h0.7v3.4l1.7-1.7h0.9
			l-1.6,1.6l1.8,2.7h-0.9l-1.4-2.2l-0.5,0.5v1.7H388.3z"/>
		<path fill="#D9EAD3" d="M56.9,285.5h72.6v27.6H56.9V285.5z"/>
		<path fill="none" stroke="#000000" stroke-width="2" stroke-linejoin="round" stroke-miterlimit="10" d="M56.9,285.5h72.6v27.6
			H56.9V285.5z"/>
		<path d="M85.3,304V298h0.7v0.6c0.2-0.2,0.3-0.4,0.5-0.5c0.2-0.1,0.4-0.2,0.7-0.2c0.4,0,0.7,0.1,1,0.3c0.3,0.2,0.5,0.5,0.6,0.8
			c0.1,0.3,0.2,0.7,0.2,1.1c0,0.4-0.1,0.8-0.2,1.2c-0.2,0.4-0.4,0.6-0.7,0.8c-0.3,0.2-0.6,0.3-0.9,0.3c-0.2,0-0.5,0-0.6-0.1
			c-0.2-0.1-0.4-0.2-0.5-0.4v2.1H85.3z M85.9,300.2c0,0.6,0.1,1,0.3,1.2c0.2,0.3,0.5,0.4,0.8,0.4c0.3,0,0.6-0.1,0.8-0.4
			c0.2-0.3,0.3-0.7,0.3-1.3c0-0.6-0.1-1-0.3-1.2c-0.2-0.3-0.5-0.4-0.8-0.4c-0.3,0-0.6,0.1-0.8,0.4C86,299.2,85.9,299.7,85.9,300.2z
			 M90,297.2v-0.8h0.7v0.8H90z M90,302.3V298h0.7v4.3H90z M91.9,302.3V298h0.7v0.6c0.3-0.5,0.8-0.7,1.4-0.7c0.3,0,0.5,0,0.7,0.1
			c0.2,0.1,0.4,0.2,0.5,0.4c0.1,0.1,0.2,0.3,0.2,0.5c0,0.1,0,0.4,0,0.7v2.6h-0.7v-2.6c0-0.3,0-0.5-0.1-0.7c-0.1-0.1-0.2-0.3-0.3-0.3
			c-0.1-0.1-0.3-0.1-0.5-0.1c-0.3,0-0.6,0.1-0.8,0.3c-0.2,0.2-0.3,0.6-0.3,1.1v2.4H91.9z M98,304.1c-0.4-0.5-0.7-1.1-1-1.8
			c-0.3-0.7-0.4-1.4-0.4-2.1c0-0.6,0.1-1.3,0.3-1.8c0.2-0.7,0.6-1.4,1.1-2h0.5c-0.3,0.6-0.5,1-0.6,1.2c-0.2,0.4-0.3,0.8-0.4,1.2
			c-0.1,0.5-0.2,1-0.2,1.5c0,1.3,0.4,2.6,1.2,3.9H98z M99.9,304.1h-0.5c0.8-1.3,1.2-2.6,1.2-3.9c0-0.5-0.1-1-0.2-1.5
			c-0.1-0.4-0.2-0.8-0.4-1.2c-0.1-0.2-0.3-0.6-0.7-1.2h0.5c0.5,0.7,0.9,1.4,1.1,2c0.2,0.6,0.3,1.2,0.3,1.8c0,0.7-0.1,1.4-0.4,2.1
			C100.6,303,100.3,303.6,99.9,304.1z"/>
		<path fill="#D9D2E9" d="M340.3,409.7h72.6v27.6h-72.6V409.7z"/>
		<path fill="none" stroke="#000000" stroke-width="2" stroke-linejoin="round" stroke-miterlimit="10" d="M340.3,409.7h72.6v27.6
			h-72.6V409.7z"/>
		<path d="M366,419.3c0-0.8,0.2-1.4,0.7-1.8c0.4-0.3,0.8-0.5,1.4-0.5c0.6,0,1.1,0.2,1.4,0.6c0.4,0.4,0.6,0.9,0.6,1.6
			c0,0.6-0.1,1-0.2,1.3c-0.2,0.3-0.4,0.6-0.7,0.7c-0.3,0.2-0.7,0.3-1,0.3c-0.6,0-1.1-0.2-1.5-0.6C366.2,420.6,366,420.1,366,419.3z
			 M366.8,419.3c0,0.6,0.1,1,0.4,1.2c0.2,0.3,0.5,0.4,0.9,0.4c0.4,0,0.7-0.1,0.9-0.4c0.2-0.3,0.4-0.7,0.4-1.3c0-0.5-0.1-0.9-0.4-1.2
			c-0.2-0.3-0.5-0.4-0.9-0.4c-0.4,0-0.7,0.1-0.9,0.4C366.9,418.4,366.8,418.8,366.8,419.3z M371,421.5v-4.3h0.7v0.6
			c0.3-0.5,0.8-0.7,1.4-0.7c0.3,0,0.5,0,0.7,0.1c0.2,0.1,0.4,0.2,0.5,0.4c0.1,0.1,0.2,0.3,0.2,0.5c0,0.1,0,0.4,0,0.7v2.6h-0.7v-2.6
			c0-0.3,0-0.5-0.1-0.7c-0.1-0.1-0.2-0.3-0.3-0.3c-0.1-0.1-0.3-0.1-0.5-0.1c-0.3,0-0.6,0.1-0.8,0.3c-0.2,0.2-0.3,0.6-0.3,1.1v2.4
			H371z M375.8,421.5v-5.9h2.2c0.4,0,0.7,0,0.9,0.1c0.3,0,0.5,0.1,0.7,0.3c0.2,0.1,0.4,0.3,0.5,0.6s0.2,0.5,0.2,0.8
			c0,0.5-0.2,0.9-0.5,1.3c-0.3,0.3-0.9,0.5-1.7,0.5h-1.5v2.4H375.8z M376.6,418.4h1.5c0.5,0,0.9-0.1,1.1-0.3
			c0.2-0.2,0.3-0.5,0.3-0.8c0-0.2-0.1-0.5-0.2-0.6c-0.1-0.2-0.3-0.3-0.5-0.4c-0.1,0-0.4,0-0.7,0h-1.5V418.4z M381.4,416.4v-0.8h0.7
			v0.8H381.4z M381.4,421.5v-4.3h0.7v4.3H381.4z M383.3,421.5v-4.3h0.7v0.6c0.3-0.5,0.8-0.7,1.4-0.7c0.3,0,0.5,0,0.7,0.1
			c0.2,0.1,0.4,0.2,0.5,0.4c0.1,0.1,0.2,0.3,0.2,0.5c0,0.1,0,0.4,0,0.7v2.6h-0.7v-2.6c0-0.3,0-0.5-0.1-0.7c-0.1-0.1-0.2-0.3-0.3-0.3
			c-0.1-0.1-0.3-0.1-0.5-0.1c-0.3,0-0.6,0.1-0.8,0.3c-0.2,0.2-0.3,0.6-0.3,1.1v2.4H383.3z"/>
		<path d="M364.6,430.1l0.7,0.1c-0.1,0.5-0.3,0.9-0.6,1.2s-0.7,0.4-1.2,0.4c-0.6,0-1.1-0.2-1.4-0.6c-0.4-0.4-0.5-0.9-0.5-1.7
			c0-0.5,0.1-0.9,0.2-1.2c0.2-0.4,0.4-0.6,0.7-0.8c0.3-0.2,0.7-0.3,1-0.3c0.5,0,0.8,0.1,1.1,0.4c0.3,0.2,0.5,0.6,0.6,1l-0.7,0.1
			c-0.1-0.3-0.2-0.5-0.4-0.6c-0.2-0.1-0.4-0.2-0.6-0.2c-0.4,0-0.7,0.1-0.9,0.4c-0.2,0.3-0.3,0.7-0.3,1.2c0,0.6,0.1,1,0.3,1.3
			c0.2,0.3,0.5,0.4,0.9,0.4c0.3,0,0.5-0.1,0.7-0.3C364.5,430.8,364.6,430.5,364.6,430.1z M368.9,431.2c-0.3,0.2-0.5,0.4-0.8,0.5
			c-0.2,0.1-0.5,0.1-0.8,0.1c-0.5,0-0.8-0.1-1.1-0.3c-0.3-0.2-0.4-0.5-0.4-0.9c0-0.2,0-0.4,0.1-0.6c0.1-0.2,0.2-0.3,0.4-0.4
			c0.2-0.1,0.3-0.2,0.5-0.2c0.1,0,0.4-0.1,0.6-0.1c0.6-0.1,1-0.1,1.3-0.2c0-0.1,0-0.2,0-0.2c0-0.3-0.1-0.5-0.2-0.6
			c-0.2-0.2-0.5-0.2-0.8-0.2c-0.3,0-0.6,0.1-0.8,0.2c-0.2,0.1-0.3,0.3-0.4,0.6l-0.7-0.1c0.1-0.3,0.2-0.6,0.3-0.7
			c0.2-0.2,0.4-0.3,0.6-0.4c0.3-0.1,0.6-0.1,1-0.1c0.4,0,0.7,0,0.9,0.1c0.2,0.1,0.4,0.2,0.5,0.3c0.1,0.1,0.2,0.3,0.2,0.5
			c0,0.1,0,0.4,0,0.7v1c0,0.7,0,1.1,0,1.3c0,0.2,0.1,0.4,0.2,0.5H369C368.9,431.5,368.9,431.4,368.9,431.2z M368.8,429.5
			c-0.3,0.1-0.7,0.2-1.2,0.3c-0.3,0-0.5,0.1-0.6,0.1s-0.2,0.1-0.3,0.2c-0.1,0.1-0.1,0.2-0.1,0.3c0,0.2,0.1,0.4,0.2,0.5
			c0.1,0.1,0.4,0.2,0.6,0.2c0.3,0,0.5-0.1,0.7-0.2c0.2-0.1,0.4-0.3,0.5-0.5c0.1-0.2,0.1-0.4,0.1-0.7V429.5z M370.8,431.7v-5.9h0.7
			v5.9H370.8z M372.7,431.7v-5.9h0.7v5.9H372.7z M375.2,431.7h-0.7v-5.9h0.7v2.1c0.3-0.4,0.7-0.6,1.2-0.6c0.3,0,0.5,0.1,0.7,0.2
			c0.2,0.1,0.4,0.3,0.6,0.4c0.2,0.2,0.3,0.4,0.4,0.7c0.1,0.3,0.1,0.6,0.1,0.9c0,0.7-0.2,1.3-0.5,1.7c-0.4,0.4-0.8,0.6-1.3,0.6
			c-0.5,0-0.9-0.2-1.2-0.6V431.7z M375.2,429.5c0,0.5,0.1,0.9,0.2,1.1c0.2,0.4,0.5,0.6,0.9,0.6c0.3,0,0.6-0.1,0.8-0.4
			s0.3-0.7,0.3-1.2c0-0.6-0.1-1-0.3-1.2c-0.2-0.3-0.5-0.4-0.8-0.4c-0.3,0-0.6,0.1-0.8,0.4C375.3,428.6,375.2,429,375.2,429.5z
			 M382.1,431.2c-0.3,0.2-0.5,0.4-0.8,0.5c-0.2,0.1-0.5,0.1-0.8,0.1c-0.5,0-0.8-0.1-1.1-0.3c-0.3-0.2-0.4-0.5-0.4-0.9
			c0-0.2,0-0.4,0.1-0.6c0.1-0.2,0.2-0.3,0.4-0.4c0.2-0.1,0.3-0.2,0.5-0.2c0.1,0,0.4-0.1,0.6-0.1c0.6-0.1,1-0.1,1.3-0.2
			c0-0.1,0-0.2,0-0.2c0-0.3-0.1-0.5-0.2-0.6c-0.2-0.2-0.5-0.2-0.8-0.2c-0.3,0-0.6,0.1-0.8,0.2c-0.2,0.1-0.3,0.3-0.4,0.6l-0.7-0.1
			c0.1-0.3,0.2-0.6,0.3-0.7c0.2-0.2,0.4-0.3,0.6-0.4c0.3-0.1,0.6-0.1,1-0.1c0.4,0,0.7,0,0.9,0.1c0.2,0.1,0.4,0.2,0.5,0.3
			c0.1,0.1,0.2,0.3,0.2,0.5c0,0.1,0,0.4,0,0.7v1c0,0.7,0,1.1,0,1.3c0,0.2,0.1,0.4,0.2,0.5h-0.8C382.2,431.5,382.1,431.4,382.1,431.2
			z M382,429.5c-0.3,0.1-0.7,0.2-1.2,0.3c-0.3,0-0.5,0.1-0.6,0.1c-0.1,0.1-0.2,0.1-0.3,0.2c-0.1,0.1-0.1,0.2-0.1,0.3
			c0,0.2,0.1,0.4,0.2,0.5c0.1,0.1,0.4,0.2,0.6,0.2c0.3,0,0.5-0.1,0.7-0.2c0.2-0.1,0.4-0.3,0.5-0.5c0.1-0.2,0.1-0.4,0.1-0.7V429.5z
			 M386.8,430.1l0.7,0.1c-0.1,0.5-0.3,0.9-0.6,1.2c-0.3,0.3-0.7,0.4-1.2,0.4c-0.6,0-1.1-0.2-1.4-0.6c-0.4-0.4-0.5-0.9-0.5-1.7
			c0-0.5,0.1-0.9,0.2-1.2c0.2-0.4,0.4-0.6,0.7-0.8c0.3-0.2,0.7-0.3,1-0.3c0.5,0,0.8,0.1,1.1,0.4c0.3,0.2,0.5,0.6,0.6,1l-0.7,0.1
			c-0.1-0.3-0.2-0.5-0.4-0.6c-0.2-0.1-0.4-0.2-0.6-0.2c-0.4,0-0.7,0.1-0.9,0.4c-0.2,0.3-0.3,0.7-0.3,1.2c0,0.6,0.1,1,0.3,1.3
			c0.2,0.3,0.5,0.4,0.9,0.4c0.3,0,0.5-0.1,0.7-0.3C386.7,430.8,386.8,430.5,386.8,430.1z M388.3,431.7v-5.9h0.7v3.4l1.7-1.7h0.9
			L390,429l1.8,2.7h-0.9l-1.4-2.2L389,430v1.7H388.3z"/>
		<path fill="#D9EAD3" d="M56.9,325h72.6v27.6H56.9V325z"/>
		<path fill="none" stroke="#000000" stroke-width="2" stroke-linejoin="round" stroke-miterlimit="10" d="M56.9,325h72.6v27.6H56.9
			V325z"/>
		<path d="M83.4,341.9v-0.6c-0.3,0.5-0.8,0.7-1.4,0.7c-0.3,0-0.5,0-0.7-0.1c-0.2-0.1-0.4-0.2-0.5-0.4c-0.1-0.1-0.2-0.3-0.2-0.5
			c0-0.1,0-0.4,0-0.7v-2.7h0.7v2.4c0,0.4,0,0.6,0,0.8c0,0.2,0.1,0.3,0.3,0.5c0.1,0.1,0.3,0.2,0.5,0.2c0.2,0,0.4-0.1,0.6-0.2
			c0.2-0.1,0.3-0.3,0.4-0.5s0.1-0.5,0.1-0.8v-2.3H84v4.3H83.4z M85.3,341.9v-4.3h0.7v0.6c0.3-0.5,0.8-0.7,1.4-0.7
			c0.3,0,0.5,0,0.7,0.1c0.2,0.1,0.4,0.2,0.5,0.4c0.1,0.1,0.2,0.3,0.2,0.5c0,0.1,0,0.4,0,0.7v2.6H88v-2.6c0-0.3,0-0.5-0.1-0.7
			c-0.1-0.1-0.2-0.3-0.3-0.3c-0.1-0.1-0.3-0.1-0.5-0.1c-0.3,0-0.6,0.1-0.8,0.3c-0.2,0.2-0.3,0.6-0.3,1.1v2.4H85.3z M90,343.5v-5.9
			h0.7v0.6c0.2-0.2,0.3-0.4,0.5-0.5c0.2-0.1,0.4-0.2,0.7-0.2c0.4,0,0.7,0.1,1,0.3c0.3,0.2,0.5,0.5,0.6,0.8c0.1,0.3,0.2,0.7,0.2,1.1
			c0,0.4-0.1,0.8-0.2,1.2c-0.2,0.4-0.4,0.6-0.7,0.8c-0.3,0.2-0.6,0.3-0.9,0.3c-0.2,0-0.5,0-0.6-0.1c-0.2-0.1-0.4-0.2-0.5-0.4v2.1H90
			z M90.6,339.8c0,0.6,0.1,1,0.3,1.2c0.2,0.3,0.5,0.4,0.8,0.4c0.3,0,0.6-0.1,0.8-0.4c0.2-0.3,0.3-0.7,0.3-1.3c0-0.6-0.1-1-0.3-1.2
			c-0.2-0.3-0.5-0.4-0.8-0.4c-0.3,0-0.6,0.1-0.8,0.4C90.8,338.8,90.6,339.2,90.6,339.8z M94.7,336.8V336h0.7v0.8H94.7z M94.7,341.9
			v-4.3h0.7v4.3H94.7z M96.6,341.9v-4.3h0.7v0.6c0.3-0.5,0.8-0.7,1.4-0.7c0.3,0,0.5,0,0.7,0.1c0.2,0.1,0.4,0.2,0.5,0.4
			c0.1,0.1,0.2,0.3,0.2,0.5c0,0.1,0,0.4,0,0.7v2.6h-0.7v-2.6c0-0.3,0-0.5-0.1-0.7c-0.1-0.1-0.2-0.3-0.3-0.3
			c-0.1-0.1-0.3-0.1-0.5-0.1c-0.3,0-0.6,0.1-0.8,0.3c-0.2,0.2-0.3,0.6-0.3,1.1v2.4H96.6z M102.7,343.6c-0.4-0.5-0.7-1.1-1-1.8
			c-0.3-0.7-0.4-1.4-0.4-2.1c0-0.6,0.1-1.3,0.3-1.8c0.2-0.7,0.6-1.4,1.1-2h0.5c-0.3,0.6-0.5,1-0.6,1.2c-0.2,0.4-0.3,0.8-0.4,1.2
			c-0.1,0.5-0.2,1-0.2,1.5c0,1.3,0.4,2.6,1.2,3.9H102.7z M104.6,343.6h-0.5c0.8-1.3,1.2-2.6,1.2-3.9c0-0.5-0.1-1-0.2-1.5
			c-0.1-0.4-0.2-0.8-0.4-1.2c-0.1-0.2-0.3-0.6-0.7-1.2h0.5c0.5,0.7,0.9,1.4,1.1,2c0.2,0.6,0.3,1.2,0.3,1.8c0,0.7-0.1,1.4-0.4,2.1
			C105.4,342.5,105,343.1,104.6,343.6z"/>
		<path fill="#D9D2E9" d="M340.3,446h72.6v27.6h-72.6V446z"/>
		<path fill="none" stroke="#000000" stroke-width="2" stroke-linejoin="round" stroke-miterlimit="10" d="M340.3,446h72.6v27.6
			h-72.6V446z"/>
		<path d="M361.1,455.7c0-0.8,0.2-1.4,0.7-1.8c0.4-0.3,0.8-0.5,1.4-0.5c0.6,0,1.1,0.2,1.4,0.6c0.4,0.4,0.6,0.9,0.6,1.6
			c0,0.6-0.1,1-0.2,1.3c-0.2,0.3-0.4,0.6-0.7,0.7c-0.3,0.2-0.7,0.3-1,0.3c-0.6,0-1.1-0.2-1.5-0.6
			C361.3,456.9,361.1,456.4,361.1,455.7z M361.8,455.7c0,0.6,0.1,1,0.4,1.2c0.2,0.3,0.5,0.4,0.9,0.4c0.4,0,0.7-0.1,0.9-0.4
			c0.2-0.3,0.4-0.7,0.4-1.3c0-0.5-0.1-0.9-0.4-1.2c-0.2-0.3-0.5-0.4-0.9-0.4c-0.4,0-0.7,0.1-0.9,0.4
			C361.9,454.7,361.8,455.1,361.8,455.7z M366.1,457.8v-4.3h0.7v0.6c0.3-0.5,0.8-0.7,1.4-0.7c0.3,0,0.5,0,0.7,0.1
			c0.2,0.1,0.4,0.2,0.5,0.4c0.1,0.1,0.2,0.3,0.2,0.5c0,0.1,0,0.4,0,0.7v2.6h-0.7v-2.6c0-0.3,0-0.5-0.1-0.7c-0.1-0.1-0.2-0.3-0.3-0.3
			c-0.1-0.1-0.3-0.1-0.5-0.1c-0.3,0-0.6,0.1-0.8,0.3c-0.2,0.2-0.3,0.6-0.3,1.1v2.4H366.1z M374.8,451.9h0.8v3.4
			c0,0.6-0.1,1.1-0.2,1.4c-0.1,0.4-0.4,0.6-0.7,0.9c-0.4,0.2-0.8,0.3-1.4,0.3c-0.6,0-1-0.1-1.4-0.3c-0.4-0.2-0.6-0.5-0.8-0.8
			c-0.2-0.4-0.2-0.9-0.2-1.5v-3.4h0.8v3.4c0,0.5,0,0.9,0.1,1.1c0.1,0.2,0.3,0.4,0.5,0.6s0.5,0.2,0.9,0.2c0.6,0,1-0.1,1.2-0.4
			c0.2-0.3,0.4-0.8,0.4-1.5V451.9z M376.9,457.8v-4.3h0.7v0.6c0.3-0.5,0.8-0.7,1.4-0.7c0.3,0,0.5,0,0.7,0.1c0.2,0.1,0.4,0.2,0.5,0.4
			c0.1,0.1,0.2,0.3,0.2,0.5c0,0.1,0,0.4,0,0.7v2.6h-0.7v-2.6c0-0.3,0-0.5-0.1-0.7c-0.1-0.1-0.2-0.3-0.3-0.3
			c-0.1-0.1-0.3-0.1-0.5-0.1c-0.3,0-0.6,0.1-0.8,0.3c-0.2,0.2-0.3,0.6-0.3,1.1v2.4H376.9z M381.7,459.4v-5.9h0.7v0.6
			c0.2-0.2,0.3-0.4,0.5-0.5c0.2-0.1,0.4-0.2,0.7-0.2c0.4,0,0.7,0.1,1,0.3c0.3,0.2,0.5,0.5,0.6,0.8c0.1,0.3,0.2,0.7,0.2,1.1
			c0,0.4-0.1,0.8-0.2,1.2c-0.2,0.4-0.4,0.6-0.7,0.8c-0.3,0.2-0.6,0.3-0.9,0.3c-0.2,0-0.5,0-0.6-0.1c-0.2-0.1-0.4-0.2-0.5-0.4v2.1
			H381.7z M382.3,455.7c0,0.6,0.1,1,0.3,1.2c0.2,0.3,0.5,0.4,0.8,0.4c0.3,0,0.6-0.1,0.8-0.4c0.2-0.3,0.3-0.7,0.3-1.3
			c0-0.6-0.1-1-0.3-1.2c-0.2-0.3-0.5-0.4-0.8-0.4c-0.3,0-0.6,0.1-0.8,0.4C382.4,454.7,382.3,455.1,382.3,455.7z M386.4,452.7v-0.8
			h0.7v0.8H386.4z M386.4,457.8v-4.3h0.7v4.3H386.4z M388.3,457.8v-4.3h0.7v0.6c0.3-0.5,0.8-0.7,1.4-0.7c0.3,0,0.5,0,0.7,0.1
			c0.2,0.1,0.4,0.2,0.5,0.4c0.1,0.1,0.2,0.3,0.2,0.5c0,0.1,0,0.4,0,0.7v2.6H391v-2.6c0-0.3,0-0.5-0.1-0.7c-0.1-0.1-0.2-0.3-0.3-0.3
			c-0.1-0.1-0.3-0.1-0.5-0.1c-0.3,0-0.6,0.1-0.8,0.3c-0.2,0.2-0.3,0.6-0.3,1.1v2.4H388.3z"/>
		<path d="M364.6,466.4l0.7,0.1c-0.1,0.5-0.3,0.9-0.6,1.2s-0.7,0.4-1.2,0.4c-0.6,0-1.1-0.2-1.4-0.6c-0.4-0.4-0.5-0.9-0.5-1.7
			c0-0.5,0.1-0.9,0.2-1.2c0.2-0.4,0.4-0.6,0.7-0.8c0.3-0.2,0.7-0.3,1-0.3c0.5,0,0.8,0.1,1.1,0.4c0.3,0.2,0.5,0.6,0.6,1l-0.7,0.1
			c-0.1-0.3-0.2-0.5-0.4-0.6c-0.2-0.1-0.4-0.2-0.6-0.2c-0.4,0-0.7,0.1-0.9,0.4c-0.2,0.3-0.3,0.7-0.3,1.2c0,0.6,0.1,1,0.3,1.3
			c0.2,0.3,0.5,0.4,0.9,0.4c0.3,0,0.5-0.1,0.7-0.3C364.5,467.1,364.6,466.8,364.6,466.4z M368.9,467.5c-0.3,0.2-0.5,0.4-0.8,0.5
			c-0.2,0.1-0.5,0.1-0.8,0.1c-0.5,0-0.8-0.1-1.1-0.3c-0.3-0.2-0.4-0.5-0.4-0.9c0-0.2,0-0.4,0.1-0.6c0.1-0.2,0.2-0.3,0.4-0.4
			c0.2-0.1,0.3-0.2,0.5-0.2c0.1,0,0.4-0.1,0.6-0.1c0.6-0.1,1-0.1,1.3-0.2c0-0.1,0-0.2,0-0.2c0-0.3-0.1-0.5-0.2-0.6
			c-0.2-0.2-0.5-0.2-0.8-0.2c-0.3,0-0.6,0.1-0.8,0.2c-0.2,0.1-0.3,0.3-0.4,0.6l-0.7-0.1c0.1-0.3,0.2-0.6,0.3-0.7
			c0.2-0.2,0.4-0.3,0.6-0.4c0.3-0.1,0.6-0.1,1-0.1c0.4,0,0.7,0,0.9,0.1c0.2,0.1,0.4,0.2,0.5,0.3c0.1,0.1,0.2,0.3,0.2,0.5
			c0,0.1,0,0.4,0,0.7v1c0,0.7,0,1.1,0,1.3c0,0.2,0.1,0.4,0.2,0.5H369C368.9,467.9,368.9,467.7,368.9,467.5z M368.8,465.8
			c-0.3,0.1-0.7,0.2-1.2,0.3c-0.3,0-0.5,0.1-0.6,0.1c-0.1,0.1-0.2,0.1-0.3,0.2c-0.1,0.1-0.1,0.2-0.1,0.3c0,0.2,0.1,0.4,0.2,0.5
			c0.1,0.1,0.4,0.2,0.6,0.2c0.3,0,0.5-0.1,0.7-0.2c0.2-0.1,0.4-0.3,0.5-0.5c0.1-0.2,0.1-0.4,0.1-0.7V465.8z M370.8,468v-5.9h0.7v5.9
			H370.8z M372.7,468v-5.9h0.7v5.9H372.7z M375.2,468h-0.7v-5.9h0.7v2.1c0.3-0.4,0.7-0.6,1.2-0.6c0.3,0,0.5,0.1,0.7,0.2
			c0.2,0.1,0.4,0.3,0.6,0.4c0.2,0.2,0.3,0.4,0.4,0.7c0.1,0.3,0.1,0.6,0.1,0.9c0,0.7-0.2,1.3-0.5,1.7c-0.4,0.4-0.8,0.6-1.3,0.6
			c-0.5,0-0.9-0.2-1.2-0.6V468z M375.2,465.8c0,0.5,0.1,0.9,0.2,1.1c0.2,0.4,0.5,0.6,0.9,0.6c0.3,0,0.6-0.1,0.8-0.4s0.3-0.7,0.3-1.2
			c0-0.6-0.1-1-0.3-1.2c-0.2-0.3-0.5-0.4-0.8-0.4c-0.3,0-0.6,0.1-0.8,0.4C375.3,464.9,375.2,465.3,375.2,465.8z M382.1,467.5
			c-0.3,0.2-0.5,0.4-0.8,0.5c-0.2,0.1-0.5,0.1-0.8,0.1c-0.5,0-0.8-0.1-1.1-0.3s-0.4-0.5-0.4-0.9c0-0.2,0-0.4,0.1-0.6
			c0.1-0.2,0.2-0.3,0.4-0.4c0.2-0.1,0.3-0.2,0.5-0.2c0.1,0,0.4-0.1,0.6-0.1c0.6-0.1,1-0.1,1.3-0.2c0-0.1,0-0.2,0-0.2
			c0-0.3-0.1-0.5-0.2-0.6c-0.2-0.2-0.5-0.2-0.8-0.2c-0.3,0-0.6,0.1-0.8,0.2c-0.2,0.1-0.3,0.3-0.4,0.6l-0.7-0.1
			c0.1-0.3,0.2-0.6,0.3-0.7c0.2-0.2,0.4-0.3,0.6-0.4c0.3-0.1,0.6-0.1,1-0.1c0.4,0,0.7,0,0.9,0.1c0.2,0.1,0.4,0.2,0.5,0.3
			c0.1,0.1,0.2,0.3,0.2,0.5c0,0.1,0,0.4,0,0.7v1c0,0.7,0,1.1,0,1.3c0,0.2,0.1,0.4,0.2,0.5h-0.8C382.2,467.9,382.1,467.7,382.1,467.5
			z M382,465.8c-0.3,0.1-0.7,0.2-1.2,0.3c-0.3,0-0.5,0.1-0.6,0.1c-0.1,0.1-0.2,0.1-0.3,0.2c-0.1,0.1-0.1,0.2-0.1,0.3
			c0,0.2,0.1,0.4,0.2,0.5c0.1,0.1,0.4,0.2,0.6,0.2c0.3,0,0.5-0.1,0.7-0.2c0.2-0.1,0.4-0.3,0.5-0.5c0.1-0.2,0.1-0.4,0.1-0.7V465.8z
			 M386.8,466.4l0.7,0.1c-0.1,0.5-0.3,0.9-0.6,1.2c-0.3,0.3-0.7,0.4-1.2,0.4c-0.6,0-1.1-0.2-1.4-0.6c-0.4-0.4-0.5-0.9-0.5-1.7
			c0-0.5,0.1-0.9,0.2-1.2c0.2-0.4,0.4-0.6,0.7-0.8c0.3-0.2,0.7-0.3,1-0.3c0.5,0,0.8,0.1,1.1,0.4c0.3,0.2,0.5,0.6,0.6,1l-0.7,0.1
			c-0.1-0.3-0.2-0.5-0.4-0.6c-0.2-0.1-0.4-0.2-0.6-0.2c-0.4,0-0.7,0.1-0.9,0.4c-0.2,0.3-0.3,0.7-0.3,1.2c0,0.6,0.1,1,0.3,1.3
			c0.2,0.3,0.5,0.4,0.9,0.4c0.3,0,0.5-0.1,0.7-0.3C386.7,467.1,386.8,466.8,386.8,466.4z M388.3,468v-5.9h0.7v3.4l1.7-1.7h0.9
			l-1.6,1.6l1.8,2.7h-0.9l-1.4-2.2l-0.5,0.5v1.7H388.3z"/>
		<path fill-opacity="0" d="M129.5,299.3h41.2"/>
		<path fill="none" stroke="#000000" stroke-width="2" stroke-linejoin="round" stroke-miterlimit="10" d="M129.5,299.3h33.5"/>
		<path stroke="#000000" stroke-width="2" stroke-miterlimit="10" d="M163.1,301.4l5.8-2.1l-5.8-2.1V301.4z"/>
		<path fill-opacity="0" d="M129.5,338.8l41.2-39.6"/>
		<path fill="none" stroke="#000000" stroke-width="2" stroke-linejoin="round" stroke-miterlimit="10" d="M129.5,338.8l35.7-34.3"
			/>
		<path stroke="#000000" stroke-width="2" stroke-miterlimit="10" d="M166.6,306.1l2.7-5.5l-5.6,2.5L166.6,306.1z"/>
		<path fill="#D9EAD3" d="M170.7,373.4h72.6V401h-72.6V373.4z"/>
		<path fill="none" stroke="#000000" stroke-width="2" stroke-linejoin="round" stroke-miterlimit="10" d="M170.7,373.4h72.6V401
			h-72.6V373.4z"/>
		<path d="M186.3,389l0.7-0.1c0,0.3,0.2,0.5,0.3,0.7c0.2,0.2,0.4,0.2,0.8,0.2c0.3,0,0.6-0.1,0.7-0.2c0.2-0.1,0.2-0.3,0.2-0.5
			c0-0.2-0.1-0.3-0.2-0.4c-0.1-0.1-0.3-0.1-0.7-0.2c-0.5-0.1-0.9-0.2-1.1-0.3c-0.2-0.1-0.4-0.2-0.5-0.4c-0.1-0.2-0.2-0.4-0.2-0.6
			c0-0.2,0-0.4,0.1-0.5c0.1-0.2,0.2-0.3,0.4-0.4c0.1-0.1,0.3-0.2,0.5-0.2c0.2-0.1,0.4-0.1,0.6-0.1c0.3,0,0.6,0,0.9,0.1
			c0.3,0.1,0.4,0.2,0.6,0.4c0.1,0.2,0.2,0.4,0.3,0.7l-0.7,0.1c0-0.2-0.1-0.4-0.3-0.5c-0.2-0.1-0.4-0.2-0.7-0.2
			c-0.3,0-0.6,0.1-0.7,0.2c-0.1,0.1-0.2,0.2-0.2,0.4c0,0.1,0,0.2,0.1,0.2c0.1,0.1,0.2,0.1,0.3,0.2c0.1,0,0.3,0.1,0.6,0.2
			c0.5,0.1,0.9,0.3,1.1,0.3c0.2,0.1,0.4,0.2,0.5,0.4c0.1,0.2,0.2,0.4,0.2,0.6c0,0.2-0.1,0.5-0.2,0.7c-0.1,0.2-0.3,0.4-0.6,0.5
			c-0.3,0.1-0.6,0.2-0.9,0.2c-0.6,0-1-0.1-1.3-0.3C186.5,389.8,186.3,389.5,186.3,389z M193.6,390.3v-0.6c-0.3,0.5-0.8,0.7-1.4,0.7
			c-0.3,0-0.5,0-0.7-0.1c-0.2-0.1-0.4-0.2-0.5-0.4c-0.1-0.1-0.2-0.3-0.2-0.5c0-0.1,0-0.4,0-0.7V386h0.7v2.4c0,0.4,0,0.6,0,0.8
			c0,0.2,0.1,0.3,0.3,0.5c0.1,0.1,0.3,0.2,0.5,0.2s0.4-0.1,0.6-0.2c0.2-0.1,0.3-0.3,0.4-0.5c0.1-0.2,0.1-0.5,0.1-0.8V386h0.7v4.3
			H193.6z M196.2,390.3h-0.7v-5.9h0.7v2.1c0.3-0.4,0.7-0.6,1.2-0.6c0.3,0,0.5,0.1,0.7,0.2c0.2,0.1,0.4,0.3,0.6,0.4
			c0.2,0.2,0.3,0.4,0.4,0.7c0.1,0.3,0.1,0.6,0.1,0.9c0,0.7-0.2,1.3-0.5,1.7c-0.4,0.4-0.8,0.6-1.3,0.6c-0.5,0-0.9-0.2-1.2-0.6V390.3z
			 M196.2,388.1c0,0.5,0.1,0.9,0.2,1.1c0.2,0.4,0.5,0.6,0.9,0.6c0.3,0,0.6-0.1,0.8-0.4c0.2-0.3,0.3-0.7,0.3-1.2c0-0.6-0.1-1-0.3-1.2
			c-0.2-0.3-0.5-0.4-0.8-0.4c-0.3,0-0.6,0.1-0.8,0.4C196.3,387.2,196.2,387.6,196.2,388.1z M200,389l0.7-0.1c0,0.3,0.2,0.5,0.3,0.7
			c0.2,0.2,0.4,0.2,0.8,0.2c0.3,0,0.6-0.1,0.7-0.2c0.2-0.1,0.2-0.3,0.2-0.5c0-0.2-0.1-0.3-0.2-0.4c-0.1-0.1-0.3-0.1-0.7-0.2
			c-0.5-0.1-0.9-0.2-1.1-0.3c-0.2-0.1-0.4-0.2-0.5-0.4c-0.1-0.2-0.2-0.4-0.2-0.6c0-0.2,0-0.4,0.1-0.5c0.1-0.2,0.2-0.3,0.4-0.4
			c0.1-0.1,0.3-0.2,0.5-0.2c0.2-0.1,0.4-0.1,0.6-0.1c0.3,0,0.6,0,0.9,0.1c0.3,0.1,0.4,0.2,0.6,0.4c0.1,0.2,0.2,0.4,0.3,0.7l-0.7,0.1
			c0-0.2-0.1-0.4-0.3-0.5c-0.2-0.1-0.4-0.2-0.7-0.2c-0.3,0-0.6,0.1-0.7,0.2c-0.1,0.1-0.2,0.2-0.2,0.4c0,0.1,0,0.2,0.1,0.2
			c0.1,0.1,0.2,0.1,0.3,0.2c0.1,0,0.3,0.1,0.6,0.2c0.5,0.1,0.9,0.3,1.1,0.3c0.2,0.1,0.4,0.2,0.5,0.4c0.1,0.2,0.2,0.4,0.2,0.6
			c0,0.2-0.1,0.5-0.2,0.7c-0.1,0.2-0.3,0.4-0.6,0.5c-0.3,0.1-0.6,0.2-0.9,0.2c-0.6,0-1-0.1-1.3-0.3S200,389.5,200,389z M207.3,388.7
			l0.7,0.1c-0.1,0.5-0.3,0.9-0.6,1.2c-0.3,0.3-0.7,0.4-1.2,0.4c-0.6,0-1.1-0.2-1.4-0.6c-0.4-0.4-0.5-0.9-0.5-1.7
			c0-0.5,0.1-0.9,0.2-1.2c0.2-0.4,0.4-0.6,0.7-0.8c0.3-0.2,0.7-0.3,1-0.3c0.5,0,0.8,0.1,1.1,0.4c0.3,0.2,0.5,0.6,0.6,1l-0.7,0.1
			c-0.1-0.3-0.2-0.5-0.4-0.6c-0.2-0.1-0.4-0.2-0.6-0.2c-0.4,0-0.7,0.1-0.9,0.4c-0.2,0.3-0.3,0.7-0.3,1.2c0,0.6,0.1,1,0.3,1.3
			c0.2,0.3,0.5,0.4,0.9,0.4c0.3,0,0.5-0.1,0.7-0.3C207.1,389.4,207.3,389.1,207.3,388.7z M208.7,390.3V386h0.7v0.6
			c0.2-0.3,0.3-0.5,0.5-0.6c0.1-0.1,0.3-0.1,0.5-0.1c0.2,0,0.5,0.1,0.7,0.2l-0.2,0.7c-0.2-0.1-0.4-0.2-0.5-0.2c-0.2,0-0.3,0-0.4,0.1
			c-0.1,0.1-0.2,0.2-0.3,0.4c-0.1,0.3-0.1,0.5-0.1,0.8v2.3H208.7z M211.6,385.2v-0.8h0.7v0.8H211.6z M211.6,390.3V386h0.7v4.3H211.6
			z M214.1,390.3h-0.7v-5.9h0.7v2.1c0.3-0.4,0.7-0.6,1.2-0.6c0.3,0,0.5,0.1,0.7,0.2c0.2,0.1,0.4,0.3,0.6,0.4
			c0.2,0.2,0.3,0.4,0.4,0.7c0.1,0.3,0.1,0.6,0.1,0.9c0,0.7-0.2,1.3-0.5,1.7c-0.4,0.4-0.8,0.6-1.3,0.6c-0.5,0-0.9-0.2-1.2-0.6V390.3z
			 M214.1,388.1c0,0.5,0.1,0.9,0.2,1.1c0.2,0.4,0.5,0.6,0.9,0.6c0.3,0,0.6-0.1,0.8-0.4c0.2-0.3,0.3-0.7,0.3-1.2c0-0.6-0.1-1-0.3-1.2
			c-0.2-0.3-0.5-0.4-0.8-0.4c-0.3,0-0.6,0.1-0.8,0.4C214.2,387.2,214.1,387.6,214.1,388.1z M221.1,388.9l0.8,0.1
			c-0.1,0.4-0.3,0.8-0.7,1c-0.3,0.2-0.7,0.4-1.2,0.4c-0.6,0-1.1-0.2-1.5-0.6c-0.4-0.4-0.5-0.9-0.5-1.6c0-0.7,0.2-1.3,0.6-1.7
			c0.4-0.4,0.9-0.6,1.5-0.6c0.6,0,1,0.2,1.4,0.6c0.4,0.4,0.5,0.9,0.5,1.6c0,0,0,0.1,0,0.2h-3.2c0,0.5,0.2,0.8,0.4,1.1
			s0.5,0.4,0.9,0.4c0.3,0,0.5-0.1,0.7-0.2C220.9,389.4,221,389.2,221.1,388.9z M218.7,387.7h2.4c0-0.4-0.1-0.6-0.3-0.8
			c-0.2-0.3-0.5-0.4-0.9-0.4c-0.3,0-0.6,0.1-0.8,0.3C218.9,387,218.8,387.3,218.7,387.7z M224.3,392c-0.4-0.5-0.7-1.1-1-1.8
			c-0.3-0.7-0.4-1.4-0.4-2.1c0-0.6,0.1-1.3,0.3-1.8c0.2-0.7,0.6-1.4,1.1-2h0.5c-0.3,0.6-0.5,1-0.6,1.2c-0.2,0.4-0.3,0.8-0.4,1.2
			c-0.1,0.5-0.2,1-0.2,1.5c0,1.3,0.4,2.6,1.2,3.9H224.3z M226.2,392h-0.5c0.8-1.3,1.2-2.6,1.2-3.9c0-0.5-0.1-1-0.2-1.5
			c-0.1-0.4-0.2-0.8-0.4-1.2c-0.1-0.2-0.3-0.6-0.7-1.2h0.5c0.5,0.7,0.9,1.4,1.1,2c0.2,0.6,0.3,1.2,0.3,1.8c0,0.7-0.1,1.4-0.4,2.1
			C227,390.9,226.6,391.5,226.2,392z"/>
		<path fill-opacity="0" d="M207,373.4l83.4-34.1"/>
		<path fill="none" stroke="#000000" stroke-width="2" stroke-linejoin="round" stroke-miterlimit="10" d="M207,373.4l76.4-31.2"/>
		<path stroke="#000000" stroke-width="2" stroke-miterlimit="10" d="M284.2,344.2l4.6-4.1l-6.2,0.2L284.2,344.2z"/>
		<path fill-opacity="0" d="M291.8,338.8l48.5,48.4"/>
		<path fill="none" stroke="#000000" stroke-width="2" stroke-linejoin="round" stroke-miterlimit="10" d="M291.8,338.8l43.1,43"/>
		<path stroke="#000000" stroke-width="2" stroke-miterlimit="10" d="M333.4,383.3l5.6,2.6l-2.6-5.6L333.4,383.3z"/>
		<path fill-opacity="0" d="M291.8,338.8l48.5,84.7"/>
		<path fill="none" stroke="#000000" stroke-width="2" stroke-linejoin="round" stroke-miterlimit="10" d="M291.8,338.8l44.7,78.1"
			/>
		<path stroke="#000000" stroke-width="2" stroke-miterlimit="10" d="M334.7,417.9l4.7,4l-1-6.1L334.7,417.9z"/>
		<path fill-opacity="0" d="M291.8,338.8l48.5,121"/>
		<path fill="none" stroke="#000000" stroke-width="2" stroke-linejoin="round" stroke-miterlimit="10" d="M291.8,338.8l45.6,113.9"
			/>
		<path stroke="#000000" stroke-width="2" stroke-miterlimit="10" d="M335.5,453.5l4.1,4.6l-0.2-6.2L335.5,453.5z"/>
		<path fill="#FFF2CC" d="M439.9,373.4h80.3V401h-80.3V373.4z"/>
		<path fill="none" stroke="#000000" stroke-width="2" stroke-linejoin="round" stroke-miterlimit="10" d="M439.9,373.4h80.3V401
			h-80.3V373.4z"/>
		<path d="M446.5,390.6l0.7,0.1c0,0.2,0.1,0.4,0.2,0.5c0.2,0.1,0.4,0.2,0.7,0.2c0.3,0,0.6-0.1,0.8-0.2c0.2-0.1,0.3-0.3,0.4-0.6
			c0-0.1,0.1-0.5,0.1-0.9c-0.3,0.4-0.7,0.6-1.2,0.6c-0.6,0-1-0.2-1.4-0.6c-0.3-0.4-0.5-0.9-0.5-1.5c0-0.4,0.1-0.8,0.2-1.1
			c0.2-0.3,0.4-0.6,0.6-0.8c0.3-0.2,0.6-0.3,1-0.3c0.5,0,0.9,0.2,1.3,0.6V386h0.7v3.7c0,0.7-0.1,1.1-0.2,1.4
			c-0.1,0.3-0.3,0.5-0.6,0.7c-0.3,0.2-0.7,0.2-1.1,0.2c-0.5,0-0.9-0.1-1.2-0.3C446.6,391.5,446.5,391.1,446.5,390.6z M447.1,388.1
			c0,0.6,0.1,1,0.3,1.2c0.2,0.3,0.5,0.4,0.8,0.4c0.3,0,0.6-0.1,0.8-0.4c0.2-0.3,0.3-0.7,0.3-1.2c0-0.5-0.1-0.9-0.3-1.2
			c-0.2-0.3-0.5-0.4-0.8-0.4c-0.3,0-0.6,0.1-0.8,0.4C447.2,387.2,447.1,387.5,447.1,388.1z M454.3,388.9l0.8,0.1
			c-0.1,0.4-0.3,0.8-0.7,1c-0.3,0.2-0.7,0.4-1.2,0.4c-0.6,0-1.1-0.2-1.5-0.6c-0.4-0.4-0.5-0.9-0.5-1.6c0-0.7,0.2-1.3,0.6-1.7
			c0.4-0.4,0.9-0.6,1.5-0.6c0.6,0,1,0.2,1.4,0.6c0.4,0.4,0.5,0.9,0.5,1.6c0,0,0,0.1,0,0.2h-3.2c0,0.5,0.2,0.8,0.4,1.1
			c0.2,0.3,0.5,0.4,0.9,0.4c0.3,0,0.5-0.1,0.7-0.2C454,389.4,454.2,389.2,454.3,388.9z M451.9,387.7h2.4c0-0.4-0.1-0.6-0.3-0.8
			c-0.2-0.3-0.5-0.4-0.9-0.4c-0.3,0-0.6,0.1-0.8,0.3C452.1,387,451.9,387.3,451.9,387.7z M457.7,389.6l0.1,0.6
			c-0.2,0-0.4,0.1-0.5,0.1c-0.3,0-0.5,0-0.6-0.1c-0.1-0.1-0.2-0.2-0.3-0.3c-0.1-0.1-0.1-0.4-0.1-0.9v-2.5h-0.5V386h0.5v-1.1l0.7-0.4
			v1.5h0.7v0.6h-0.7v2.5c0,0.2,0,0.3,0,0.4c0,0.1,0.1,0.1,0.1,0.1c0.1,0,0.1,0,0.2,0C457.4,389.7,457.5,389.7,457.7,389.6z
			 M458.5,390.3v-5.9h0.8v5.2h2.9v0.7H458.5z M466,389.8c-0.3,0.2-0.5,0.4-0.8,0.5c-0.2,0.1-0.5,0.1-0.8,0.1c-0.5,0-0.8-0.1-1.1-0.3
			c-0.3-0.2-0.4-0.5-0.4-0.9c0-0.2,0-0.4,0.1-0.6c0.1-0.2,0.2-0.3,0.4-0.4c0.2-0.1,0.3-0.2,0.5-0.2c0.1,0,0.4-0.1,0.6-0.1
			c0.6-0.1,1-0.1,1.3-0.2c0-0.1,0-0.2,0-0.2c0-0.3-0.1-0.5-0.2-0.6c-0.2-0.2-0.5-0.2-0.8-0.2c-0.3,0-0.6,0.1-0.8,0.2
			c-0.2,0.1-0.3,0.3-0.4,0.6l-0.7-0.1c0.1-0.3,0.2-0.6,0.3-0.7c0.2-0.2,0.4-0.3,0.6-0.4c0.3-0.1,0.6-0.1,1-0.1c0.4,0,0.7,0,0.9,0.1
			c0.2,0.1,0.4,0.2,0.5,0.3c0.1,0.1,0.2,0.3,0.2,0.5c0,0.1,0,0.4,0,0.7v1c0,0.7,0,1.1,0,1.3s0.1,0.4,0.2,0.5h-0.8
			C466,390.1,466,390,466,389.8z M465.9,388.1c-0.3,0.1-0.7,0.2-1.2,0.3c-0.3,0-0.5,0.1-0.6,0.1c-0.1,0.1-0.2,0.1-0.3,0.2
			c-0.1,0.1-0.1,0.2-0.1,0.3c0,0.2,0.1,0.4,0.2,0.5c0.1,0.1,0.4,0.2,0.6,0.2c0.3,0,0.5-0.1,0.7-0.2c0.2-0.1,0.4-0.3,0.5-0.5
			c0.1-0.2,0.1-0.4,0.1-0.7V388.1z M467.6,389l0.7-0.1c0,0.3,0.2,0.5,0.3,0.7c0.2,0.2,0.4,0.2,0.8,0.2c0.3,0,0.6-0.1,0.7-0.2
			c0.2-0.1,0.2-0.3,0.2-0.5c0-0.2-0.1-0.3-0.2-0.4c-0.1-0.1-0.3-0.1-0.7-0.2c-0.5-0.1-0.9-0.2-1.1-0.3s-0.4-0.2-0.5-0.4
			c-0.1-0.2-0.2-0.4-0.2-0.6c0-0.2,0-0.4,0.1-0.5c0.1-0.2,0.2-0.3,0.4-0.4c0.1-0.1,0.3-0.2,0.5-0.2c0.2-0.1,0.4-0.1,0.6-0.1
			c0.3,0,0.6,0,0.9,0.1c0.3,0.1,0.4,0.2,0.6,0.4c0.1,0.2,0.2,0.4,0.3,0.7l-0.7,0.1c0-0.2-0.1-0.4-0.3-0.5c-0.2-0.1-0.4-0.2-0.7-0.2
			c-0.3,0-0.6,0.1-0.7,0.2c-0.1,0.1-0.2,0.2-0.2,0.4c0,0.1,0,0.2,0.1,0.2c0.1,0.1,0.2,0.1,0.3,0.2c0.1,0,0.3,0.1,0.6,0.2
			c0.5,0.1,0.9,0.3,1.1,0.3c0.2,0.1,0.4,0.2,0.5,0.4c0.1,0.2,0.2,0.4,0.2,0.6c0,0.2-0.1,0.5-0.2,0.7c-0.1,0.2-0.3,0.4-0.6,0.5
			c-0.3,0.1-0.6,0.2-0.9,0.2c-0.6,0-1-0.1-1.3-0.3S467.7,389.5,467.6,389z M473.7,389.6l0.1,0.6c-0.2,0-0.4,0.1-0.5,0.1
			c-0.3,0-0.5,0-0.6-0.1c-0.1-0.1-0.2-0.2-0.3-0.3c-0.1-0.1-0.1-0.4-0.1-0.9v-2.5h-0.5V386h0.5v-1.1l0.7-0.4v1.5h0.7v0.6H473v2.5
			c0,0.2,0,0.3,0,0.4s0.1,0.1,0.1,0.1c0.1,0,0.1,0,0.2,0C473.5,389.7,473.6,389.7,473.7,389.6z M474.6,390.3v-5.9h1.2l1.4,4.2
			c0.1,0.4,0.2,0.7,0.3,0.9c0.1-0.2,0.2-0.5,0.3-0.9l1.4-4.1h1.1v5.9h-0.8v-5l-1.7,5H477l-1.7-5.1v5.1H474.6z M484.5,388.9l0.8,0.1
			c-0.1,0.4-0.3,0.8-0.7,1c-0.3,0.2-0.7,0.4-1.2,0.4c-0.6,0-1.1-0.2-1.5-0.6c-0.4-0.4-0.5-0.9-0.5-1.6c0-0.7,0.2-1.3,0.6-1.7
			c0.4-0.4,0.9-0.6,1.5-0.6c0.6,0,1,0.2,1.4,0.6c0.4,0.4,0.5,0.9,0.5,1.6c0,0,0,0.1,0,0.2h-3.2c0,0.5,0.2,0.8,0.4,1.1
			c0.2,0.3,0.5,0.4,0.9,0.4c0.3,0,0.5-0.1,0.7-0.2C484.3,389.4,484.4,389.2,484.5,388.9z M482.1,387.7h2.4c0-0.4-0.1-0.6-0.3-0.8
			c-0.2-0.3-0.5-0.4-0.9-0.4c-0.3,0-0.6,0.1-0.8,0.3C482.3,387,482.2,387.3,482.1,387.7z M486,389l0.7-0.1c0,0.3,0.2,0.5,0.3,0.7
			c0.2,0.2,0.4,0.2,0.8,0.2c0.3,0,0.6-0.1,0.7-0.2c0.2-0.1,0.2-0.3,0.2-0.5c0-0.2-0.1-0.3-0.2-0.4c-0.1-0.1-0.3-0.1-0.7-0.2
			c-0.5-0.1-0.9-0.2-1.1-0.3c-0.2-0.1-0.4-0.2-0.5-0.4c-0.1-0.2-0.2-0.4-0.2-0.6c0-0.2,0-0.4,0.1-0.5c0.1-0.2,0.2-0.3,0.4-0.4
			c0.1-0.1,0.3-0.2,0.5-0.2c0.2-0.1,0.4-0.1,0.6-0.1c0.3,0,0.6,0,0.9,0.1c0.3,0.1,0.4,0.2,0.6,0.4c0.1,0.2,0.2,0.4,0.3,0.7l-0.7,0.1
			c0-0.2-0.1-0.4-0.3-0.5c-0.2-0.1-0.4-0.2-0.7-0.2c-0.3,0-0.6,0.1-0.7,0.2c-0.1,0.1-0.2,0.2-0.2,0.4c0,0.1,0,0.2,0.1,0.2
			c0.1,0.1,0.2,0.1,0.3,0.2c0.1,0,0.3,0.1,0.6,0.2c0.5,0.1,0.9,0.3,1.1,0.3c0.2,0.1,0.4,0.2,0.5,0.4c0.1,0.2,0.2,0.4,0.2,0.6
			c0,0.2-0.1,0.5-0.2,0.7c-0.1,0.2-0.3,0.4-0.6,0.5c-0.3,0.1-0.6,0.2-0.9,0.2c-0.6,0-1-0.1-1.3-0.3C486.3,389.8,486.1,389.5,486,389
			z M490.3,389l0.7-0.1c0,0.3,0.2,0.5,0.3,0.7c0.2,0.2,0.4,0.2,0.8,0.2c0.3,0,0.6-0.1,0.7-0.2c0.2-0.1,0.2-0.3,0.2-0.5
			c0-0.2-0.1-0.3-0.2-0.4c-0.1-0.1-0.3-0.1-0.7-0.2c-0.5-0.1-0.9-0.2-1.1-0.3c-0.2-0.1-0.4-0.2-0.5-0.4c-0.1-0.2-0.2-0.4-0.2-0.6
			c0-0.2,0-0.4,0.1-0.5c0.1-0.2,0.2-0.3,0.4-0.4c0.1-0.1,0.3-0.2,0.5-0.2c0.2-0.1,0.4-0.1,0.6-0.1c0.3,0,0.6,0,0.9,0.1
			c0.3,0.1,0.4,0.2,0.6,0.4c0.1,0.2,0.2,0.4,0.3,0.7l-0.7,0.1c0-0.2-0.1-0.4-0.3-0.5c-0.2-0.1-0.4-0.2-0.7-0.2
			c-0.3,0-0.6,0.1-0.7,0.2c-0.1,0.1-0.2,0.2-0.2,0.4c0,0.1,0,0.2,0.1,0.2c0.1,0.1,0.2,0.1,0.3,0.2c0.1,0,0.3,0.1,0.6,0.2
			c0.5,0.1,0.9,0.3,1.1,0.3c0.2,0.1,0.4,0.2,0.5,0.4c0.1,0.2,0.2,0.4,0.2,0.6c0,0.2-0.1,0.5-0.2,0.7c-0.1,0.2-0.3,0.4-0.6,0.5
			c-0.3,0.1-0.6,0.2-0.9,0.2c-0.6,0-1-0.1-1.3-0.3C490.5,389.8,490.3,389.5,490.3,389z M497.6,389.8c-0.3,0.2-0.5,0.4-0.8,0.5
			c-0.2,0.1-0.5,0.1-0.8,0.1c-0.5,0-0.8-0.1-1.1-0.3s-0.4-0.5-0.4-0.9c0-0.2,0-0.4,0.1-0.6c0.1-0.2,0.2-0.3,0.4-0.4
			c0.2-0.1,0.3-0.2,0.5-0.2c0.1,0,0.4-0.1,0.6-0.1c0.6-0.1,1-0.1,1.3-0.2c0-0.1,0-0.2,0-0.2c0-0.3-0.1-0.5-0.2-0.6
			c-0.2-0.2-0.5-0.2-0.8-0.2c-0.3,0-0.6,0.1-0.8,0.2c-0.2,0.1-0.3,0.3-0.4,0.6l-0.7-0.1c0.1-0.3,0.2-0.6,0.3-0.7
			c0.2-0.2,0.4-0.3,0.6-0.4c0.3-0.1,0.6-0.1,1-0.1c0.4,0,0.7,0,0.9,0.1c0.2,0.1,0.4,0.2,0.5,0.3c0.1,0.1,0.2,0.3,0.2,0.5
			c0,0.1,0,0.4,0,0.7v1c0,0.7,0,1.1,0,1.3c0,0.2,0.1,0.4,0.2,0.5h-0.8C497.7,390.1,497.6,390,497.6,389.8z M497.5,388.1
			c-0.3,0.1-0.7,0.2-1.2,0.3c-0.3,0-0.5,0.1-0.6,0.1c-0.1,0.1-0.2,0.1-0.3,0.2c-0.1,0.1-0.1,0.2-0.1,0.3c0,0.2,0.1,0.4,0.2,0.5
			c0.1,0.1,0.4,0.2,0.6,0.2c0.3,0,0.5-0.1,0.7-0.2c0.2-0.1,0.4-0.3,0.5-0.5c0.1-0.2,0.1-0.4,0.1-0.7V388.1z M499.4,390.6l0.7,0.1
			c0,0.2,0.1,0.4,0.2,0.5c0.2,0.1,0.4,0.2,0.7,0.2c0.3,0,0.6-0.1,0.8-0.2c0.2-0.1,0.3-0.3,0.4-0.6c0-0.1,0.1-0.5,0.1-0.9
			c-0.3,0.4-0.7,0.6-1.2,0.6c-0.6,0-1-0.2-1.4-0.6c-0.3-0.4-0.5-0.9-0.5-1.5c0-0.4,0.1-0.8,0.2-1.1c0.2-0.3,0.4-0.6,0.6-0.8
			c0.3-0.2,0.6-0.3,1-0.3c0.5,0,0.9,0.2,1.3,0.6V386h0.7v3.7c0,0.7-0.1,1.1-0.2,1.4c-0.1,0.3-0.3,0.5-0.6,0.7
			c-0.3,0.2-0.7,0.2-1.1,0.2c-0.5,0-0.9-0.1-1.2-0.3C499.5,391.5,499.4,391.1,499.4,390.6z M500,388.1c0,0.6,0.1,1,0.3,1.2
			c0.2,0.3,0.5,0.4,0.8,0.4c0.3,0,0.6-0.1,0.8-0.4c0.2-0.3,0.3-0.7,0.3-1.2c0-0.5-0.1-0.9-0.3-1.2c-0.2-0.3-0.5-0.4-0.8-0.4
			c-0.3,0-0.6,0.1-0.8,0.4C500.1,387.2,500,387.5,500,388.1z M507.2,388.9l0.8,0.1c-0.1,0.4-0.3,0.8-0.7,1c-0.3,0.2-0.7,0.4-1.2,0.4
			c-0.6,0-1.1-0.2-1.5-0.6c-0.4-0.4-0.5-0.9-0.5-1.6c0-0.7,0.2-1.3,0.6-1.7c0.4-0.4,0.9-0.6,1.5-0.6c0.6,0,1,0.2,1.4,0.6
			c0.4,0.4,0.5,0.9,0.5,1.6c0,0,0,0.1,0,0.2h-3.2c0,0.5,0.2,0.8,0.4,1.1c0.2,0.3,0.5,0.4,0.9,0.4c0.3,0,0.5-0.1,0.7-0.2
			C506.9,389.4,507.1,389.2,507.2,388.9z M504.8,387.7h2.4c0-0.4-0.1-0.6-0.3-0.8c-0.2-0.3-0.5-0.4-0.9-0.4c-0.3,0-0.6,0.1-0.8,0.3
			C505,387,504.8,387.3,504.8,387.7z M510.4,392c-0.4-0.5-0.7-1.1-1-1.8c-0.3-0.7-0.4-1.4-0.4-2.1c0-0.6,0.1-1.3,0.3-1.8
			c0.2-0.7,0.6-1.4,1.1-2h0.5c-0.3,0.6-0.5,1-0.6,1.2c-0.2,0.4-0.3,0.8-0.4,1.2c-0.1,0.5-0.2,1-0.2,1.5c0,1.3,0.4,2.6,1.2,3.9H510.4
			z M512.3,392h-0.5c0.8-1.3,1.2-2.6,1.2-3.9c0-0.5-0.1-1-0.2-1.5c-0.1-0.4-0.2-0.8-0.4-1.2c-0.1-0.2-0.3-0.6-0.7-1.2h0.5
			c0.5,0.7,0.9,1.4,1.1,2c0.2,0.6,0.3,1.2,0.3,1.8c0,0.7-0.1,1.4-0.4,2.1C513,390.9,512.7,391.5,512.3,392z"/>
		<path fill="#FFF2CC" d="M439.9,337.1h80.3v27.6h-80.3V337.1z"/>
		<path fill="none" stroke="#000000" stroke-width="2" stroke-linejoin="round" stroke-miterlimit="10" d="M439.9,337.1h80.3v27.6
			h-80.3V337.1z"/>
		<path d="M452.4,354.3l0.7,0.1c0,0.2,0.1,0.4,0.2,0.5c0.2,0.1,0.4,0.2,0.7,0.2c0.3,0,0.6-0.1,0.8-0.2c0.2-0.1,0.3-0.3,0.4-0.6
			c0-0.1,0.1-0.5,0.1-0.9c-0.3,0.4-0.7,0.6-1.2,0.6c-0.6,0-1-0.2-1.4-0.6c-0.3-0.4-0.5-0.9-0.5-1.5c0-0.4,0.1-0.8,0.2-1.1
			c0.2-0.3,0.4-0.6,0.6-0.8c0.3-0.2,0.6-0.3,1-0.3c0.5,0,0.9,0.2,1.3,0.6v-0.5h0.7v3.7c0,0.7-0.1,1.1-0.2,1.4
			c-0.1,0.3-0.3,0.5-0.6,0.7c-0.3,0.2-0.7,0.2-1.1,0.2c-0.5,0-0.9-0.1-1.2-0.3C452.5,355.1,452.4,354.8,452.4,354.3z M453,351.8
			c0,0.6,0.1,1,0.3,1.2c0.2,0.3,0.5,0.4,0.8,0.4c0.3,0,0.6-0.1,0.8-0.4c0.2-0.3,0.3-0.7,0.3-1.2c0-0.5-0.1-0.9-0.3-1.2
			c-0.2-0.3-0.5-0.4-0.8-0.4c-0.3,0-0.6,0.1-0.8,0.4C453.1,350.8,453,351.2,453,351.8z M460.2,352.6l0.8,0.1c-0.1,0.4-0.3,0.8-0.7,1
			c-0.3,0.2-0.7,0.4-1.2,0.4c-0.6,0-1.1-0.2-1.5-0.6c-0.4-0.4-0.5-0.9-0.5-1.6c0-0.7,0.2-1.3,0.6-1.7c0.4-0.4,0.9-0.6,1.5-0.6
			c0.6,0,1,0.2,1.4,0.6c0.4,0.4,0.5,0.9,0.5,1.6c0,0,0,0.1,0,0.2h-3.2c0,0.5,0.2,0.8,0.4,1.1c0.2,0.3,0.5,0.4,0.9,0.4
			c0.3,0,0.5-0.1,0.7-0.2C459.9,353.1,460.1,352.9,460.2,352.6z M457.8,351.4h2.4c0-0.4-0.1-0.6-0.3-0.8c-0.2-0.3-0.5-0.4-0.9-0.4
			c-0.3,0-0.6,0.1-0.8,0.3C458,350.7,457.8,351,457.8,351.4z M463.6,353.3l0.1,0.6c-0.2,0-0.4,0.1-0.5,0.1c-0.3,0-0.5,0-0.6-0.1
			c-0.1-0.1-0.2-0.2-0.3-0.3c-0.1-0.1-0.1-0.4-0.1-0.9v-2.5h-0.5v-0.6h0.5v-1.1l0.7-0.4v1.5h0.7v0.6h-0.7v2.5c0,0.2,0,0.3,0,0.4
			c0,0.1,0.1,0.1,0.1,0.1c0.1,0,0.1,0,0.2,0C463.3,353.4,463.4,353.3,463.6,353.3z M464.4,354V348h1.2l1.4,4.2
			c0.1,0.4,0.2,0.7,0.3,0.9c0.1-0.2,0.2-0.5,0.3-0.9l1.4-4.1h1.1v5.9h-0.8v-5l-1.7,5h-0.7l-1.7-5.1v5.1H464.4z M474.4,352.6l0.8,0.1
			c-0.1,0.4-0.3,0.8-0.7,1c-0.3,0.2-0.7,0.4-1.2,0.4c-0.6,0-1.1-0.2-1.5-0.6c-0.4-0.4-0.5-0.9-0.5-1.6c0-0.7,0.2-1.3,0.6-1.7
			c0.4-0.4,0.9-0.6,1.5-0.6c0.6,0,1,0.2,1.4,0.6c0.4,0.4,0.5,0.9,0.5,1.6c0,0,0,0.1,0,0.2h-3.2c0,0.5,0.2,0.8,0.4,1.1
			c0.2,0.3,0.5,0.4,0.9,0.4c0.3,0,0.5-0.1,0.7-0.2C474.1,353.1,474.3,352.9,474.4,352.6z M472,351.4h2.4c0-0.4-0.1-0.6-0.3-0.8
			c-0.2-0.3-0.5-0.4-0.9-0.4c-0.3,0-0.6,0.1-0.8,0.3C472.1,350.7,472,351,472,351.4z M475.9,352.7l0.7-0.1c0,0.3,0.2,0.5,0.3,0.7
			c0.2,0.2,0.4,0.2,0.8,0.2s0.6-0.1,0.7-0.2c0.2-0.1,0.2-0.3,0.2-0.5c0-0.2-0.1-0.3-0.2-0.4c-0.1-0.1-0.3-0.1-0.7-0.2
			c-0.5-0.1-0.9-0.2-1.1-0.3c-0.2-0.1-0.4-0.2-0.5-0.4c-0.1-0.2-0.2-0.4-0.2-0.6c0-0.2,0-0.4,0.1-0.5c0.1-0.2,0.2-0.3,0.4-0.4
			c0.1-0.1,0.3-0.2,0.5-0.2c0.2-0.1,0.4-0.1,0.6-0.1c0.3,0,0.6,0,0.9,0.1c0.3,0.1,0.4,0.2,0.6,0.4c0.1,0.2,0.2,0.4,0.3,0.7l-0.7,0.1
			c0-0.2-0.1-0.4-0.3-0.5c-0.2-0.1-0.4-0.2-0.7-0.2c-0.3,0-0.6,0.1-0.7,0.2c-0.1,0.1-0.2,0.2-0.2,0.4c0,0.1,0,0.2,0.1,0.2
			c0.1,0.1,0.2,0.1,0.3,0.2c0.1,0,0.3,0.1,0.6,0.2c0.5,0.1,0.9,0.3,1.1,0.3c0.2,0.1,0.4,0.2,0.5,0.4c0.1,0.2,0.2,0.4,0.2,0.6
			c0,0.2-0.1,0.5-0.2,0.7c-0.1,0.2-0.3,0.4-0.6,0.5c-0.3,0.1-0.6,0.2-0.9,0.2c-0.6,0-1-0.1-1.3-0.3
			C476.1,353.5,475.9,353.2,475.9,352.7z M480.1,352.7l0.7-0.1c0,0.3,0.2,0.5,0.3,0.7c0.2,0.2,0.4,0.2,0.8,0.2
			c0.3,0,0.6-0.1,0.7-0.2c0.2-0.1,0.2-0.3,0.2-0.5c0-0.2-0.1-0.3-0.2-0.4c-0.1-0.1-0.3-0.1-0.7-0.2c-0.5-0.1-0.9-0.2-1.1-0.3
			c-0.2-0.1-0.4-0.2-0.5-0.4c-0.1-0.2-0.2-0.4-0.2-0.6c0-0.2,0-0.4,0.1-0.5c0.1-0.2,0.2-0.3,0.4-0.4c0.1-0.1,0.3-0.2,0.5-0.2
			c0.2-0.1,0.4-0.1,0.6-0.1c0.3,0,0.6,0,0.9,0.1c0.3,0.1,0.4,0.2,0.6,0.4c0.1,0.2,0.2,0.4,0.3,0.7l-0.7,0.1c0-0.2-0.1-0.4-0.3-0.5
			c-0.2-0.1-0.4-0.2-0.7-0.2c-0.3,0-0.6,0.1-0.7,0.2c-0.1,0.1-0.2,0.2-0.2,0.4c0,0.1,0,0.2,0.1,0.2c0.1,0.1,0.2,0.1,0.3,0.2
			c0.1,0,0.3,0.1,0.6,0.2c0.5,0.1,0.9,0.3,1.1,0.3c0.2,0.1,0.4,0.2,0.5,0.4c0.1,0.2,0.2,0.4,0.2,0.6c0,0.2-0.1,0.5-0.2,0.7
			c-0.1,0.2-0.3,0.4-0.6,0.5c-0.3,0.1-0.6,0.2-0.9,0.2c-0.6,0-1-0.1-1.3-0.3C480.4,353.5,480.2,353.2,480.1,352.7z M487.4,353.5
			c-0.3,0.2-0.5,0.4-0.8,0.5c-0.2,0.1-0.5,0.1-0.8,0.1c-0.5,0-0.8-0.1-1.1-0.3c-0.3-0.2-0.4-0.5-0.4-0.9c0-0.2,0-0.4,0.1-0.6
			c0.1-0.2,0.2-0.3,0.4-0.4c0.2-0.1,0.3-0.2,0.5-0.2c0.1,0,0.4-0.1,0.6-0.1c0.6-0.1,1-0.1,1.3-0.2c0-0.1,0-0.2,0-0.2
			c0-0.3-0.1-0.5-0.2-0.6c-0.2-0.2-0.5-0.2-0.8-0.2c-0.3,0-0.6,0.1-0.8,0.2c-0.2,0.1-0.3,0.3-0.4,0.6l-0.7-0.1
			c0.1-0.3,0.2-0.6,0.3-0.7c0.2-0.2,0.4-0.3,0.6-0.4c0.3-0.1,0.6-0.1,1-0.1c0.4,0,0.7,0,0.9,0.1c0.2,0.1,0.4,0.2,0.5,0.3
			c0.1,0.1,0.2,0.3,0.2,0.5c0,0.1,0,0.4,0,0.7v1c0,0.7,0,1.1,0,1.3c0,0.2,0.1,0.4,0.2,0.5h-0.8C487.5,353.8,487.5,353.6,487.4,353.5
			z M487.4,351.8c-0.3,0.1-0.7,0.2-1.2,0.3c-0.3,0-0.5,0.1-0.6,0.1s-0.2,0.1-0.3,0.2c-0.1,0.1-0.1,0.2-0.1,0.3
			c0,0.2,0.1,0.4,0.2,0.5c0.1,0.1,0.4,0.2,0.6,0.2c0.3,0,0.5-0.1,0.7-0.2c0.2-0.1,0.4-0.3,0.5-0.5c0.1-0.2,0.1-0.4,0.1-0.7V351.8z
			 M489.2,354.3l0.7,0.1c0,0.2,0.1,0.4,0.2,0.5c0.2,0.1,0.4,0.2,0.7,0.2c0.3,0,0.6-0.1,0.8-0.2c0.2-0.1,0.3-0.3,0.4-0.6
			c0-0.1,0.1-0.5,0.1-0.9c-0.3,0.4-0.7,0.6-1.2,0.6c-0.6,0-1-0.2-1.4-0.6c-0.3-0.4-0.5-0.9-0.5-1.5c0-0.4,0.1-0.8,0.2-1.1
			c0.2-0.3,0.4-0.6,0.6-0.8c0.3-0.2,0.6-0.3,1-0.3c0.5,0,0.9,0.2,1.3,0.6v-0.5h0.7v3.7c0,0.7-0.1,1.1-0.2,1.4
			c-0.1,0.3-0.3,0.5-0.6,0.7c-0.3,0.2-0.7,0.2-1.1,0.2c-0.5,0-0.9-0.1-1.2-0.3C489.4,355.1,489.2,354.8,489.2,354.3z M489.8,351.8
			c0,0.6,0.1,1,0.3,1.2c0.2,0.3,0.5,0.4,0.8,0.4c0.3,0,0.6-0.1,0.8-0.4c0.2-0.3,0.3-0.7,0.3-1.2c0-0.5-0.1-0.9-0.3-1.2
			c-0.2-0.3-0.5-0.4-0.8-0.4c-0.3,0-0.6,0.1-0.8,0.4C490,350.8,489.8,351.2,489.8,351.8z M497,352.6l0.8,0.1c-0.1,0.4-0.3,0.8-0.7,1
			c-0.3,0.2-0.7,0.4-1.2,0.4c-0.6,0-1.1-0.2-1.5-0.6c-0.4-0.4-0.5-0.9-0.5-1.6c0-0.7,0.2-1.3,0.6-1.7c0.4-0.4,0.9-0.6,1.5-0.6
			c0.6,0,1,0.2,1.4,0.6c0.4,0.4,0.5,0.9,0.5,1.6c0,0,0,0.1,0,0.2h-3.2c0,0.5,0.2,0.8,0.4,1.1c0.2,0.3,0.5,0.4,0.9,0.4
			c0.3,0,0.5-0.1,0.7-0.2C496.8,353.1,496.9,352.9,497,352.6z M494.6,351.4h2.4c0-0.4-0.1-0.6-0.3-0.8c-0.2-0.3-0.5-0.4-0.9-0.4
			c-0.3,0-0.6,0.1-0.8,0.3C494.8,350.7,494.7,351,494.6,351.4z M498.5,352.7l0.7-0.1c0,0.3,0.2,0.5,0.3,0.7c0.2,0.2,0.4,0.2,0.8,0.2
			c0.3,0,0.6-0.1,0.7-0.2c0.2-0.1,0.2-0.3,0.2-0.5c0-0.2-0.1-0.3-0.2-0.4c-0.1-0.1-0.3-0.1-0.7-0.2c-0.5-0.1-0.9-0.2-1.1-0.3
			c-0.2-0.1-0.4-0.2-0.5-0.4c-0.1-0.2-0.2-0.4-0.2-0.6c0-0.2,0-0.4,0.1-0.5c0.1-0.2,0.2-0.3,0.4-0.4c0.1-0.1,0.3-0.2,0.5-0.2
			c0.2-0.1,0.4-0.1,0.6-0.1c0.3,0,0.6,0,0.9,0.1c0.3,0.1,0.4,0.2,0.6,0.4c0.1,0.2,0.2,0.4,0.3,0.7l-0.7,0.1c0-0.2-0.1-0.4-0.3-0.5
			c-0.2-0.1-0.4-0.2-0.7-0.2c-0.3,0-0.6,0.1-0.7,0.2c-0.1,0.1-0.2,0.2-0.2,0.4c0,0.1,0,0.2,0.1,0.2c0.1,0.1,0.2,0.1,0.3,0.2
			c0.1,0,0.3,0.1,0.6,0.2c0.5,0.1,0.9,0.3,1.1,0.3c0.2,0.1,0.4,0.2,0.5,0.4c0.1,0.2,0.2,0.4,0.2,0.6c0,0.2-0.1,0.5-0.2,0.7
			c-0.1,0.2-0.3,0.4-0.6,0.5c-0.3,0.1-0.6,0.2-0.9,0.2c-0.6,0-1-0.1-1.3-0.3C498.8,353.5,498.6,353.2,498.5,352.7z M504.5,355.7
			c-0.4-0.5-0.7-1.1-1-1.8c-0.3-0.7-0.4-1.4-0.4-2.1c0-0.6,0.1-1.3,0.3-1.8c0.2-0.7,0.6-1.4,1.1-2h0.5c-0.3,0.6-0.5,1-0.6,1.2
			c-0.2,0.4-0.3,0.8-0.4,1.2c-0.1,0.5-0.2,1-0.2,1.5c0,1.3,0.4,2.6,1.2,3.9H504.5z M506.4,355.7h-0.5c0.8-1.3,1.2-2.6,1.2-3.9
			c0-0.5-0.1-1-0.2-1.5c-0.1-0.4-0.2-0.8-0.4-1.2c-0.1-0.2-0.3-0.6-0.7-1.2h0.5c0.5,0.7,0.9,1.4,1.1,2c0.2,0.6,0.3,1.2,0.3,1.8
			c0,0.7-0.1,1.4-0.4,2.1C507.1,354.6,506.8,355.2,506.4,355.7z"/>
		<path fill-opacity="0" d="M412.9,387.2l27-36.3"/>
		<path fill="none" stroke="#000000" stroke-width="2" stroke-linejoin="round" stroke-miterlimit="10" d="M412.9,387.2l22.4-30.2"
			/>
		<path stroke="#000000" stroke-width="2" stroke-miterlimit="10" d="M437.1,358.3l1.8-5.9l-5.1,3.4L437.1,358.3z"/>
		<path fill-opacity="0" d="M412.9,387.2h27"/>
		<path fill="none" stroke="#000000" stroke-width="2" stroke-linejoin="round" stroke-miterlimit="10" d="M412.9,387.2h19.3"/>
		<path stroke="#000000" stroke-width="2" stroke-miterlimit="10" d="M432.3,389.3l5.8-2.1l-5.8-2.1V389.3z"/>
		<path fill="#FFF2CC" d="M439.9,409.7h80.3v27.6h-80.3V409.7z"/>
		<path fill="none" stroke="#000000" stroke-width="2" stroke-linejoin="round" stroke-miterlimit="10" d="M439.9,409.7h80.3v27.6
			h-80.3V409.7z"/>
		<path d="M463.5,427l0.7,0.1c0,0.2,0.1,0.4,0.2,0.5c0.2,0.1,0.4,0.2,0.7,0.2c0.3,0,0.6-0.1,0.8-0.2c0.2-0.1,0.3-0.3,0.4-0.6
			c0-0.1,0.1-0.5,0.1-0.9c-0.3,0.4-0.7,0.6-1.2,0.6c-0.6,0-1-0.2-1.4-0.6c-0.3-0.4-0.5-0.9-0.5-1.5c0-0.4,0.1-0.8,0.2-1.1
			c0.2-0.3,0.4-0.6,0.6-0.8c0.3-0.2,0.6-0.3,1-0.3c0.5,0,0.9,0.2,1.3,0.6v-0.5h0.7v3.7c0,0.7-0.1,1.1-0.2,1.4
			c-0.1,0.3-0.3,0.5-0.6,0.7c-0.3,0.2-0.7,0.2-1.1,0.2c-0.5,0-0.9-0.1-1.2-0.3C463.6,427.8,463.5,427.4,463.5,427z M464.1,424.4
			c0,0.6,0.1,1,0.3,1.2c0.2,0.3,0.5,0.4,0.8,0.4c0.3,0,0.6-0.1,0.8-0.4c0.2-0.3,0.3-0.7,0.3-1.2c0-0.5-0.1-0.9-0.3-1.2
			c-0.2-0.3-0.5-0.4-0.8-0.4c-0.3,0-0.6,0.1-0.8,0.4C464.2,423.5,464.1,423.9,464.1,424.4z M471.3,425.2l0.8,0.1
			c-0.1,0.4-0.3,0.8-0.7,1c-0.3,0.2-0.7,0.4-1.2,0.4c-0.6,0-1.1-0.2-1.5-0.6c-0.4-0.4-0.5-0.9-0.5-1.6c0-0.7,0.2-1.3,0.6-1.7
			c0.4-0.4,0.9-0.6,1.5-0.6c0.6,0,1,0.2,1.4,0.6c0.4,0.4,0.5,0.9,0.5,1.6c0,0,0,0.1,0,0.2h-3.2c0,0.5,0.2,0.8,0.4,1.1
			c0.2,0.3,0.5,0.4,0.9,0.4c0.3,0,0.5-0.1,0.7-0.2C471,425.7,471.2,425.5,471.3,425.2z M468.9,424h2.4c0-0.4-0.1-0.6-0.3-0.8
			c-0.2-0.3-0.5-0.4-0.9-0.4c-0.3,0-0.6,0.1-0.8,0.3C469.1,423.4,468.9,423.7,468.9,424z M474.7,425.9l0.1,0.6
			c-0.2,0-0.4,0.1-0.5,0.1c-0.3,0-0.5,0-0.6-0.1c-0.1-0.1-0.2-0.2-0.3-0.3c-0.1-0.1-0.1-0.4-0.1-0.9v-2.5h-0.5v-0.6h0.5v-1.1
			l0.7-0.4v1.5h0.7v0.6h-0.7v2.5c0,0.2,0,0.3,0,0.4c0,0.1,0.1,0.1,0.1,0.1c0.1,0,0.1,0,0.2,0C474.4,426,474.5,426,474.7,425.9z
			 M475.5,426.6v-5.9h2.2c0.4,0,0.7,0,0.9,0.1c0.3,0,0.5,0.1,0.7,0.3c0.2,0.1,0.4,0.3,0.5,0.6c0.1,0.2,0.2,0.5,0.2,0.8
			c0,0.5-0.2,0.9-0.5,1.3c-0.3,0.3-0.9,0.5-1.7,0.5h-1.5v2.4H475.5z M476.3,423.5h1.5c0.5,0,0.9-0.1,1.1-0.3
			c0.2-0.2,0.3-0.5,0.3-0.8c0-0.2-0.1-0.5-0.2-0.6c-0.1-0.2-0.3-0.3-0.5-0.4c-0.1,0-0.4,0-0.7,0h-1.5V423.5z M481.1,421.5v-0.8h0.7
			v0.8H481.1z M481.1,426.6v-4.3h0.7v4.3H481.1z M483,426.6v-4.3h0.7v0.6c0.3-0.5,0.8-0.7,1.4-0.7c0.3,0,0.5,0,0.7,0.1
			c0.2,0.1,0.4,0.2,0.5,0.4c0.1,0.1,0.2,0.3,0.2,0.5c0,0.1,0,0.4,0,0.7v2.6h-0.7V424c0-0.3,0-0.5-0.1-0.7c-0.1-0.1-0.2-0.3-0.3-0.3
			c-0.1-0.1-0.3-0.1-0.5-0.1c-0.3,0-0.6,0.1-0.8,0.3c-0.2,0.2-0.3,0.6-0.3,1.1v2.4H483z M487.4,425.3l0.7-0.1c0,0.3,0.2,0.5,0.3,0.7
			c0.2,0.2,0.4,0.2,0.8,0.2c0.3,0,0.6-0.1,0.7-0.2c0.2-0.1,0.2-0.3,0.2-0.5c0-0.2-0.1-0.3-0.2-0.4c-0.1-0.1-0.3-0.1-0.7-0.2
			c-0.5-0.1-0.9-0.2-1.1-0.3c-0.2-0.1-0.4-0.2-0.5-0.4c-0.1-0.2-0.2-0.4-0.2-0.6c0-0.2,0-0.4,0.1-0.5c0.1-0.2,0.2-0.3,0.4-0.4
			c0.1-0.1,0.3-0.2,0.5-0.2c0.2-0.1,0.4-0.1,0.6-0.1c0.3,0,0.6,0,0.9,0.1c0.3,0.1,0.4,0.2,0.6,0.4c0.1,0.2,0.2,0.4,0.3,0.7l-0.7,0.1
			c0-0.2-0.1-0.4-0.3-0.5c-0.2-0.1-0.4-0.2-0.7-0.2c-0.3,0-0.6,0.1-0.7,0.2c-0.1,0.1-0.2,0.2-0.2,0.4c0,0.1,0,0.2,0.1,0.2
			c0.1,0.1,0.2,0.1,0.3,0.2c0.1,0,0.3,0.1,0.6,0.2c0.5,0.1,0.9,0.3,1.1,0.3c0.2,0.1,0.4,0.2,0.5,0.4c0.1,0.2,0.2,0.4,0.2,0.6
			s-0.1,0.5-0.2,0.7c-0.1,0.2-0.3,0.4-0.6,0.5c-0.3,0.1-0.6,0.2-0.9,0.2c-0.6,0-1-0.1-1.3-0.3C487.7,426.1,487.5,425.8,487.4,425.3z
			 M493.4,428.3c-0.4-0.5-0.7-1.1-1-1.8c-0.3-0.7-0.4-1.4-0.4-2.1c0-0.6,0.1-1.3,0.3-1.8c0.2-0.7,0.6-1.4,1.1-2h0.5
			c-0.3,0.6-0.5,1-0.6,1.2c-0.2,0.4-0.3,0.8-0.4,1.2c-0.1,0.5-0.2,1-0.2,1.5c0,1.3,0.4,2.6,1.2,3.9H493.4z M495.3,428.3h-0.5
			c0.8-1.3,1.2-2.6,1.2-3.9c0-0.5-0.1-1-0.2-1.5c-0.1-0.4-0.2-0.8-0.4-1.2c-0.1-0.2-0.3-0.6-0.7-1.2h0.5c0.5,0.7,0.9,1.4,1.1,2
			c0.2,0.6,0.3,1.2,0.3,1.8c0,0.7-0.1,1.4-0.4,2.1C496,427.2,495.7,427.8,495.3,428.3z"/>
		<path fill-opacity="0" d="M412.9,423.5h27"/>
		<path fill="none" stroke="#000000" stroke-width="2" stroke-linejoin="round" stroke-miterlimit="10" d="M412.9,423.5h19.3"/>
		<path stroke="#000000" stroke-width="2" stroke-miterlimit="10" d="M432.3,425.6l5.8-2.1l-5.8-2.1V425.6z"/>
		<path fill-opacity="0" d="M412.9,459.8l27-36.3"/>
		<path fill="none" stroke="#000000" stroke-width="2" stroke-linejoin="round" stroke-miterlimit="10" d="M412.9,459.8l22.4-30.2"
			/>
		<path stroke="#000000" stroke-width="2" stroke-miterlimit="10" d="M437.1,430.9l1.8-5.9l-5.1,3.4L437.1,430.9z"/>
	</g>
</g>
</svg>
